<?xml version="1.0" encoding="UTF-8"?>
<!DOCTYPE svg PUBLIC "-//W3C//DTD SVG 1.1//EN" "http://www.w3.org/Graphics/SVG/1.1/DTD/svg11.dtd">
<!-- Creator: CorelDRAW X8 -->
<svg xmlns="http://www.w3.org/2000/svg" xml:space="preserve" width="100mm" height="110mm" version="1.1" style="shape-rendering:geometricPrecision; text-rendering:geometricPrecision; image-rendering:optimizeQuality; fill-rule:evenodd; clip-rule:evenodd"
viewBox="0 0 10000 11000"
 xmlns:xlink="http://www.w3.org/1999/xlink">
 <defs>
  <style type="text/css">
   <![CDATA[
    .str0 {stroke:#373435;stroke-width:141.11}
    .fil0 {fill:#FAED1F}
    .fil1 {fill:#4B4A47}
   ]]>
  </style>
 </defs>
 <g id="Layer_x0020_1">
  <metadata id="CorelCorpID_0Corel-Layer"/>
  <g id="_2218392046608">
   <path class="fil0 str0" d="M7295 7754l-8 52 -8 44 -20 72 -32 105 -11 21 -6 21 -20 39 -8 20 -8 16 -9 16 -9 15 -5 12 -11 16 -9 16 -5 11 -12 15 -18 25 -6 10 -19 23 -8 10 -6 10 -13 13 -7 8 -6 14 -10 7 -8 6 -9 9 -26 25 -26 27 -14 17 -10 7 -10 7 -8 9 -14 13 -10 7 -9 7 -23 19 -10 6 -13 8 -11 11 -10 6 -17 11 -9 6 -29 16 -13 11 -16 8 -15 11 -15 4 -16 9 -17 8 -38 20 -19 8 -19 7 -42 17 -25 9 -25 9 -57 18 -32 11 -36 7 -41 10 -101 17 -69 8 -406 26c-214,-1 -431,11 -647,11 -645,0 -1373,-14 -1999,1l0 -2641c257,-4 2141,-19 2224,15l12 -7 359 17 213 17 159 18 120 16 56 11 43 8 38 6 38 11 35 9 56 19 70 24 41 18 21 7 71 37 16 8 15 5 15 10 15 10 16 9 12 5 16 11 12 10 13 7 24 18 11 6 22 19 11 7 11 5 11 14 11 8 9 7 13 13c11,8 18,14 27,23l9 8 8 9 9 8 9 9c12,0 8,-3 8,10l6 7c13,0 11,-4 11,8l8 11 19 19 7 13 8 8 11 15 7 9 19 24 6 10 8 12 10 12 17 25 16 29 10 13 10 16 34 68 7 19 18 41 15 46 10 24 7 26 21 63 7 37 8 43 10 57 9 69c7,124 10,273 -10,394zm-362 -4196l-19 107 -28 100 -8 25 -25 69 -8 20 -7 17 -18 33 -19 31 -9 18 -17 26 -17 24 -6 11 -12 11 -7 12 -7 11 -19 23 -8 7 -9 9c-12,19 -47,55 -62,66l-30 29 -9 7 -9 8 -11 8 -11 13 -10 6 -10 7 -16 12 -7 7 -11 6 -14 12 -12 5 -14 11 -14 6 -12 10 -16 10 -17 10 -12 4 -17 9 -17 9 -55 28 -20 7 -42 17 -74 27 -88 24 -75 18 -48 11 -52 8c-551,64 -2156,43 -2798,41l4 -2270c903,-7 1818,-8 2719,23 27,3 80,5 103,16l3 -6 63 8 57 10 112 25 33 9 27 8 25 8 50 19 42 17 55 28 17 8 18 9 29 15 12 10 14 5 13 12 13 5 12 12 12 6 13 11 14 7 19 20 9 7 10 8 9 9 8 8 9 8 9 8 9 9 8 8 8 9 8 9 8 8 9 11 8 5c12,0 8,-2 8,12l12 11 7 10 7 13 18 22 33 51 10 17 10 14 14 31 9 16 8 17 20 38 6 21 10 23 9 24 8 27 27 102c32,131 29,300 19,439zm-684 6871l12 7c56,-23 271,-16 353,-22 357,-27 619,-59 961,-176 439,-149 871,-458 1112,-775 191,-250 287,-388 424,-712 161,-384 251,-791 230,-1278l7 -3c-13,-29 -14,-137 -23,-189l-9 -66 -8 -52 -17 -93 -17 -75 -9 -33 -5 -30 -10 -32 -10 -32 -7 -28 -8 -25 -8 -25 -9 -24 -15 -46 -10 -21 -6 -22 -17 -42 -18 -42 -8 -18 -50 -102 -8 -16 -9 -15 -9 -15 -10 -17 -14 -31 -19 -29 -7 -13 -8 -17 -11 -12 -16 -26 -17 -26 -17 -25 -7 -13 -11 -12 -6 -11 -18 -24 -7 -10 -17 -25 -9 -11 -18 -21 -7 -10 -8 -10 -27 -32 -7 -9 -9 -10 -7 -10 -13 -10 -7 -10 -8 -12 -8 -5 -8 -11 -7 -10 -8 -8 -9 -8c-12,-9 -3,9 -15,-17l-11 -8 -9 -8c-12,0 -8,2 -8,-11l-7 -8c-12,0 -8,3 -8,-11 -34,-11 -6,1 -19,-14l-7 -10 -9 -6 -9 -8 -9 -9 -9 -8 -9 -8 -9 -8 -16 -15 -13 -6 -11 -14 -8 -8c-20,-13 -30,-22 -44,-34l-10 -7 -10 -6 -11 -13 -13 -7 -6 -8 -13 -5 -11 -14 -37 -24 -10 -5 -16 -12 -11 -5 -13 -13 -11 -5 -14 -12 -11 -6 -13 -10 -14 -5 -13 -12 -15 -9 -28 -16 -17 -9 -27 -15 -15 -10 -11 -4 -18 -10 -15 -10 -16 -9 -16 -9 -16 -9 -18 -8 -18 -8 -17 -8 -18 -8 -17 -9 -17 -8 -18 -7 -38 -20 -20 -6 -41 -18 -20 -7 -23 -10 -40 -17 -70 -24 -25 -9 -24 -9 -25 -9 -27 -7 -26 -8 -54 -13c9,-19 -2,-11 19,-21l17 -8 17 -8 17 -8 16 -9 19 -8 16 -9 17 -9 16 -8 31 -14 13 -10 15 -10 18 -10 10 -5 17 -8 29 -16 12 -11 14 -6 11 -11 13 -6 15 -10 10 -7 15 -10 10 -7 14 -10 12 -7 12 -13 10 -5 11 -7 25 -18 7 -8 15 -12 10 -7 9 -7c6,-6 12,-12 23,-21l10 -6 9 -7 10 -8 8 -8c0,-12 -3,-8 10,-8l10 -8 47 -44 9 -8 9 -8 9 -9 8 -8 9 -8 8 -9 9 -8 9 -8 8 -9 8 -9 8 -9 9 -8 8 -9 8 -9 8 -9 8 -9 7 -9 7 -10 15 -12 7 -7 8 -11 7 -10 6 -10 13 -11 8 -12 7 -10 19 -22 7 -11 7 -10 11 -13 8 -11 6 -10 11 -14 7 -10 18 -25 18 -23 6 -12 10 -12 7 -13 10 -12 6 -14 11 -13 15 -29 10 -13 15 -30 10 -14 10 -14 13 -32 10 -16 9 -15 9 -16 8 -17 9 -16 8 -17 8 -19 7 -18 19 -41 7 -18 25 -60 10 -22 14 -46 10 -24 8 -25 8 -26 25 -85 25 -103 17 -83 16 -103 17 -161c12,-133 11,-378 -18,-507l-32 -188 -8 -35 -8 -34 -16 -60 -26 -84 -8 -26 -10 -23 -15 -44 -17 -41 -6 -22 -12 -19 -6 -22 -8 -18 -59 -119 -9 -14 -10 -14 -19 -34 -14 -27 -16 -26 -16 -28 -11 -12 -15 -29 -17 -27 -12 -12 -5 -11 -18 -23 -7 -12 -17 -26 -25 -36 -13 -10 -6 -11 -7 -9c-12,0 -8,3 -8,-11l-10 -15 -8 -6 -7 -10 -13 -15 -7 -10 -7 -7 -7 -13 -7 -10 -22 -19 -7 -10 -8 -9 -8 -9 -8 -9 -8 -9 -8 -8 -9 -9 -8 -9 -8 -9 -8 -9c-15,-16 -28,-26 -44,-48l-48 -46 -9 -8 -8 -8 -9 -8 -10 -7 -8 -9 -9 -8 -10 -8 -10 -7 -20 -20 -11 -7 -10 -8 -10 -7 -21 -19 -11 -8 -32 -26 -11 -7 -11 -5 -12 -13 -11 -7 -13 -12 -12 -5 -10 -6 -16 -12 -13 -9c-13,0 -11,4 -11,-9l-11 -5 -13 -11 -13 -5 -14 -11 -28 -16 -14 -10 -29 -14 -14 -11 -14 -10 -31 -13 -15 -10 -33 -18 -20 -7 -15 -10 -16 -8 -15 -9 -18 -8 -19 -7 -18 -7 -40 -20 -20 -6 -22 -11 -19 -7 -41 -17 -23 -9 -153 -51 -28 -7 -59 -16 -33 -10 -33 -8 -36 -7 -126 -26 -305 -42 -289 -24c-543,-56 -1918,-35 -2537,-35 -120,0 -2434,-10 -2556,3l0 9803c206,10 435,1 643,1 214,0 429,0 643,0 1245,0 2613,19 3836,-32z"/>
   <path class="fil1 str0" d="M5905 4507l52 -8 48 -11 75 -18 88 -24 74 -27 42 -17 20 -7 55 -28 17 -9 17 -9 12 -4 17 -10 16 -10 12 -10 14 -6 14 -11 12 -5 14 -12 11 -6 7 -7 16 -12 10 -7 10 -6 11 -13 11 -8 9 -8 9 -7 30 -29c15,-11 50,-47 62,-66l9 -9 8 -7 19 -23 7 -11 7 -12 12 -11 6 -11 17 -24 17 -26 9 -18 19 -31 18 -33 7 -17 8 -20 25 -69 8 -25 28 -100 19 -107c10,-139 13,-308 -19,-439l-27 -102 -8 -27 -9 -24 -10 -23 -6 -21 -20 -38 -8 -17 -9 -16 -14 -31 -10 -14 -10 -17 -33 -51 -18 -22 -7 -13 -7 -10 -12 -11c0,-14 4,-12 -8,-12l-8 -5 -9 -11 -8 -8 -8 -9 -8 -9 -8 -8 -9 -9 -9 -8 -9 -8 -8 -8 -9 -9 -10 -8 -9 -7 -19 -20 -14 -7 -13 -11 -12 -6 -12 -12 -13 -5 -13 -12 -14 -5 -12 -10 -29 -15 -18 -9 -17 -8 -55 -28 -42 -17 -50 -19 -25 -8 -27 -8 -33 -9 -112 -25 -57 -10 -63 -8c14,18 -2,10 26,13 28,3 15,0 37,-5 5,25 -4,9 22,13 20,4 19,0 35,-3 12,14 -1,5 22,15 9,3 14,4 27,7 27,5 33,8 63,3 8,12 -27,19 33,9 6,13 -22,19 27,8 5,13 -21,19 25,8 10,20 -7,7 19,16 24,9 1,5 31,3 7,21 -8,4 12,13 23,10 -6,6 30,4 10,16 -16,2 22,21 12,6 14,6 33,7 8,11 -10,10 17,8 8,12 -10,10 18,9 15,22 0,13 29,15 2,13 -15,12 12,10 2,14 -1,10 14,5 1,16 -16,14 13,12 0,14 -3,10 13,5 1,16 -17,14 12,12 1,14 -2,10 12,6 2,15 -15,12 13,11 1,14 -2,10 14,7 5,20 -18,8 19,20l9 7 10 8c-1,13 -4,10 9,9 -1,12 -4,9 8,8 -1,13 -4,10 9,8 -2,13 -4,10 9,8 -2,14 -5,11 9,9 -3,13 -6,10 8,8 -2,13 -5,11 8,9 -2,13 -5,10 8,9 -1,12 -4,10 8,8 -1,13 -4,9 9,11l8 5c-1,14 -4,10 8,12 0,27 -3,10 12,11 -4,16 -9,14 7,10 -2,14 -6,11 7,13 6,25 -2,12 18,22 4,27 -4,8 11,31 14,21 5,10 22,20 -2,31 -3,13 10,17 -4,31 -5,13 10,14 0,31 -10,14 14,31 -2,27 -3,10 9,16 -3,29 -4,10 8,17 -1,17 -4,8 3,21 11,22 1,8 17,17 -8,35 -6,15 6,21 -4,44 -3,16 10,23 -8,47 -4,19 9,24 -9,48 -4,20 8,27 -3,27 0,33 4,54 2,9 6,21 8,26 10,22 1,10 15,22 -7,39 0,61 6,101 17,108 0,285 13,338 -37,5 -1,-11 -12,14 -1,4 -7,25 -7,28 -3,17 -5,38 0,65 -24,19 2,-10 -12,16 -1,3 -9,24 -9,25 -7,25 -9,33 -7,59 -11,9 -15,-18 -8,25 -22,20 -27,39 -25,69 -14,4 -15,-13 -8,20 -15,1 -16,-17 -7,17 -16,3 -13,-19 -13,12 -14,11 -5,-2 -5,21 -11,6 -13,-12 -19,31 -13,5 -11,-13 -9,18 -20,10 -13,-1 -17,26 -19,9 -13,-2 -17,24 -14,-2 -10,-4 -6,11 -15,2 -13,-15 -12,11 -12,3 -9,-1 -7,12 -15,-2 -11,-4 -7,11 -23,7 -14,-7 -19,23 -12,-2 -10,-5 -8,7 -13,0 -10,-3 -9,9 -25,15 -50,36 -62,66 -31,11 -20,6 -30,29 -13,-3 -11,-6 -9,7 -13,-1 -10,-4 -9,8l-11 8c-27,0 -10,-3 -11,13 -16,-5 -14,-10 -10,6 -14,-3 -12,-6 -10,7 -31,-1 -12,-4 -16,12 -14,-6 -12,-8 -7,7 -15,-3 -13,-7 -11,6 -30,-1 -13,-3 -14,12 -15,-4 -13,-9 -12,5 -30,-1 -12,-3 -14,11 -15,-3 -11,-7 -14,6 -26,-1 -9,-3 -12,10 -32,-3 -14,-5 -16,10 -33,-7 -15,-7 -17,10 -15,-6 -12,-10 -12,4 -29,-1 -11,-3 -17,9 -28,-2 -11,-3 -17,9 -20,0 -22,0 -34,6 -39,20 -11,2 -21,22 -33,-8 -15,-7 -20,7 -19,-2 -5,-5 -23,2 -18,7 -10,5 -19,15 -26,-1 -58,4 -74,27 -26,-3 -26,-2 -47,3 -16,4 -8,1 -19,7 -18,8 -12,4 -22,14 -21,-3 -17,-5 -40,0 -46,8 -25,7 -35,18 -15,-3 -5,-7 -26,-3 -30,6 -11,-10 -22,14 -24,-6 -1,-9 -29,-5 -29,4 -11,-9 -23,13 -28,-7 -406,19 -503,19 -98,0 -118,9 -169,9 -687,9 -1426,0 -2117,0l0 -2244 2537 12c52,8 124,12 177,-2 4,24 -13,13 37,17 15,1 48,-1 66,-1 -23,-11 -76,-13 -103,-16 -901,-31 -1816,-30 -2719,-23l-4 2270c642,2 2247,23 2798,-41z"/>
   <path class="fil1 str0" d="M5753 8800l406 -26 69 -8 101 -17 41 -10 36 -7 32 -11 57 -18 25 -9 25 -9 42 -17 19 -7 19 -8 38 -20 17 -8 16 -9 15 -4 15 -11 16 -8 13 -11 29 -16 9 -6 17 -11 10 -6 11 -11 13 -8 10 -6 23 -19 9 -7 10 -7 14 -13 8 -9 10 -7 10 -7 14 -17 26 -27 26 -25 9 -9 8 -6 10 -7 6 -14 7 -8 13 -13 6 -10 8 -10 19 -23 6 -10 18 -25 12 -15 5 -11 9 -16 11 -16 5 -12 9 -15 9 -16 8 -16 8 -20 20 -39 6 -21 11 -21 32 -105 20 -72 8 -44 8 -52c20,-121 17,-270 10,-394l-9 -69 -10 -57 -8 -43 -7 -37 -21 -63 -7 -26 -10 -24 -15 -46 -18 -41 -7 -19 -34 -68 -10 -16 -10 -13 -16 -29 -17 -25 -10 -12 -8 -12 -6 -10 -19 -24 -7 -9 -11 -15 -8 -8 -7 -13 -19 -19 -8 -11c0,-12 2,-8 -11,-8l-6 -7c0,-13 4,-10 -8,-10l-9 -9 -9 -8 -8 -9 -9 -8c-9,-9 -16,-15 -27,-23l-13 -13 -9 -7 -11 -8 -11 -14 -11 -5 -11 -7 -22 -19 -11 -6 -24 -18 -13 -7 -12 -10 -16 -11 -12 -5 -16 -9 -15 -10 -15 -10 -15 -5 -16 -8 -71 -37 -21 -7 -41 -18 -70 -24 -56 -19 -35 -9 -38 -11 -38 -6 -43 -8 -56 -11 -120 -16 -159 -18 -213 -17 -359 -17c12,26 -12,9 33,16 6,1 43,0 51,-1 102,-1 212,18 275,2 5,24 -9,13 38,16 18,1 38,-2 59,0 43,5 60,15 116,1 4,29 -10,8 29,15 7,2 28,1 40,3 34,4 42,11 90,0 16,22 -6,4 23,13 0,0 28,6 29,6 36,5 31,6 68,-3 5,26 -4,10 22,14 19,3 18,0 34,-3 9,20 -6,8 17,11 23,3 8,1 26,-3 9,11 -18,20 38,6 2,24 -8,20 38,11 9,11 -21,18 35,9 10,13 -3,7 20,15 22,9 11,6 36,4 21,21 39,26 70,24 9,19 -6,4 13,13 23,11 -4,6 28,5 6,13 -14,14 21,7 9,18 -17,1 26,24 18,10 23,12 45,13 7,11 -10,10 16,8 3,14 -1,10 15,5 0,16 -17,15 15,10 3,14 -15,13 15,10 5,12 -13,11 16,9 0,14 -3,10 12,5 2,16 -16,15 16,11 3,13 -14,11 12,10 3,13 -1,9 13,7 9,21 -4,13 24,18 -1,14 -4,10 11,6 8,24 -8,14 22,19 0,14 -3,10 11,7 -4,17 -5,12 11,5 0,18 -17,15 11,14 1,12 -2,9 11,8 -2,13 -5,10 9,7 4,16 -15,7 13,13 10,25 3,17 27,23 0,12 -3,9 9,8 -1,12 -3,9 8,9 0,12 -3,9 9,8 -1,12 -4,9 9,9l8 10 6 7 11 8 8 11c10,36 -1,13 19,19 -3,16 -7,13 7,13l8 8c-1,30 -3,11 11,15 -4,14 -7,11 7,9 4,32 -6,15 19,24 -4,14 -8,13 6,10 -1,13 -4,9 8,12 -1,26 -3,9 10,12 3,29 -5,17 17,25 3,29 -6,14 16,29 -2,29 -4,11 10,13 -5,34 -6,15 10,16 0,24 -3,20 9,42 20,40 11,19 25,26 -8,33 -7,15 7,19 -3,20 -6,5 2,23 9,22 1,9 16,18 -4,21 -5,8 1,25 12,36 -2,5 14,21 -6,43 -3,16 10,24 -8,44 -4,18 7,26 -2,24 -5,15 2,39 9,27 1,14 19,24 -14,58 -4,29 7,37 -4,15 -8,9 -3,27 7,26 -9,1 11,16 -3,15 -7,15 -3,35 5,29 -9,11 13,22 -4,19 -7,14 -6,38 3,51 -4,18 15,31 -7,27 -13,378 -10,394 -24,9 -7,-8 -11,17 -4,27 -2,13 3,35 -23,6 -9,-9 -12,15 -3,30 -2,3 4,29 -16,10 -10,-2 -19,25 -7,23 -4,24 -1,47 -13,14 -1,-6 -14,22 -6,11 -5,12 -10,24 -8,26 -11,31 -8,59 -14,6 -16,-23 -11,21 -13,7 -14,-10 -6,21 -25,6 -3,-9 -14,12 -11,21 -6,-4 -6,27 -12,6 -12,-13 -8,20 -13,2 -13,-14 -8,16 -13,3 -12,-14 -9,16 -12,4 -11,-12 -9,15 -14,1 -11,-2 -5,12 -16,3 -15,-15 -11,16 -13,4 -12,-14 -9,16 -15,-2 -11,-4 -5,11 -17,2 -15,-16 -12,15 -22,10 -13,-3 -18,25 -14,-2 -10,-4 -6,10 -23,9 -13,-7 -19,23 -13,-1 -10,-3 -8,10 -15,-3 -11,-5 -6,10 -16,2 -11,-16 -13,13l-7 8c-14,1 -10,-2 -6,14 -15,-6 -13,-9 -10,7 -13,-4 -11,-7 -8,6 -14,-1 -11,-4 -9,9l-26 25 -26 27c-16,5 -10,1 -14,17 -15,-3 -13,-7 -10,7 -13,-1 -10,-5 -10,7l-8 9c-30,0 -12,-4 -14,13 -15,-6 -13,-9 -10,7 -14,-4 -11,-7 -9,7 -33,4 -16,-6 -23,19 -15,-5 -14,-9 -10,6 -14,-2 -10,-5 -13,8 -26,-2 -9,-4 -11,11 -15,-4 -13,-9 -10,6 -32,-2 -13,-4 -17,11 -14,-5 -12,-8 -9,6 -27,4 -13,-4 -29,16 -26,-1 -9,-3 -13,11 -32,-5 -13,-5 -16,8 -32,-5 -15,-6 -15,11 -16,-6 -12,-10 -15,4 -26,-1 -9,-2 -16,9 -27,-2 -10,-3 -17,8 -16,0 -8,-3 -21,4 -20,10 -8,2 -17,16 -34,-7 -15,-6 -19,8 -31,-6 -12,-5 -19,7 -16,0 -2,-5 -21,3 -28,11 -10,3 -21,14 -43,-4 -15,-2 -25,9 -44,-5 -16,-3 -25,9 -19,-2 -11,-5 -31,1 -47,12 -13,0 -26,17 -61,-9 -24,-3 -32,11 -59,-13 -28,-4 -36,7 -55,-14 -35,-2 -41,10 -26,-6 -42,-4 -58,-2 -2,1 -20,4 -22,5 -29,11 -9,-14 -21,14 -20,-5 -13,-8 -39,-7 -61,3 -16,-6 -30,15l-384 12c-29,8 -10,-10 -22,14 -57,-15 -269,-12 -330,-3 -105,16 -2149,5 -2307,5l0 -2625c370,0 740,0 1109,0 379,0 733,9 1106,9 -83,-34 -1967,-19 -2224,-15l0 2641c626,-15 1354,-1 1999,-1 216,0 433,-12 647,-11z"/>
   <path class="fil1 str0" d="M6261 10436c124,0 242,7 365,-12 45,-7 131,-12 173,-13 77,-2 156,-18 233,-30l58 -10c10,-2 38,-8 43,-8l480 -130c2,0 4,-1 6,-2l19 -6c9,-4 12,-5 18,-7l606 -334c29,-20 30,-25 56,-46 116,-94 210,-188 312,-298 5,-5 7,-7 12,-13 1,-1 3,-3 4,-4l229 -305c0,0 7,-11 10,-15 4,-5 6,-9 10,-16l105 -183c1,-1 2,-4 3,-5l76 -152c1,-2 2,-4 3,-6l191 -545c4,-16 4,-20 8,-42l10 -42c2,-10 6,-27 9,-41 7,-31 10,-48 14,-79 1,-3 1,-5 1,-8l33 -247c2,-45 5,-91 8,-137l0 -203c-1,-31 2,-11 -15,-24 21,487 -69,894 -230,1278 -137,324 -233,462 -424,712 -241,317 -673,626 -1112,775 -342,117 -604,149 -961,176 -82,6 -297,-1 -353,22z"/>
  </g>
 </g>
</svg>
