<?xml version="1.0" encoding="UTF-8"?>
<!DOCTYPE svg PUBLIC "-//W3C//DTD SVG 1.1//EN" "http://www.w3.org/Graphics/SVG/1.1/DTD/svg11.dtd">
<!-- Creator: CorelDRAW X8 -->
<svg xmlns="http://www.w3.org/2000/svg" xml:space="preserve" width="100mm" height="110mm" version="1.1" style="shape-rendering:geometricPrecision; text-rendering:geometricPrecision; image-rendering:optimizeQuality; fill-rule:evenodd; clip-rule:evenodd"
viewBox="0 0 10000 11000"
 xmlns:xlink="http://www.w3.org/1999/xlink">
 <defs>
  <style type="text/css">
   <![CDATA[
    .str0 {stroke:#373435;stroke-width:141.11}
    .fil0 {fill:#FAED23}
   ]]>
  </style>
 </defs>
 <g id="Layer_x0020_1">
  <metadata id="CorelCorpID_0Corel-Layer"/>
  <path class="fil0 str0" d="M1055 5661c0,670 66,1447 274,2080 119,362 248,687 437,1018 36,63 74,119 113,183 20,33 38,53 59,85l194 255c92,108 184,201 284,301 12,13 20,22 33,34 19,16 25,17 43,34l240 200c116,86 224,156 352,232 619,371 1410,558 2206,582l343 0c612,-18 1212,-132 1727,-333 208,-81 278,-119 465,-212 118,-58 224,-135 326,-216 63,-50 139,-162 169,-237 98,-243 75,-610 75,-882 0,-152 -4,-501 -132,-604 -108,-86 -266,-5 -362,59l-149 96c-102,67 -211,122 -315,185 -215,130 -457,215 -696,295 -599,200 -1437,179 -2020,-82 -22,-10 -38,-20 -63,-30l-386 -241c-82,-62 -159,-137 -227,-213 -16,-19 -30,-29 -46,-47l-79 -99c-79,-105 -155,-209 -215,-326 -128,-246 -230,-496 -300,-776 -192,-762 -212,-1808 -57,-2595 32,-161 70,-296 114,-445 24,-79 42,-136 71,-209 80,-204 168,-380 279,-567 36,-61 73,-111 114,-165 74,-99 141,-166 189,-227 41,-53 161,-155 221,-202 163,-127 336,-236 532,-314 70,-28 136,-51 208,-72 454,-125 1029,-121 1487,12 430,124 756,311 1128,557 147,98 426,351 571,86 112,-203 108,-494 108,-739 0,-275 -15,-596 -113,-776 -33,-61 -87,-114 -134,-163 -97,-102 -223,-176 -346,-246 -596,-341 -1397,-519 -2139,-525l-45 0c-109,1 -307,9 -393,21l-402 48c-448,62 -864,216 -1271,396l-150 79c-28,14 -45,26 -70,40 -49,26 -90,53 -138,82l-199 131c-98,66 -191,142 -279,221l-91 79c-66,51 -170,157 -227,221 -334,380 -524,674 -757,1140l-132 308c-23,58 -42,106 -62,166 -83,253 -141,432 -201,696 -110,474 -166,1044 -166,1621z"/>
 </g>
</svg>
