<?xml version="1.0" encoding="UTF-8"?>
<!DOCTYPE svg PUBLIC "-//W3C//DTD SVG 1.1//EN" "http://www.w3.org/Graphics/SVG/1.1/DTD/svg11.dtd">
<!-- Creator: CorelDRAW X8 -->
<svg xmlns="http://www.w3.org/2000/svg" xml:space="preserve" width="100mm" height="110mm" version="1.1" style="shape-rendering:geometricPrecision; text-rendering:geometricPrecision; image-rendering:optimizeQuality; fill-rule:evenodd; clip-rule:evenodd"
viewBox="0 0 10000 11000"
 xmlns:xlink="http://www.w3.org/1999/xlink">
 <defs>
  <style type="text/css">
   <![CDATA[
    .str0 {stroke:#373435;stroke-width:141.11}
    .fil0 {fill:#FAED23}
   ]]>
  </style>
 </defs>
 <g id="Layer_x0020_1">
  <metadata id="CorelCorpID_0Corel-Layer"/>
  <path class="fil0 str0" d="M4069 8866l-974 0 0 -6748 1135 0c595,0 1189,112 1642,372l290 192c22,17 31,25 52,41 25,20 33,30 55,48 40,32 65,64 101,93 135,106 331,391 423,542 50,81 90,173 129,252 22,45 37,88 57,138 19,50 36,95 52,143 63,190 114,402 149,622 114,717 90,1737 -145,2437 -114,340 -249,645 -479,926 -31,38 -59,76 -93,110 -35,34 -63,63 -98,97 -19,19 -31,32 -50,51 -23,23 -33,27 -55,47 -78,68 -144,115 -232,174l-186 110c-120,72 -358,161 -500,203 -58,17 -101,29 -162,42 -107,22 -228,47 -343,63 -241,31 -500,45 -768,45zm-2989 -7781l0 8813c0,336 227,576 584,576l2472 0c421,0 816,-32 1193,-78 88,-10 181,-27 271,-42 226,-37 569,-112 775,-181 187,-64 274,-88 465,-170 300,-131 459,-228 714,-396l181 -132c30,-23 56,-48 88,-72 20,-16 23,-20 41,-35 21,-17 27,-19 47,-39l84 -76c191,-189 290,-303 441,-507 23,-32 46,-61 68,-94 23,-34 39,-63 62,-98 566,-882 777,-2006 777,-3041l0 -17c0,-349 -3,-514 -33,-873 -44,-528 -165,-1032 -357,-1514l-143 -314c-19,-38 -36,-67 -56,-104 -95,-177 -241,-406 -369,-563 -108,-131 -174,-215 -304,-340 -2,-1 -7,-6 -9,-8l-225 -206c-122,-106 -317,-240 -455,-325l-199 -114c-324,-160 -526,-254 -886,-358 -661,-191 -1381,-260 -2230,-260l-2345 0c-99,0 -195,11 -270,35 -237,76 -382,277 -382,533z"/>
 </g>
</svg>
