<?xml version="1.0" encoding="UTF-8"?>
<!DOCTYPE svg PUBLIC "-//W3C//DTD SVG 1.1//EN" "http://www.w3.org/Graphics/SVG/1.1/DTD/svg11.dtd">
<!-- Creator: CorelDRAW X8 -->
<svg xmlns="http://www.w3.org/2000/svg" xml:space="preserve" width="100mm" height="110mm" version="1.1" style="shape-rendering:geometricPrecision; text-rendering:geometricPrecision; image-rendering:optimizeQuality; fill-rule:evenodd; clip-rule:evenodd"
viewBox="0 0 10000 11000"
 xmlns:xlink="http://www.w3.org/1999/xlink">
 <defs>
  <style type="text/css">
   <![CDATA[
    .str0 {stroke:#373435;stroke-width:141.11}
    .fil0 {fill:#FAED23}
   ]]>
  </style>
 </defs>
 <g id="Layer_x0020_1">
  <metadata id="CorelCorpID_0Corel-Layer"/>
  <path class="fil0 str0" d="M1928 913l0 9084c0,343 238,593 601,593l5165 0c225,0 299,-319 313,-649l0 -260c-7,-188 -27,-350 -41,-421 -25,-123 -101,-313 -247,-313l-3708 0 0 -2887 3057 0c338,0 338,-501 338,-787 0,-216 5,-813 -313,-813l-3082 0 0 -2498 3675 0c383,0 295,-1107 242,-1351 -27,-120 -98,-291 -242,-291l-5165 0c-344,0 -593,236 -593,593z"/>
 </g>
</svg>
