<?xml version="1.0" encoding="UTF-8"?>
<!DOCTYPE svg PUBLIC "-//W3C//DTD SVG 1.1//EN" "http://www.w3.org/Graphics/SVG/1.1/DTD/svg11.dtd">
<!-- Creator: CorelDRAW X8 -->
<svg xmlns="http://www.w3.org/2000/svg" xml:space="preserve" width="100mm" height="110mm" version="1.1" style="shape-rendering:geometricPrecision; text-rendering:geometricPrecision; image-rendering:optimizeQuality; fill-rule:evenodd; clip-rule:evenodd"
viewBox="0 0 10000 11000"
 xmlns:xlink="http://www.w3.org/1999/xlink">
 <defs>
  <style type="text/css">
   <![CDATA[
    .str0 {stroke:#373435;stroke-width:141.11}
    .fil0 {fill:#FAED1F}
   ]]>
  </style>
 </defs>
 <g id="Layer_x0020_1">
  <metadata id="CorelCorpID_0Corel-Layer"/>
  <path class="fil0 str0" d="M1029 1245l0 9090c0,238 87,311 335,371 130,31 353,55 598,62l296 0c319,-10 624,-51 764,-143 71,-46 117,-113 117,-228l0 -3813 3177 0c367,0 307,-1119 245,-1383 -31,-133 -107,-294 -272,-294l-3150 0 0 -2762 3380 0c254,0 291,-526 291,-724l0 -239c-2,-173 -12,-349 -58,-497 -47,-148 -122,-252 -286,-252l-4766 0c-197,0 -420,59 -535,206 -121,156 -136,337 -136,606z"/>
 </g>
</svg>
