<?xml version="1.0" encoding="UTF-8"?>
<!DOCTYPE svg PUBLIC "-//W3C//DTD SVG 1.1//EN" "http://www.w3.org/Graphics/SVG/1.1/DTD/svg11.dtd">
<!-- Creator: CorelDRAW X8 -->
<svg xmlns="http://www.w3.org/2000/svg" xml:space="preserve" width="100mm" height="110mm" version="1.1" style="shape-rendering:geometricPrecision; text-rendering:geometricPrecision; image-rendering:optimizeQuality; fill-rule:evenodd; clip-rule:evenodd"
viewBox="0 0 10000 11000"
 xmlns:xlink="http://www.w3.org/1999/xlink">
 <defs>
  <style type="text/css">
   <![CDATA[
    .str0 {stroke:#373435;stroke-width:141.11}
    .fil0 {fill:#FAED23}
   ]]>
  </style>
 </defs>
 <g id="Layer_x0020_1">
  <metadata id="CorelCorpID_0Corel-Layer"/>
  <path class="fil0 str0" d="M424 5441c0,1012 129,1834 567,2718l108 196c134,223 277,441 449,635 50,57 181,204 227,239 29,22 52,49 78,75l80 72c212,205 659,495 923,617 824,381 1611,545 2656,545 368,0 750,-30 1076,-76 342,-48 651,-111 963,-188l447 -129c249,-84 614,-168 748,-403 29,-50 59,-146 72,-217 15,-82 22,-173 22,-266l0 -3801c0,-205 -30,-366 -112,-490 -70,-107 -214,-222 -388,-222l-3387 0c-63,0 -116,47 -145,84 -162,203 -152,932 -78,1181 33,110 94,251 232,251l1871 0 0 2278c0,68 -482,214 -526,227 -455,135 -1071,113 -1529,16 -468,-99 -886,-306 -1250,-613 -23,-20 -31,-24 -54,-47l-148 -148c-336,-349 -588,-904 -703,-1364 -26,-105 -48,-210 -69,-328 -27,-147 -55,-374 -56,-529l-8 -195c0,-539 25,-970 193,-1474 138,-412 333,-799 621,-1123l170 -178c304,-304 687,-517 1097,-655 496,-166 1007,-177 1567,-134 558,44 1032,211 1515,407 202,82 399,185 585,296 35,21 68,39 107,62 40,24 71,43 119,59 96,34 189,43 257,-37 149,-173 127,-659 127,-914 0,-248 -28,-542 -192,-705 -58,-57 -97,-92 -167,-139 -648,-430 -1580,-614 -2341,-672 -189,-15 -394,-25 -585,-25 -111,0 -192,9 -305,8 -219,-1 -659,55 -870,96 -362,70 -685,153 -999,279l-329 145c-684,328 -1209,767 -1670,1378 -238,315 -419,676 -566,1043 -270,674 -400,1420 -400,2165z"/>
 </g>
</svg>
