<?xml version="1.0" encoding="UTF-8"?>
<!DOCTYPE svg PUBLIC "-//W3C//DTD SVG 1.1//EN" "http://www.w3.org/Graphics/SVG/1.1/DTD/svg11.dtd">
<!-- Creator: CorelDRAW X8 -->
<svg xmlns="http://www.w3.org/2000/svg" xml:space="preserve" width="100mm" height="110mm" version="1.1" style="shape-rendering:geometricPrecision; text-rendering:geometricPrecision; image-rendering:optimizeQuality; fill-rule:evenodd; clip-rule:evenodd"
viewBox="0 0 10000 11000"
 xmlns:xlink="http://www.w3.org/1999/xlink">
 <defs>
  <style type="text/css">
   <![CDATA[
    .str0 {stroke:#373435;stroke-width:141.11}
    .fil0 {fill:#FAED23}
   ]]>
  </style>
 </defs>
 <g id="Layer_x0020_1">
  <metadata id="CorelCorpID_0Corel-Layer"/>
  <path class="fil0 str0" d="M3616 8810c-243,0 -393,-16 -618,-118 -68,-31 -134,-60 -201,-96 -99,-53 -131,-90 -248,-90 -147,0 -185,129 -208,257 -25,140 -29,284 -29,445 0,59 -6,107 -9,157l0 73 9 228c-1,211 36,395 171,531 46,46 83,63 145,92 329,153 755,237 1182,249l211 0c355,-10 700,-71 978,-183 84,-34 145,-61 223,-100 154,-76 342,-214 466,-337 65,-65 169,-193 220,-271 63,-94 132,-204 175,-308 17,-41 32,-71 49,-112 152,-379 235,-941 235,-1399l0 -7002c0,-354 -1092,-278 -1304,-279 -54,0 -86,6 -143,9 -157,7 -509,58 -548,240 -12,60 -3,5939 -3,6262 0,393 24,1102 -152,1414 -37,64 -81,130 -137,177 -127,106 -285,161 -464,161z"/>
 </g>
</svg>
