<?xml version="1.0" encoding="UTF-8"?>
<!DOCTYPE svg PUBLIC "-//W3C//DTD SVG 1.1//EN" "http://www.w3.org/Graphics/SVG/1.1/DTD/svg11.dtd">
<!-- Creator: CorelDRAW X8 -->
<svg xmlns="http://www.w3.org/2000/svg" xml:space="preserve" width="100mm" height="110mm" version="1.1" style="shape-rendering:geometricPrecision; text-rendering:geometricPrecision; image-rendering:optimizeQuality; fill-rule:evenodd; clip-rule:evenodd"
viewBox="0 0 10000 11000"
 xmlns:xlink="http://www.w3.org/1999/xlink">
 <defs>
  <style type="text/css">
   <![CDATA[
    .str0 {stroke:#373435;stroke-width:141.11}
    .fil0 {fill:#FAED23}
   ]]>
  </style>
 </defs>
 <g id="Layer_x0020_1">
  <metadata id="CorelCorpID_0Corel-Layer"/>
  <path class="fil0 str0" d="M2214 653l0 9076c0,348 240,576 585,576l4555 0c142,0 206,-138 240,-251 30,-100 49,-266 56,-447l0 -323c-7,-168 -25,-321 -56,-413 -42,-127 -101,-234 -266,-234l-3090 0 0 -7959c0,-231 -325,-285 -526,-304 -177,-16 -458,-32 -634,-18 -54,4 -115,-4 -168,2 -181,20 -696,36 -696,295z"/>
 </g>
</svg>
