<?xml version="1.0" encoding="UTF-8"?>
<!DOCTYPE svg PUBLIC "-//W3C//DTD SVG 1.1//EN" "http://www.w3.org/Graphics/SVG/1.1/DTD/svg11.dtd">
<!-- Creator: CorelDRAW X8 -->
<svg xmlns="http://www.w3.org/2000/svg" xml:space="preserve" width="100mm" height="110mm" version="1.1" style="shape-rendering:geometricPrecision; text-rendering:geometricPrecision; image-rendering:optimizeQuality; fill-rule:evenodd; clip-rule:evenodd"
viewBox="0 0 10000 11000"
 xmlns:xlink="http://www.w3.org/1999/xlink">
 <defs>
  <style type="text/css">
   <![CDATA[
    .str0 {stroke:#373435;stroke-width:141.11}
    .fil0 {fill:#FAED23}
   ]]>
  </style>
 </defs>
 <g id="Layer_x0020_1">
  <metadata id="CorelCorpID_0Corel-Layer"/>
  <path class="fil0 str0" d="M7265 848l0 5097c0,132 -10,291 6,408 13,96 3,213 2,311 0,50 7,62 9,102 3,67 -1,143 -1,212l9 203c0,133 17,269 17,406 -1,-1 -3,-6 -3,-5l-112 -243c-138,-287 -268,-577 -410,-861l-612 -1216c-153,-302 -309,-603 -474,-898l-96 -183c-22,-45 -42,-75 -62,-116 -22,-44 -42,-78 -65,-121 -65,-120 -122,-245 -190,-361l-572 -1079c-45,-80 -86,-154 -127,-237l-223 -420c-181,-347 -385,-820 -686,-1050 -108,-83 -234,-143 -372,-178 -298,-76 -1065,-51 -1414,-51 -321,0 -620,67 -765,370 -39,80 -65,201 -65,316l0 8738c0,267 423,308 730,313l218 0 9 0c196,0 821,-9 821,-296l0 -5732c0,-86 -9,-143 -9,-221 1,-160 -9,-292 -8,-448l-17 -322c-3,-38 1,-81 0,-119l-9 -431c6,71 276,686 331,796l527 1080c144,267 293,531 427,802l458 862c25,42 40,79 64,123 13,25 20,32 34,59l327 621c12,23 22,36 34,59 23,45 43,86 67,128 46,78 83,167 128,244 24,41 41,76 64,122 14,27 21,34 34,59l99 190c23,45 43,77 65,121 22,43 43,78 65,121l200 376c47,84 83,166 130,251 92,163 175,323 260,494 87,176 265,497 401,640 85,89 140,155 249,224 82,52 162,92 263,119 86,23 232,44 337,44l1008 0c93,0 209,-32 278,-60 113,-47 213,-126 280,-228 75,-113 119,-236 119,-389l0 -8738c0,-245 -313,-302 -612,-313l-387 0c-175,0 -355,15 -493,49 -120,29 -286,115 -286,256z"/>
 </g>
</svg>
