<?xml version="1.0" encoding="UTF-8"?>
<!DOCTYPE svg PUBLIC "-//W3C//DTD SVG 1.1//EN" "http://www.w3.org/Graphics/SVG/1.1/DTD/svg11.dtd">
<!-- Creator: CorelDRAW X8 -->
<svg xmlns="http://www.w3.org/2000/svg" xml:space="preserve" width="100mm" height="110mm" version="1.1" style="shape-rendering:geometricPrecision; text-rendering:geometricPrecision; image-rendering:optimizeQuality; fill-rule:evenodd; clip-rule:evenodd"
viewBox="0 0 10000 11000"
 xmlns:xlink="http://www.w3.org/1999/xlink">
 <defs>
  <style type="text/css">
   <![CDATA[
    .str0 {stroke:#373435;stroke-width:141.11}
    .fil0 {fill:#FAED23}
   ]]>
  </style>
 </defs>
 <g id="Layer_x0020_1">
  <metadata id="CorelCorpID_0Corel-Layer"/>
  <path class="fil0 str0" d="M4966 8476c-315,0 -640,-47 -917,-167 -38,-16 -72,-36 -107,-53 -171,-85 -316,-199 -447,-332 -119,-121 -237,-307 -315,-464 -216,-431 -267,-756 -334,-1232 -15,-105 -12,-200 -26,-288 -7,-49 -1,-96 -8,-144 -9,-63 -5,-433 -5,-512 0,-668 175,-1576 575,-2084l71 -90c26,-28 44,-53 72,-80l253 -221c590,-444 1680,-456 2295,-113 269,150 495,380 652,643 231,390 327,780 390,1227 14,95 21,197 33,289 6,41 11,111 11,150 0,63 9,89 9,152 -1,116 8,206 8,322 0,619 -85,1360 -358,1911l-120 211c-104,155 -150,220 -290,361 -19,18 -21,19 -41,35 -20,16 -27,25 -45,40 -31,26 -57,45 -91,70 -206,156 -427,241 -677,305 -167,42 -384,64 -588,64zm4775 -3336l0 441c-9,360 -42,711 -96,1037 -86,513 -276,1166 -527,1615 -117,208 -212,366 -356,559 -24,31 -43,54 -68,85l-103 125c-13,17 -23,23 -37,39l-190 200c-16,13 -24,23 -39,37 -83,84 -190,175 -286,248l-221 159c-216,144 -452,274 -690,377 -677,292 -1411,412 -2306,412 -1213,0 -2488,-316 -3317,-1145 -225,-225 -438,-472 -591,-754l-153 -288c-382,-764 -528,-1800 -528,-2732 0,-562 65,-1159 195,-1676 163,-648 436,-1287 853,-1797l212 -246c198,-196 264,-268 496,-443 902,-676 1998,-918 3113,-918l567 25c97,7 188,12 273,23 535,73 718,107 1203,271 189,63 261,111 417,176l193 103c121,71 249,148 361,232l207 166c87,68 226,206 295,288 13,16 24,24 38,39 181,195 476,642 582,899 17,40 31,65 45,99 29,72 58,141 85,212 233,628 354,1384 373,2132z"/>
 </g>
</svg>
