<?xml version="1.0" encoding="UTF-8"?>
<!DOCTYPE svg PUBLIC "-//W3C//DTD SVG 1.1//EN" "http://www.w3.org/Graphics/SVG/1.1/DTD/svg11.dtd">
<!-- Creator: CorelDRAW X8 -->
<svg xmlns="http://www.w3.org/2000/svg" xml:space="preserve" width="100mm" height="110mm" version="1.1" style="shape-rendering:geometricPrecision; text-rendering:geometricPrecision; image-rendering:optimizeQuality; fill-rule:evenodd; clip-rule:evenodd"
viewBox="0 0 10000 11000"
 xmlns:xlink="http://www.w3.org/1999/xlink">
 <defs>
  <style type="text/css">
   <![CDATA[
    .str0 {stroke:#373435;stroke-width:141.11}
    .fil0 {fill:#FAED23}
   ]]>
  </style>
 </defs>
 <g id="Layer_x0020_1">
  <metadata id="CorelCorpID_0Corel-Layer"/>
  <path class="fil0 str0" d="M4945 5496l-796 0 0 -3404c445,0 1242,-28 1638,73 202,51 462,169 612,319 19,18 34,32 51,50 18,20 28,35 46,56 79,90 149,211 204,321 180,355 181,907 101,1308 -47,238 -136,440 -264,633 -153,231 -367,383 -615,494 -59,27 -105,39 -170,60 -216,71 -522,90 -807,90zm-2828 -4191l0 8924c0,189 138,254 296,288 370,80 1047,85 1421,6 125,-26 315,-96 315,-252l0 -3209 1437 -19c132,-18 281,-25 410,-47 270,-46 507,-93 743,-172 477,-159 753,-309 1122,-596l121 -108c26,-22 39,-29 64,-55 519,-525 779,-1085 892,-1851 64,-435 62,-1021 -37,-1438 -58,-243 -127,-443 -228,-644 -25,-51 -46,-89 -74,-138 -43,-74 -122,-195 -177,-263 -144,-177 -200,-237 -376,-394l-187 -144c-315,-233 -856,-454 -1226,-527 -596,-118 -975,-149 -1603,-149l-2159 0c-268,0 -373,41 -546,175 -38,29 -85,88 -106,130 -82,159 -102,278 -102,483z"/>
 </g>
</svg>
