<?xml version="1.0" encoding="UTF-8"?>
<!DOCTYPE svg PUBLIC "-//W3C//DTD SVG 1.1//EN" "http://www.w3.org/Graphics/SVG/1.1/DTD/svg11.dtd">
<!-- Creator: CorelDRAW X8 -->
<svg xmlns="http://www.w3.org/2000/svg" xml:space="preserve" width="100mm" height="110mm" version="1.1" style="shape-rendering:geometricPrecision; text-rendering:geometricPrecision; image-rendering:optimizeQuality; fill-rule:evenodd; clip-rule:evenodd"
viewBox="0 0 10000 11000"
 xmlns:xlink="http://www.w3.org/1999/xlink">
 <defs>
  <style type="text/css">
   <![CDATA[
    .str0 {stroke:#373435;stroke-width:141.11}
    .fil0 {fill:#FAED1F}
   ]]>
  </style>
 </defs>
 <g id="Layer_x0020_1">
  <metadata id="CorelCorpID_0Corel-Layer"/>
  <path class="fil0 str0" d="M2248 4730c0,-118 5,-213 9,-331 1,-41 6,-39 8,-76 49,-975 314,-1936 1217,-2441 230,-129 505,-205 783,-233 302,-30 651,-19 946,42 89,18 182,44 266,72 92,30 157,62 237,102 267,133 463,313 638,547 26,34 45,66 69,101 555,826 547,2532 362,3458 -38,189 -83,359 -146,522 -76,193 -80,188 -161,348 -50,99 -202,320 -276,393 -59,57 -45,63 -126,127 -18,15 -26,26 -43,42 -19,17 -27,21 -47,38 -18,17 -27,23 -46,38 -328,270 -821,426 -1260,426l-262 0c-388,0 -827,-115 -1069,-261 -174,-105 -234,-149 -377,-292 -61,-61 -103,-107 -154,-176 -471,-626 -568,-1639 -568,-2446zm2365 -4589l112 0c538,4 1091,70 1510,204 436,139 742,266 1119,549 635,478 1050,1169 1273,2063 113,451 183,1005 183,1485 0,71 0,139 4,206l-12 505c-1,46 -8,50 -9,93 -12,503 -185,1269 -361,1721 -41,103 -79,193 -124,291 -58,124 -151,295 -224,411 -27,43 -51,83 -81,123 -32,43 -56,80 -88,123 -53,71 -223,283 -290,328 42,63 380,317 465,381 122,92 239,159 366,236 257,156 545,278 827,383 55,21 114,42 164,74 110,69 155,155 182,300 17,92 31,223 36,368l0 258c-9,224 -44,440 -122,554 -34,50 -86,79 -166,79 -345,0 -864,-212 -1179,-369l-493 -269c-134,-80 -345,-218 -464,-308l-180 -133c-208,-155 -347,-290 -536,-471l-9 -8c-1,-2 -6,-7 -8,-9 -6,-8 -8,-10 -16,-18 -26,-28 -49,-49 -76,-76l-146 -159c-119,63 -355,139 -490,179 -175,51 -346,93 -543,126 -187,31 -401,52 -618,51 -61,-1 -107,13 -160,7 -116,-14 -352,-2 -479,-21 -44,-6 -115,-10 -157,-12 -94,-4 -351,-43 -441,-58 -595,-98 -1078,-282 -1559,-609 -101,-69 -228,-180 -322,-262l-205 -219c-143,-183 -215,-263 -343,-486 -251,-439 -423,-973 -509,-1497 -105,-640 -109,-965 -109,-1610l27 -524c65,-626 165,-1080 395,-1653 137,-342 335,-652 561,-938 115,-145 299,-334 441,-448 306,-247 264,-210 606,-418 84,-51 271,-134 366,-176 62,-27 135,-55 202,-77 263,-88 324,-110 640,-174 300,-61 664,-93 1040,-96z"/>
 </g>
</svg>
