<?xml version="1.0" encoding="UTF-8"?>
<!DOCTYPE svg PUBLIC "-//W3C//DTD SVG 1.1//EN" "http://www.w3.org/Graphics/SVG/1.1/DTD/svg11.dtd">
<!-- Creator: CorelDRAW X8 -->
<svg xmlns="http://www.w3.org/2000/svg" xml:space="preserve" width="100mm" height="110mm" version="1.1" style="shape-rendering:geometricPrecision; text-rendering:geometricPrecision; image-rendering:optimizeQuality; fill-rule:evenodd; clip-rule:evenodd"
viewBox="0 0 10000 11000"
 xmlns:xlink="http://www.w3.org/1999/xlink">
 <defs>
  <style type="text/css">
   <![CDATA[
    .str0 {stroke:#373435;stroke-width:141.11}
    .fil0 {fill:#FAED23}
   ]]>
  </style>
 </defs>
 <g id="Layer_x0020_1">
  <metadata id="CorelCorpID_0Corel-Layer"/>
  <path class="fil0 str0" d="M4712 4865l-1007 0 0 -2887c472,0 1241,-22 1675,52 170,29 315,76 467,143 443,196 677,676 677,1151 0,326 -17,497 -161,788 -21,42 -45,82 -73,121 -15,23 -27,38 -43,58 -17,21 -28,37 -47,56 -34,34 -66,68 -101,101 -18,16 -38,31 -56,46 -361,288 -851,371 -1331,371zm-3073 -3844l0 9288c0,179 158,241 311,273 362,77 1071,85 1436,1 125,-28 319,-92 319,-249l0 -3920c851,0 1371,-78 1883,657 111,160 254,456 332,625 104,223 193,446 286,679l790 1962c35,90 75,153 161,202 232,134 930,100 1221,100 181,0 362,-11 522,-37 239,-40 308,-95 308,-301 0,-88 -59,-275 -86,-346 -124,-332 -244,-599 -382,-922l-523 -1221c-89,-204 -169,-407 -268,-605l-232 -420c-88,-148 -175,-248 -275,-376l-158 -172c-23,-22 -36,-27 -59,-51 -99,-100 -324,-246 -453,-310l-70 -39c35,-3 166,-56 208,-71 198,-71 390,-174 568,-279 58,-34 114,-72 167,-112 57,-43 105,-81 158,-122 28,-22 42,-42 71,-65 150,-116 351,-390 444,-546 218,-362 357,-871 357,-1337 0,-378 0,-556 -92,-924 -42,-169 -136,-420 -223,-564 -27,-44 -46,-80 -73,-122l-164 -226c-372,-461 -894,-724 -1456,-889 -218,-64 -607,-143 -829,-153 -57,-3 -126,-4 -182,-13 -89,-13 -500,-21 -571,-21l-2854 0c-187,0 -339,78 -435,174 -102,102 -157,254 -157,452z"/>
 </g>
</svg>
