<?xml version="1.0" encoding="UTF-8"?>
<!DOCTYPE svg PUBLIC "-//W3C//DTD SVG 1.1//EN" "http://www.w3.org/Graphics/SVG/1.1/DTD/svg11.dtd">
<!-- Creator: CorelDRAW X8 -->
<svg xmlns="http://www.w3.org/2000/svg" xml:space="preserve" width="100mm" height="110mm" version="1.1" style="shape-rendering:geometricPrecision; text-rendering:geometricPrecision; image-rendering:optimizeQuality; fill-rule:evenodd; clip-rule:evenodd"
viewBox="0 0 10000 11000"
 xmlns:xlink="http://www.w3.org/1999/xlink">
 <defs>
  <style type="text/css">
   <![CDATA[
    .str0 {stroke:#373435;stroke-width:141.11}
    .fil0 {fill:#FAED23}
   ]]>
  </style>
 </defs>
 <g id="Layer_x0020_1">
  <metadata id="CorelCorpID_0Corel-Layer"/>
  <path class="fil0 str0" d="M1859 3184c0,677 187,1322 620,1819 15,18 17,24 34,42 268,289 505,476 849,683 255,153 667,363 934,472 217,88 655,292 865,396 196,99 428,232 595,379 180,160 337,345 397,585 117,464 -78,965 -408,1212l-100 70c-41,26 -68,40 -114,63 -374,187 -673,198 -1098,198 -641,0 -1171,-194 -1685,-449 -156,-78 -309,-161 -456,-256 -169,-109 -408,-227 -524,21 -53,115 -74,296 -79,438 -1,55 5,113 -3,166 -2,15 -4,30 -5,45l0 109c3,60 9,120 8,180 -1,204 49,434 128,558 143,223 622,433 855,525 81,33 163,59 250,88 439,147 1004,251 1477,251 424,0 677,-7 1093,-75 243,-40 463,-101 675,-172 255,-85 495,-198 724,-334 46,-28 85,-53 129,-83 845,-563 1307,-1455 1307,-2519 0,-567 -92,-953 -333,-1403 -95,-178 -218,-330 -346,-483l-245 -238c-18,-16 -25,-18 -43,-34 -150,-131 -312,-240 -485,-344 -294,-176 -597,-332 -912,-468 -32,-13 -62,-27 -94,-42 -217,-105 -472,-196 -674,-299 -196,-100 -340,-164 -545,-285 -57,-34 -116,-75 -166,-113 -27,-20 -51,-39 -77,-59 -244,-189 -448,-474 -448,-804 0,-124 7,-242 35,-354 10,-40 19,-71 35,-110 13,-34 26,-69 42,-101 40,-79 101,-153 159,-214l31 -28c252,-237 607,-336 959,-336 275,0 525,16 776,79 176,44 351,102 517,168 240,97 471,209 692,342 283,169 448,133 502,-219 40,-261 47,-876 -14,-1116 -47,-183 -146,-269 -289,-355 -858,-514 -2243,-624 -3215,-396 -326,76 -644,178 -933,345 -436,254 -805,593 -1047,1036 -22,39 -36,63 -57,104 -20,41 -33,66 -51,109 -83,200 -150,390 -189,616 -31,176 -53,390 -53,590z"/>
 </g>
</svg>
