<?xml version="1.0" encoding="UTF-8"?>
<!DOCTYPE svg PUBLIC "-//W3C//DTD SVG 1.1//EN" "http://www.w3.org/Graphics/SVG/1.1/DTD/svg11.dtd">
<!-- Creator: CorelDRAW X8 -->
<svg xmlns="http://www.w3.org/2000/svg" xml:space="preserve" width="100mm" height="110mm" version="1.1" style="shape-rendering:geometricPrecision; text-rendering:geometricPrecision; image-rendering:optimizeQuality; fill-rule:evenodd; clip-rule:evenodd"
viewBox="0 0 10000 11000"
 xmlns:xlink="http://www.w3.org/1999/xlink">
 <defs>
  <style type="text/css">
   <![CDATA[
    .str0 {stroke:#373435;stroke-width:141.11}
    .fil0 {fill:#FAED1F}
   ]]>
  </style>
 </defs>
 <g id="Layer_x0020_1">
  <metadata id="CorelCorpID_0Corel-Layer"/>
  <path class="fil0 str0" d="M1241 1161l0 11 0 134c1,184 7,374 54,537 40,139 102,266 276,266l2515 0 0 8187c0,173 172,231 311,265 339,80 1103,80 1445,1 146,-34 318,-93 318,-266l0 -8187 2523 0c272,0 316,-407 322,-712l0 -236c0,-224 -17,-745 -305,-745l-7171 0c-140,0 -211,158 -239,277 -32,132 -49,301 -49,468z"/>
 </g>
</svg>
