<?xml version="1.0" encoding="UTF-8"?>
<!DOCTYPE svg PUBLIC "-//W3C//DTD SVG 1.1//EN" "http://www.w3.org/Graphics/SVG/1.1/DTD/svg11.dtd">
<!-- Creator: CorelDRAW X8 -->
<svg xmlns="http://www.w3.org/2000/svg" xml:space="preserve" width="100mm" height="110mm" version="1.1" style="shape-rendering:geometricPrecision; text-rendering:geometricPrecision; image-rendering:optimizeQuality; fill-rule:evenodd; clip-rule:evenodd"
viewBox="0 0 10000 11000"
 xmlns:xlink="http://www.w3.org/1999/xlink">
 <defs>
  <style type="text/css">
   <![CDATA[
    .str0 {stroke:#373435;stroke-width:141.11}
    .fil0 {fill:#FAED23}
   ]]>
  </style>
 </defs>
 <g id="Layer_x0020_1">
  <metadata id="CorelCorpID_0Corel-Layer"/>
  <path class="fil0 str0" d="M3305 9479c190,-4 389,-21 508,-84 166,-87 197,-285 229,-474l258 -1367c106,-568 241,-1213 337,-1772 21,-127 49,-266 76,-398 51,-256 96,-528 148,-784l152 -779c0,-1 1,-4 2,-6 5,54 26,132 38,191l907 4520c27,133 52,262 78,388 62,312 63,474 412,536 121,22 272,28 420,29l244 0 9 0c214,0 418,-14 569,-75 170,-67 214,-200 258,-394l503 -2409c18,-87 37,-188 57,-273 43,-179 75,-359 113,-540 219,-1061 462,-2155 671,-3214 48,-239 200,-873 200,-1104 0,-201 -143,-257 -331,-271l-389 0c-243,0 -485,14 -538,232 -18,71 -32,150 -43,219 -70,402 -159,919 -239,1319 -84,423 -154,894 -239,1320 -28,144 -52,287 -79,437 -26,148 -55,293 -80,436 -50,297 -110,592 -159,882 -52,300 -106,584 -160,882 -13,73 -156,837 -156,885l-17 0c0,-68 -1129,-5753 -1218,-6198 -33,-162 -48,-286 -181,-352 -94,-46 -274,-59 -446,-62l-280 0c-169,0 -337,15 -452,73 -132,67 -145,210 -172,352 -111,573 -234,1193 -336,1764l-170 889c-60,298 -107,585 -167,882 -131,648 -248,1332 -379,1984l-115 613c-7,42 4,28 -21,47 0,-52 -142,-801 -156,-877l-238 -1311c-28,-148 -56,-291 -80,-437 -47,-284 -113,-592 -160,-873 -24,-147 -51,-290 -79,-437 -111,-566 -207,-1182 -318,-1748 -28,-147 -55,-290 -79,-437 -75,-453 -48,-483 -669,-484l-219 0 -9 0 -40 0c-183,0 -409,10 -460,185 -55,186 136,952 182,1183 173,866 363,1738 538,2604 19,96 39,197 62,293 21,90 41,193 59,288l180 871c20,101 39,185 59,287 133,672 285,1357 419,2028 41,205 66,377 235,460 143,70 408,81 621,81l330 0z"/>
 </g>
</svg>
