<?xml version="1.0" encoding="UTF-8"?>
<!DOCTYPE svg PUBLIC "-//W3C//DTD SVG 1.1//EN" "http://www.w3.org/Graphics/SVG/1.1/DTD/svg11.dtd">
<!-- Creator: CorelDRAW X8 -->
<svg xmlns="http://www.w3.org/2000/svg" xml:space="preserve" width="100mm" height="110mm" version="1.1" style="shape-rendering:geometricPrecision; text-rendering:geometricPrecision; image-rendering:optimizeQuality; fill-rule:evenodd; clip-rule:evenodd"
viewBox="0 0 10000 11000"
 xmlns:xlink="http://www.w3.org/1999/xlink">
 <defs>
  <style type="text/css">
   <![CDATA[
    .str0 {stroke:#373435;stroke-width:141.11}
    .fil0 {fill:#FAED23}
   ]]>
  </style>
 </defs>
 <g id="Layer_x0020_1">
  <metadata id="CorelCorpID_0Corel-Layer"/>
  <path class="fil0 str0" d="M1143 653c0,161 195,554 290,709 15,26 23,46 38,72l429 791c15,27 26,43 39,70 14,27 23,45 39,72 97,162 257,473 354,654l506 932c16,26 23,45 38,72l158 291c15,28 26,43 40,71l196 362c16,26 23,45 38,72l158 291c126,253 157,156 37,373 -29,52 -53,103 -84,153 -16,27 -26,52 -41,78 -101,173 -188,357 -291,530 -88,147 -160,308 -249,454l-168 306c-16,32 -26,46 -42,76 -17,31 -24,47 -42,77l-667 1220c-88,148 -160,308 -249,454l-416 761c-26,51 -59,101 -85,152 -85,162 -195,351 -195,542 0,143 147,190 262,212 258,52 1121,45 1399,10 137,-18 231,-31 329,-87 64,-37 105,-98 141,-163l1180 -2275c24,-47 45,-91 70,-141l141 -274c24,-47 48,-87 74,-138 26,-53 413,-782 426,-836l1004 1917c140,280 293,548 432,829l502 963c29,48 55,79 101,111 223,154 989,117 1305,117 168,0 355,-9 500,-33 449,-76 293,-352 174,-640 -53,-128 -125,-234 -186,-357l-755 -1395c-101,-168 -185,-352 -283,-521l-235 -435c-100,-202 -261,-488 -378,-697 -18,-32 -27,-58 -46,-89 -34,-56 -64,-118 -95,-176 -30,-58 -65,-113 -96,-175l-189 -353c-21,-38 -189,-339 -189,-352l463 -858c16,-28 24,-40 39,-71 15,-30 26,-44 40,-70l310 -571c16,-30 24,-42 40,-70l547 -1002c14,-25 22,-47 38,-73l78 -142c15,-30 24,-42 40,-70 131,-236 251,-480 387,-714 135,-233 440,-770 440,-999 0,-98 -50,-154 -114,-192 -132,-79 -380,-79 -547,-79 -108,0 -192,-9 -305,-9l-9 0c-192,0 -560,4 -752,43 -131,27 -198,43 -278,129 -57,61 -113,176 -152,254l-1027 2004c-23,48 -47,85 -70,133l-139 268c-49,91 -85,181 -135,271 -50,89 -93,177 -138,268 -39,78 -116,186 -136,271 -27,-19 -60,-95 -76,-127l-104 -200c-15,-29 -23,-39 -37,-65l-107 -206c-15,-27 -23,-37 -37,-65 -171,-342 -367,-670 -539,-1010 -87,-171 -235,-459 -324,-608 -79,-131 -138,-271 -215,-403 -12,-22 -23,-46 -34,-68 -13,-26 -22,-39 -37,-65l-144 -270c-13,-26 -20,-43 -34,-68 -148,-276 -156,-388 -495,-445 -57,-9 -119,-11 -183,-20l-199 -12c-147,1 -262,-9 -407,-9l-643 18c-185,15 -424,47 -424,245z"/>
 </g>
</svg>
