<?xml version="1.0" encoding="UTF-8"?>
<!DOCTYPE svg PUBLIC "-//W3C//DTD SVG 1.1//EN" "http://www.w3.org/Graphics/SVG/1.1/DTD/svg11.dtd">
<!-- Creator: CorelDRAW X8 -->
<svg xmlns="http://www.w3.org/2000/svg" xml:space="preserve" width="100mm" height="110mm" version="1.1" style="shape-rendering:geometricPrecision; text-rendering:geometricPrecision; image-rendering:optimizeQuality; fill-rule:evenodd; clip-rule:evenodd"
viewBox="0 0 10000 11000"
 xmlns:xlink="http://www.w3.org/1999/xlink">
 <defs>
  <style type="text/css">
   <![CDATA[
    .str0 {stroke:#373435;stroke-width:141.11}
    .fil0 {fill:#FAED23}
   ]]>
  </style>
 </defs>
 <g id="Layer_x0020_1">
  <metadata id="CorelCorpID_0Corel-Layer"/>
  <path class="fil0 str0" d="M1863 1131c0,240 -15,618 95,803 100,169 202,154 455,154 1220,0 2439,0 3658,0 -18,35 -46,77 -68,110l-1683 2669c-13,21 -22,38 -35,57l-141 224c-14,22 -25,36 -37,56l-1404 2228c-104,154 -239,383 -347,550l-141 224c-27,41 -46,74 -71,115l-202 340c-23,43 -41,83 -62,124 -182,362 -144,688 -144,1092 0,246 123,491 328,579 66,28 157,56 248,56l6020 0c192,0 264,-299 279,-627l0 -281c-10,-245 -44,-463 -74,-534 -103,-242 -219,-200 -459,-200 -1321,0 -2642,0 -3963,0l564 -901c25,-37 46,-71 69,-109l2197 -3493c174,-278 405,-633 565,-899 199,-334 542,-830 695,-1135 211,-422 186,-715 186,-1202 0,-105 -10,-220 -37,-302 -25,-78 -67,-157 -122,-216 -15,-17 -29,-25 -46,-39 -122,-100 -312,-120 -472,-120l-5461 0c-190,0 -273,69 -323,210 -44,122 -67,299 -67,467z"/>
 </g>
</svg>
