<?xml version="1.0" encoding="UTF-8"?>
<!DOCTYPE svg PUBLIC "-//W3C//DTD SVG 1.1//EN" "http://www.w3.org/Graphics/SVG/1.1/DTD/svg11.dtd">
<!-- Creator: CorelDRAW X8 -->
<svg xmlns="http://www.w3.org/2000/svg" xml:space="preserve" width="220mm" height="297mm" version="1.1" style="shape-rendering:geometricPrecision; text-rendering:geometricPrecision; image-rendering:optimizeQuality; fill-rule:evenodd; clip-rule:evenodd"
viewBox="0 0 22000 29700"
 xmlns:xlink="http://www.w3.org/1999/xlink">
 <defs>
  <style type="text/css">
   <![CDATA[
    .fil7 {fill:#1D1347}
    .fil0 {fill:#3A7BFB}
    .fil13 {fill:#5E6EE7}
    .fil10 {fill:#685D71}
    .fil6 {fill:#6C1506}
    .fil5 {fill:#883718}
    .fil3 {fill:#985638}
    .fil9 {fill:#B0908E}
    .fil11 {fill:#B8B7B8}
    .fil4 {fill:#C66A47}
    .fil8 {fill:#D9E7FC}
    .fil1 {fill:#E38B5C}
    .fil12 {fill:#FAE7D9}
    .fil2 {fill:#FEFEFE}
   ]]>
  </style>
 </defs>
 <g id="Layer_x0020_1">
  <metadata id="CorelCorpID_0Corel-Layer"/>
  <g id="_2118249157920">
   <path class="fil0" d="M18710 20834c90,-43 190,-26 289,-20l-2 1602 -302 3c-4,-333 -42,-1345 15,-1585zm-2231 -22l318 10 -4 1592c-113,10 -201,21 -306,-28l-8 -1574zm834 -1c203,-12 586,-43 735,83 162,137 170,391 8,620 92,122 182,118 226,311 158,682 -660,601 -969,591l0 -1605zm-1985 1156c102,47 177,150 286,126 82,-17 171,-139 117,-239 -102,-185 -377,-138 -489,-373 -259,-545 381,-952 763,-563 -20,115 -77,162 -149,232 -113,-15 -220,-144 -317,-28 -91,109 -5,230 91,285 169,96 401,155 436,438 42,344 -318,935 -922,377l134 -203c35,-39 29,-30 50,-52zm880 -1456c-83,-66 -84,-442 0,-509 61,101 58,404 0,509zm2051 -162c-29,-72 -17,-182 -20,-291 -3,-136 -36,-208 50,-264 37,66 79,498 -30,555zm-1872 1c-60,-81 -122,-240 -13,-338 74,-66 201,-10 292,-9l-1 344 -278 3zm2081 -349c114,-25 174,-7 279,31l0 309c-181,12 -209,82 -352,-71l20 -203 53 -66zm-315 333c-125,30 -252,69 -316,-37 -74,-122 -3,-222 39,-315l278 28 -1 324zm-1145 -323c1,-113 -16,-131 20,-214 94,59 50,310 56,554 -145,-10 -117,12 -231,25 -186,-147 -136,-249 -36,-401l191 36zm-1001 349c-44,4 -174,1 -206,-12 -94,-38 -74,-368 -59,-485 10,-86 -7,-11 26,-69 88,55 53,63 50,209 293,-68 347,161 189,357zm1625 -344c18,-199 -18,-127 41,-221 57,64 33,-95 50,128l-7 421c-6,1 -552,144 -271,-359l187 31zm-2382 337c18,-125 132,-489 225,-548 44,89 191,461 206,546 -135,-27 -62,-18 -147,-119 -185,4 -118,-27 -284,121zm3583 -342l432 4c15,67 25,141 21,211 -10,149 1,91 -59,116 -69,-124 29,-155 -59,-273 -76,24 -51,-59 -72,120 -11,90 19,66 -16,158 -135,-29 -30,0 -72,-189 -20,-94 -8,-41 -45,-91 -132,204 51,249 -131,280l1 -336zm-2625 -188c64,106 72,72 -32,135 -46,-104 -44,-81 32,-135zm-16150 2879l0 730 21982 0 0 -6576c-626,0 -984,47 -1518,237 -453,160 -841,324 -1260,491 -421,169 -777,346 -1193,565 -356,187 -788,448 -1180,597 -345,131 -2583,125 -3243,173 -1392,100 -1398,402 -1989,635 -482,190 -1376,648 -1745,909 -336,237 -711,504 -1075,703 -383,210 -750,394 -1127,648 -546,369 -622,331 -1193,573 -156,66 -456,204 -628,244 -615,143 -1799,90 -2431,76 -1139,-26 -2262,-5 -3400,-5z"/>
   <path class="fil1" d="M18747 726c-47,60 -50,103 -52,227 -7,563 -167,1414 92,1817l695 26 11 -239c-17,43 -32,152 -76,205 -3,-288 90,-288 173,-520 72,-202 -2,-434 -33,-621 -38,-21 -50,-32 -95,-48 -78,-28 117,17 -64,-15 -159,-28 87,-23 -49,-1 37,126 77,88 106,157l21 281c-156,-118 -71,-74 -115,-63 17,151 1,117 95,166 -138,69 -140,-97 -121,-254l-128 71c-3,4 -6,15 -10,22 -62,-69 -28,-59 -126,-80 -51,100 -160,222 -273,262 7,-9 17,-34 21,-28 0,1 93,-100 143,-261 154,4 31,41 138,-38 46,-34 120,-93 156,-135l-21 -89c30,-212 -20,-1181 -64,-1330 -150,86 -101,40 -82,235l12 599c-9,280 -13,227 -71,290 -15,-163 0,-371 2,-555 3,-359 29,-437 -99,-463 -13,215 -20,342 -25,562 -2,95 -11,204 -9,298 3,79 18,188 -24,259l-40 -225c-21,-376 85,-424 -88,-512z"/>
   <path class="fil1" d="M6483 6255l2 -94 -374 -95c7,-7 20,-23 25,-15l118 -84c48,-76 15,-89 0,-146 9,3 28,12 34,12l72 5c25,-143 82,-178 182,-228 126,-63 152,-136 249,-73 -90,61 -236,151 -304,213 -53,49 -56,82 -94,156l-104 143c227,15 60,35 360,-224 38,-33 78,-76 208,-22 -43,76 -182,148 -261,197 146,187 14,4 19,429 -228,-90 164,98 -45,-36 -29,-18 -11,-14 -51,-28l-465 -55c7,41 14,71 29,102 56,116 -9,46 88,91 357,168 673,-79 876,-94 62,123 26,32 45,137 43,71 -135,33 93,59 127,14 154,-96 200,-244l150 -439c-295,-142 -420,-513 -660,-460 -164,3 -953,-17 -1086,36l-481 59c-7,3 -18,8 -27,13 21,15 -5,49 174,44l438 -3c10,0 107,8 113,10 77,21 37,-8 92,48 -53,67 44,61 -175,31 -111,-15 -91,-26 -208,-4l0 50c-6,22 14,13 -26,48 -85,-37 -50,-57 -54,-67 -1,-4 -3,-16 -4,-19 -1,-3 -1,-13 -4,-19 -32,-2 -126,-11 -152,-7 -114,19 -78,-23 -112,84l-28 -36c-4,-3 -9,-82 -228,-15 90,199 693,95 936,192l53 27c-5,8 -17,6 -21,21 -45,190 99,-164 -39,44 -47,71 -41,-12 -43,102 -5,194 413,167 490,154z"/>
   <path class="fil1" d="M10179 5504c-128,-7 1,38 -155,-66l-53 118c-1,-3 -4,10 -7,14 114,20 50,-1 110,38 142,91 47,18 76,96 10,27 34,180 20,212 -97,-38 28,35 -39,-29l-49 -57c-120,126 -239,67 -251,262l-33 177c-4,0 -14,-3 -18,-4 -6,-2 -24,-24 -28,-26 0,0 -16,4 -58,-7 -36,-91 -28,-42 3,-152 -4,1 -110,18 -112,18 -98,-7 10,30 -73,-32 6,-5 15,-12 19,-16 4,-4 13,-12 18,-17l129 -157 -44 -55c-10,4 -20,12 -27,16 -7,4 -18,10 -26,14l-108 49 78 -131c-58,-160 -13,-161 -109,-265l75 -165 -62 -136c-14,-56 -11,-106 -12,-161 -7,-610 2,-358 77,-431 -11,-32 -23,-76 -42,-106 -51,-78 17,-17 -70,-69 -209,72 -142,315 -151,573 -9,230 -40,461 -52,693 -33,637 69,491 240,1224 152,85 546,78 732,43 11,-160 -68,-243 -29,-396l141 -245c104,-177 99,-300 55,-507 -89,-418 -127,-310 -165,-317z"/>
   <path class="fil1" d="M18559 13443c142,41 41,-15 140,69 134,-62 60,-109 234,-125 0,5 0,15 0,16 39,60 75,62 145,93 8,4 20,7 29,13 -66,370 6,263 33,397 -19,10 -50,27 -101,-3 -135,-81 -5,77 -16,-69 0,-2 2,-13 -2,-17 -518,-10 -206,580 -22,486 -100,-109 -167,48 -125,-187 11,-58 86,-160 139,-167 91,144 -24,69 74,211 92,132 113,45 157,143 -75,104 -206,123 -340,114 -45,-47 -77,-103 -124,-144l-54 -39c-6,-3 -14,-8 -19,-11 -89,-40 -12,-52 -96,-14 4,52 74,231 104,310 46,122 142,168 216,280l-71 25c-33,2 -97,-4 -103,-86 105,218 106,137 91,312 -48,118 -30,326 -32,476 227,-28 488,64 693,-99 80,-172 17,-1185 -34,-1423 -40,-183 -96,-70 -127,-261 -17,-106 11,-195 -53,-309 -74,-130 -374,-215 -528,-204 -83,148 -128,113 -208,213z"/>
   <path class="fil1" d="M15553 10256c116,109 50,218 46,376 -3,162 -1,245 -7,396 137,-139 122,-367 132,-689 8,-258 121,-694 417,-426 188,170 89,565 123,780l52 -83 57 26c144,-261 0,-900 157,-1228 126,13 40,10 110,35 7,2 15,4 21,7 112,44 40,-27 103,57l76 -21c-23,-291 -7,-659 -193,-826 -441,-44 -674,201 -785,565 -122,399 -320,509 -309,1031z"/>
   <path class="fil1" d="M15060 13327c42,163 17,182 47,333 9,50 21,119 32,157l53 130c18,55 4,133 40,232 8,22 32,72 32,72l35 196c396,-30 337,105 478,210 204,152 36,-112 121,134 -275,-68 -185,-148 -325,-237 -77,-50 -373,-52 -450,-20 41,93 -69,-34 37,46l146 36c73,8 113,20 198,28 60,189 60,-3 116,161l9 56c2,11 3,130 42,160 13,125 -8,11 50,59 158,133 21,-65 51,50 -193,132 -135,-123 -256,-116 -41,68 -38,95 -25,176 34,212 90,257 183,308l-133 42c-5,-8 -18,5 -26,10 3,-39 15,-15 -15,-62l-25 -25c-125,-83 49,47 -70,-3 -27,-188 48,-12 71,-234 29,-265 -34,-276 -88,-326l-30 327c-69,-83 -32,-161 -38,-317 -95,33 -121,66 -175,54 26,-105 202,-120 242,-267l-134 27c-42,-80 -3,-20 -164,47 5,-9 30,-77 30,-77 1,-7 2,-17 2,-25 -2,-121 -42,22 -54,-253 -6,-154 50,-34 -53,-141 -29,567 91,635 40,873 -15,107 67,403 113,497 156,79 434,79 653,38l2 -140 -41 107c-2,-5 -11,18 -16,27 12,-633 284,-413 163,-991l-10 -56c-32,-219 -29,-416 23,-625l-105 -80c118,22 120,90 155,-140 19,-131 19,-177 -18,-220 -60,-72 -105,10 -124,80 -64,233 -20,162 65,195 -92,49 -77,8 -126,157l-79 196c-165,-161 -133,-789 -114,-1017l-64 17c-63,203 -61,299 -64,514 -2,88 1,214 6,275 1,7 11,84 11,93 -1,10 -1,21 -3,30l-35 95c-70,-53 -75,-44 -115,-228 -20,-91 -32,-154 -59,-242 -92,-301 -89,-371 -212,-403z"/>
   <path class="fil1" d="M1933 13883c-115,191 -90,493 -1,684 219,467 107,401 170,695 151,54 612,26 788,-66 -2,-140 1,-54 -28,-85 -27,107 29,38 -53,57 28,-230 -29,-221 64,-432 25,-56 50,-103 86,-167l46 -83c7,-11 38,-58 38,-59 138,-233 -30,-517 -112,-729 -59,41 -16,-1 -59,78 -3,7 -8,20 -10,25 -3,6 -8,32 -10,27 -2,-5 -5,20 -9,28 -125,-35 -423,-123 -518,-83 43,216 320,19 395,304 22,80 18,137 46,207 -140,-37 -66,-53 -187,-111 -100,-48 -450,188 -569,30l-77 -320z"/>
   <path class="fil1" d="M2257 9949l16 -68 62 7c-12,-141 -70,-88 -112,-195 -65,-167 38,-129 57,-216 4,-16 14,-15 18,-17l-129 -53c-359,219 -2,1217 10,1282 14,79 16,161 10,244 -4,49 -28,174 -67,120 8,162 251,182 399,180 234,-3 290,-119 438,-168 0,-166 40,-368 38,-447 -9,-181 198,-629 22,-700 -59,39 -61,251 -172,326 -150,103 -190,-130 -200,239 -5,-9 -10,-22 -13,-29l-36 -74c-67,-123 42,-5 -28,-43l-59 224c-77,-91 -54,-1 -52,-149 3,-220 227,-253 227,-253l-79 -24 32 -132 94 0c16,-89 55,-163 59,-277 3,-119 -19,-212 -37,-291l-60 151c-59,-142 -28,-30 -16,-130 13,-107 -23,108 13,-57l-218 -133c29,98 19,44 68,116 94,139 96,150 79,322 -9,90 -24,150 -30,235l-41 259c-99,-200 40,-410 -14,-692 -25,79 -53,45 -54,44l-59 -198c-37,-44 -16,-19 -49,-40l-86 62c70,125 92,75 170,132 -60,276 -15,392 -60,603 -123,-28 -189,-79 -246,-194 -21,-44 -20,-38 -35,-103 -3,-11 -13,-68 -14,-78 -12,-105 -29,-23 7,-145 100,61 91,258 147,360z"/>
   <path class="fil1" d="M6430 1473c57,-34 51,-22 133,-25 262,-11 235,-18 324,54 -57,43 -19,31 -115,49 -15,2 -71,3 -92,3 -96,-2 -54,11 -144,-29l-95 89c215,16 121,54 359,-11 -4,138 24,42 -66,183 -4,6 -9,14 -14,20 -67,102 -90,40 -56,310 9,-3 20,-11 24,-14 117,-80 -34,-117 103,13 36,35 5,3 40,48 -51,30 19,12 -43,0 -149,-29 18,-21 -129,39 -54,-146 -58,-88 -57,-260l-118 123 96 -225c155,19 -2,79 73,-20 -80,-181 -124,-1 -318,-219l95 -128zm-38 1025c39,50 25,100 230,109 110,4 218,-16 326,-19 32,-129 20,-217 47,-340 29,-128 73,-193 102,-289 47,-153 -66,-602 -129,-673l7 114c-112,-157 -83,-399 -101,-471 -29,-117 25,-62 -74,-105 -48,63 -14,-10 -36,86 -62,284 99,8 -39,239 -57,96 73,2 -53,-1 -208,-6 -37,76 -92,12 -60,-69 -66,-323 -66,-485 0,-146 22,-369 -66,-474 -218,178 66,769 -118,1067 -71,-283 103,-434 -58,-659 -84,96 -54,174 -46,298 29,401 -89,600 19,726l61 34c-6,3 -15,6 -19,8l-55 40c-3,-7 -12,12 -18,18 9,199 -8,603 222,755l-44 10z"/>
   <path class="fil2" d="M17622 22163l-6 -448c183,-34 365,-8 356,226 -9,227 -182,207 -350,222zm4 -1102c336,42 334,329 -6,381l6 -381zm-313 1355c309,10 1127,91 969,-591 -44,-193 -134,-189 -226,-311 162,-229 154,-483 -8,-620 -149,-126 -532,-95 -735,-83l0 1605z"/>
   <path class="fil1" d="M6625 18465c-39,137 -232,293 -31,394 28,-17 22,35 48,-78 1,-4 1,-47 2,-50l-7 -56c28,2 76,5 103,2 134,-15 48,1 69,-23l-7 180 237 42c83,36 72,-19 96,104 -30,-94 20,-9 -151,2l-247 -18c-156,-33 -79,-49 -297,-58 -34,133 -27,216 65,333l60 58c87,-163 -37,-147 -88,-297 261,43 277,-5 376,107 209,239 164,124 179,256 -129,54 -15,-45 -225,-44 -237,2 -61,-94 -95,-192 -66,21 -24,-6 -50,106 -2,7 -4,36 -5,31 -2,-5 -2,23 -5,33 -42,21 -49,20 -82,37l-172 96c69,151 7,192 164,301 129,88 155,106 144,331l45 25c186,66 -162,-20 50,15 40,7 45,3 86,1 217,-12 317,-91 526,-81 -17,-175 -100,-266 -113,-512 -29,-579 19,-673 -253,-1056 -77,-109 -158,-277 -219,-405l-40 -108 -42 -177 -41 3c-32,-221 -67,-168 -131,-204 -2,82 -17,182 6,258 14,47 23,53 44,83 3,5 11,12 14,16 4,5 12,14 15,17l29 37c-34,57 -67,76 -12,179 32,60 77,64 111,81 -55,178 13,117 -56,242l-100 -11z"/>
   <path class="fil1" d="M1990 19947c114,270 643,191 695,-23 28,-113 -1,49 10,-65 11,-110 -31,-161 44,-320 56,-119 137,-214 193,-313 143,-250 230,-583 140,-887 -136,22 -82,-7 -132,98 97,-41 8,-52 63,0l-130 335c-50,143 -83,177 -168,176 -9,4 -32,9 -38,9l-88 -41c-35,205 10,32 -59,154l-194 -24c42,153 -14,84 -49,251l32 37c6,6 25,28 31,35 95,105 97,84 215,124 -175,156 -330,-145 -333,-153 -36,-96 -19,-84 -2,-192l-62 60c-3,3 -36,68 1,-2 -84,-68 34,-122 68,-173 -137,-18 -252,104 -240,-232 -106,-54 90,29 -43,-10l-62 -23c8,-3 19,-6 24,-9 170,-117 -16,-48 116,-232 72,155 -43,236 88,315 117,-70 67,-331 1,-422 -53,-1 -98,45 -206,83l-113 -575c-19,-66 15,-13 -34,-56 -25,143 8,367 16,533 21,443 176,1111 276,1521 -27,43 68,64 -60,21z"/>
   <path class="fil1" d="M9652 10095c-125,-7 -412,48 -387,-193 -31,48 -63,-84 -4,133 -8,-5 -48,-38 -55,-42 -56,-32 24,-31 -73,-37 -127,-8 -87,66 -102,113 26,17 124,56 124,56 113,94 63,21 50,151 -4,115 21,126 143,171 210,78 208,151 542,349l42 242c162,74 734,101 554,-231l34 182c-108,-93 -49,-41 -100,-241l-151 -463c-17,-72 -22,-199 -43,-279 -23,-91 -124,-338 -196,-406 -105,-98 -290,-218 -443,-216 177,235 304,97 321,330 -197,-135 -538,-249 -675,-42l-102 197c-5,10 -12,22 -16,34l174 -148c88,-64 276,-129 395,4 4,5 11,12 15,17 39,45 127,163 82,258 -73,155 8,82 -129,61z"/>
   <path class="fil1" d="M18576 10558c-19,96 36,105 125,437 306,6 112,64 589,74 70,-613 420,-351 65,-1469 -179,-563 13,-865 -115,-921l-103 68c5,124 21,91 60,230l-60 -33c-174,-64 20,-62 -84,0 -1,207 52,164 -15,398 -101,354 -55,91 6,363 -77,34 -4,74 -89,-62 1,86 13,122 37,176 223,-34 254,-7 264,216l-66 -33c-57,-31 -88,-73 -172,-66 144,122 97,24 164,217 76,220 91,130 80,214l-123 -67 -55 74c-31,42 4,5 -39,45l-19 -143 -118 68c-1,-32 5,-89 5,-91l-5 -54c0,-14 -2,-18 -4,-27 -32,28 -127,258 -322,-137 0,147 12,414 -6,523z"/>
   <path class="fil1" d="M5915 15053c-11,88 21,259 64,366 116,17 251,-13 381,-23 39,-3 171,-9 201,-16 132,-30 68,-11 121,-80 -70,13 -21,31 -52,-5 3,-95 -13,-201 -1,-292 14,-106 42,-112 69,-182 218,-554 11,-743 -18,-881 -113,-521 -74,-129 -144,-355 -33,183 40,5 24,158 -16,157 -62,103 -137,129 2,-14 8,-27 11,-41l46 -294c-10,-70 51,26 -32,-102 -45,134 -37,217 -2,361 -31,-12 -130,-59 -131,-60 -55,-14 -21,-14 -76,4 11,89 -1,14 24,65l53 87c111,233 -14,-134 31,82 20,97 -11,202 13,276 16,-2 101,56 133,-211 3,-20 7,-24 13,-34 51,75 33,-18 44,130 8,121 -19,106 -21,120 -22,136 -36,35 28,147l-59 53c-182,108 129,-20 -47,16l-124 32c-288,154 13,-96 -260,58 -37,-121 -12,14 26,-115 -54,11 -59,24 -135,29l-41 -85c-4,-8 -8,-16 -11,-25 -58,-134 -26,-170 -60,-184l-89 22c-37,377 128,607 158,850z"/>
   <path class="fil1" d="M15623 2327c-25,45 -39,-72 -19,90 213,73 573,79 765,-2 12,-112 -7,-235 23,-340 26,-92 90,-121 80,-268 -24,-150 36,-319 16,-499 -23,-206 -37,-71 -57,-435l-90 199c40,86 69,96 89,195 -194,-25 -32,-187 -523,-129 -2,67 -22,19 13,91 60,120 62,31 85,33 6,1 15,-1 20,-1 131,12 88,90 204,-30 -35,87 -11,142 -22,182l-234 -73c10,8 20,17 29,24l87 58c6,-8 19,9 29,14 2,163 4,139 -57,231 -20,-46 -23,63 -30,-98 -6,-119 -11,-4 30,-133 -98,169 -27,131 -80,258l-114 -164c-4,-3 -15,-6 -18,-17 -3,-10 -11,-11 -16,-17 66,-67 73,-60 50,-168l-83 -44c105,-86 59,-17 114,-113 -46,-7 -20,2 -52,4 -7,0 -17,1 -25,2 -230,14 -71,-82 -193,47 1,-84 -24,-32 69,-119l-63 -136c-8,-110 -42,-122 -45,-143 -2,-13 -8,-15 -13,-22 -95,374 -6,741 80,1169 37,188 9,223 2,420 -52,-21 -30,3 -51,-66z"/>
   <path class="fil1" d="M2520 1050c47,79 66,98 94,180l44 271c124,-46 101,-12 146,77l-206 -61c-30,-105 -22,-150 -49,-250 -35,-127 -94,-135 -29,-217zm3 1009l-2 270c185,83 260,117 500,91 251,-27 217,-152 242,-413 -65,96 -17,16 -35,125l-25 130c-1,4 -4,14 -8,19l-34 -236 -90 -47 143 -38c32,-252 205,-270 221,-622 6,-118 35,-736 -6,-790 -103,108 -78,236 -93,419 -16,188 -47,266 -82,432l-207 77c-5,3 -13,9 -18,11 -5,2 -13,6 -19,8 -60,20 -53,-12 -144,22 -8,3 -17,8 -25,11l-57 29c113,-227 153,-360 110,-679 -59,-32 -87,-94 -190,-59 -166,57 -16,46 38,131 39,62 58,282 64,383 0,8 1,34 1,43 -2,91 17,-5 -9,74 -87,-84 -28,7 -59,-107 -28,-106 38,-293 -70,-381 -173,-140 -254,102 -262,278 -10,212 46,607 144,759 91,139 23,58 190,84 -178,115 -118,-21 -162,228 -81,-66 -7,-114 -56,-252z"/>
   <path class="fil1" d="M12192 14475c68,21 136,32 189,142 18,36 81,228 91,272 -104,-47 -62,38 -130,-133 -37,-92 26,-48 -62,-139 -50,79 103,12 -117,368 -55,-108 21,-38 -88,-108 -74,50 -86,130 -94,119 -4,-6 -11,22 -17,32 43,-171 29,-55 -13,-123 -28,-46 -20,68 -48,-30 -5,-16 -21,-5 -30,-10 7,-4 18,-3 23,-4l140 -29c-3,-20 -15,-70 -16,-80 -1,-6 -2,-16 -3,-23 -1,-6 -1,-15 -2,-22 -3,-41 2,-44 -4,-100 -11,-97 -26,-149 -31,-271 -99,39 -72,-3 -146,98 -22,28 -27,60 -36,100l30 25c33,28 -12,-18 31,26 45,48 67,88 59,183l-19 59c-5,-9 -10,-21 -13,-28l-62 -148c-22,47 -23,-6 -25,106 -2,137 77,152 2,360 97,381 45,66 154,616 149,2 323,10 471,-10 193,-26 159,-71 176,-276 -12,145 -26,144 -87,198 0,-217 30,-364 135,-525 108,-164 73,-232 66,-289 -24,-190 -30,-79 -99,-57 -56,-139 -184,-300 -278,-405 189,-69 267,171 319,228 -53,-248 -2,-485 -55,-691 -194,118 -81,276 -59,363 -90,-66 -31,-39 -109,-52 -40,-6 -29,0 -49,22 -26,-160 -62,-222 -76,-343 -77,79 -68,48 -104,23 35,178 76,198 0,308 77,81 4,50 133,76 -40,34 -124,72 -144,121 0,2 -1,13 -2,15l-1 36z"/>
   <path class="fil1" d="M9401 2342c37,48 32,41 81,72 30,19 87,43 133,55 84,24 198,38 286,44 -4,-208 34,-398 187,-509l132 -83c102,-74 63,-82 179,-162 333,-228 389,-54 489,-224 -60,-51 -81,-53 -155,-40 -71,12 -33,28 -128,42 -196,28 -37,-43 -247,9 81,-251 -12,-62 -68,-283 -2,-10 -6,-44 -7,-54 -11,-63 19,-4 -16,-93 -19,44 -28,65 -66,120 -179,257 -149,272 -265,332 36,-184 52,-97 62,-176 19,-143 14,46 -6,-52 -34,-169 -26,109 -17,-52 162,-41 156,-54 235,-207 124,-243 76,-187 519,-205 -23,-74 -128,-119 -222,-108 -260,32 -183,127 -307,6 437,-278 609,87 710,119 -43,-57 -86,-85 -128,-120 -425,-349 -609,92 -665,141 -103,93 -152,35 -215,184l-485 1220c-3,-5 -11,16 -16,24z"/>
   <path class="fil2" d="M15328 21967c-21,22 -15,13 -50,52l-134 203c604,558 964,-33 922,-377 -35,-283 -267,-342 -436,-438 -96,-55 -182,-176 -91,-285 97,-116 204,13 317,28 72,-70 129,-117 149,-232 -382,-389 -1022,18 -763,563 112,235 387,188 489,373 54,100 -35,222 -117,239 -109,24 -184,-79 -286,-126z"/>
   <path class="fil1" d="M6494 9705c-76,187 -66,119 -130,204 -6,7 -22,30 -26,39 -37,66 -59,176 -95,244 -38,-82 19,-129 48,-263 -207,19 -169,62 -306,-26l9 -184c-57,193 -31,267 51,486 159,422 -27,279 216,451 -25,65 -17,24 -36,78l-10 39c0,-3 0,7 -2,10 -110,-22 -11,34 -54,-48 -54,-105 -3,-30 -4,-57 -7,373 0,287 -88,251 119,73 330,13 467,-2 77,-8 155,-14 236,-28 108,-17 109,-6 170,-90 -51,-42 -59,64 -86,-148 -45,-363 250,-665 121,-1021l-26 43c-3,5 -8,15 -11,22l-105 191c-3,-7 -13,17 -16,24l58 50c-143,18 57,-22 -99,-7l-115 33c-6,-23 -21,-91 -24,-101l-30 -69c-2,-13 -9,-15 -14,-22 -107,82 -154,316 -149,418 -62,-251 49,-278 97,-451 -65,-98 -38,-37 -43,-198l-4 132z"/>
   <path class="fil1" d="M9383 14768l71 3c40,-238 -45,-32 -61,-329 8,8 16,17 22,22l41 40c7,6 13,12 20,18 129,108 166,50 185,124l43 120c3,6 9,11 13,17 69,110 63,-112 72,214 -119,-43 -53,-29 -110,-81 -156,-140 -33,-85 -165,-29 -7,3 -15,6 -22,9 -6,3 -15,6 -21,8l-180 109c-284,-268 -80,-100 -227,-280 1,161 -3,201 22,323 35,166 70,141 17,289l99 418c452,40 305,29 685,-29l48 -394c0,-11 1,-15 1,-22l31 -230c32,-264 -169,-528 -384,-615l-119 -58c-92,-78 117,-56 -115,-102 -63,57 -38,-44 -52,117l86 338z"/>
   <path class="fil1" d="M12886 2506c-19,-84 -64,-160 -69,-190 -24,-146 -15,24 2,-64 1,-6 4,-16 6,-22l41 -90c41,-68 73,-76 124,-207 138,-353 134,-171 244,-323 70,-95 15,-94 14,-96 -125,-21 -158,103 -206,183l-152 -97 -13 133c-72,82 -34,97 -30,200l-8 35c-82,30 -58,28 -61,-102l-146 165c-13,-50 -16,-39 59,-165l-149 12c-7,-11 -18,-9 -27,-12 150,-126 196,-24 223,-145 59,-257 30,81 16,-87 45,-158 132,-251 290,-259 196,-10 133,-38 176,36 6,-106 -213,-197 -425,-19 -5,4 -22,90 -110,44 -10,-36 -18,-6 10,-61 121,-240 507,-133 523,-136 -20,-23 -191,-123 -288,-106 -110,20 -171,187 -255,123 -83,-91 -56,-111 10,-186 42,-49 147,-43 196,-384 27,-190 -28,-176 98,-210 71,-46 -34,115 39,-40 50,-106 2,-214 -34,-290 -189,32 -60,-57 -157,90 -8,13 -45,141 -55,172 -106,351 -239,489 -302,961 -105,783 -271,1212 416,1137z"/>
   <path class="fil3" d="M2784 10183c-35,-95 5,-173 90,-220 13,129 -15,182 -90,220zm-662 870c39,54 63,-71 67,-120 6,-83 4,-165 -10,-244 -12,-65 -369,-1063 -10,-1282l129 53c-4,2 -14,1 -18,17 -19,87 -122,49 -57,216 42,107 100,54 112,195l3 101 -81 -40c-56,-102 -47,-299 -147,-360 -36,122 -19,40 -7,145 1,10 11,67 14,78 15,65 14,59 35,103 57,115 123,166 246,194 45,-211 0,-327 60,-603 -78,-57 -100,-7 -170,-132l86 -62c33,21 12,-4 49,40l59 198c1,1 29,35 54,-44 54,282 -85,492 14,692l41 -259c6,-85 21,-145 30,-235 17,-172 15,-183 -79,-322 -49,-72 -39,-18 -68,-116l218 133c-36,165 0,-50 -13,57 -12,100 -43,-12 16,130l60 -151c18,79 40,172 37,291 -4,114 -43,188 -59,277 -14,119 7,83 -47,156 0,0 -224,33 -227,253 -2,148 -25,58 52,149l59 -224c70,38 -39,-80 28,43l36 74c3,7 8,20 13,29 10,-369 50,-136 200,-239 111,-75 113,-287 172,-326 176,71 -31,519 -22,700 295,-342 90,-1272 -183,-1411 -125,-25 -87,10 -151,12 -77,2 -50,-16 -140,-12 -133,6 -426,126 -495,240 -110,183 -60,780 1,976 83,266 119,302 93,630z"/>
   <path class="fil1" d="M18644 6893c47,65 -18,48 123,89 148,43 350,-12 472,-41 20,-145 -38,-121 46,-284 52,-102 88,-129 132,-245 137,-360 264,-232 335,-374 69,-138 37,7 90,-203 -227,32 -91,50 -267,100 -38,11 -10,-7 -72,14 -99,33 -134,92 -241,-48 25,-155 1,-48 52,-88l-4 -182 4 171c-80,-74 -111,35 -86,-338 15,-230 -30,-175 -108,-258l69 -73c86,-162 -69,-219 -74,-224 67,-138 57,-32 61,-144 6,-138 -36,-88 -37,-90 -16,160 -5,387 -6,564 0,337 -49,277 51,427 2,3 11,23 13,18 2,-5 11,11 13,18 -73,132 -68,291 -87,530 -213,85 -85,31 -131,198 -44,-54 -40,-90 -98,-94l-40 4c-55,0 -55,-24 -120,31 -8,-301 -28,-50 -127,-202 -47,-73 -18,-6 -26,-133 0,-2 0,-76 0,-87l1 -50c-7,374 -3,427 62,735l172 40c-98,189 -135,50 -92,226l-80 -7z"/>
   <path class="fil4" d="M18851 6231c-148,14 42,42 -44,-32 52,-38 10,-133 115,0 -46,34 1,25 -71,32zm170 -144c26,89 37,65 -29,117 -10,-36 -18,-10 -9,-61 18,-102 -3,-9 38,-56zm-377 806l80 7c-43,-176 -6,-37 92,-226l-172 -40c-65,-308 -69,-361 -62,-735l-1 50c0,11 0,85 0,87 8,127 -21,60 26,133 99,152 119,-99 127,202 65,-55 65,-31 120,-31l40 -4c58,4 54,40 98,94 46,-167 -82,-113 131,-198 19,-239 14,-398 87,-530 -2,-7 -11,-23 -13,-18 -2,5 -11,-15 -13,-18 -100,-150 -51,-90 -51,-427 1,-177 -10,-404 6,-564 1,2 43,-48 37,90 -4,112 6,6 -61,144 5,5 160,62 74,224l-69 73c78,83 123,28 108,258 -25,373 6,264 86,338l-4 -171c-30,-451 24,-963 -171,-1061 -174,162 -53,668 -103,952 -98,-72 -282,1 -383,64 -239,150 -171,763 -132,904l123 403z"/>
   <path class="fil1" d="M12354 9904c83,82 77,-120 69,132 0,307 19,580 -43,876 62,-51 40,32 82,-129l73 -454c17,-157 -42,-498 156,-580l-5 141c-40,129 -26,27 -49,180 -7,47 0,29 -11,88 -25,136 -67,170 -23,269 48,-58 43,-140 62,-204 31,-105 46,-94 112,-156l289 -401c113,-257 89,-123 250,-193 -35,-22 -178,60 -166,-179 53,23 20,131 146,43 1,-1 6,-9 10,-11l123 173c71,-76 58,-82 65,-222 13,-233 3,-241 -77,-292l-115 -48c-76,-16 -165,-2 -238,29 -189,81 -360,405 -530,597 -153,173 -95,177 -180,341z"/>
   <path class="fil1" d="M15760 6915c35,62 384,46 478,34l113 -40c-148,-128 134,-498 152,-746 10,-137 -33,-341 -86,-432l-171 -306c-1,-11 -8,-13 -11,-20l-125 -46c12,265 26,118 142,266 91,117 9,44 71,219l51 90c-54,0 -46,54 -59,118l-19 75c-58,-96 -48,-84 -63,-222 -189,176 -170,111 -172,641 -68,-45 -36,-332 -36,-438 -311,37 -6,52 -224,125 74,-101 39,-65 80,-299 -11,5 -21,14 -28,22 -91,89 -79,116 -80,115 -1,-4 -1,17 -5,24 -59,-131 -29,-92 -176,-118l72 270c2,8 3,17 5,25 2,8 4,17 6,25 78,307 166,274 85,618z"/>
   <path class="fil4" d="M12002 14208l-26 60c-3,6 -10,25 -18,35 7,9 15,11 19,28l32 54c3,7 8,16 12,24 95,187 50,165 69,304 35,252 -20,88 73,152 44,-65 46,20 56,-162l-27 -228 1 -36c1,-2 2,-13 2,-15 20,-49 104,-87 144,-121 -129,-26 -56,5 -133,-76 76,-110 35,-130 0,-308 36,25 27,56 104,-23 14,121 50,183 76,343 20,-22 9,-28 49,-22 78,13 19,-14 109,52 -22,-87 -135,-245 59,-363 53,206 2,443 55,691 -52,-57 -130,-297 -319,-228 94,105 222,266 278,405 69,-22 75,-133 99,57 7,57 42,125 -66,289 -105,161 -135,308 -135,525 61,-54 75,-53 87,-198 42,-227 166,-280 181,-484 18,-245 -63,-307 -89,-531 -83,-697 135,-1020 -3,-1219 -132,16 -89,-6 -129,153l-132 632c-69,-146 -77,-322 -98,-515 -45,-402 -33,-407 -208,-407 -104,202 12,844 46,1110 -100,-9 -102,-33 -168,22z"/>
   <path class="fil1" d="M12358 5965c49,50 14,-14 50,84 64,-115 -107,-91 45,-33 79,31 22,-31 58,228 102,43 243,78 338,153 -68,51 -23,55 -188,-4 2,50 161,125 296,239 70,59 126,103 115,270 200,-36 28,28 150,-74 83,-69 218,-215 225,-338 8,-143 -79,-158 -131,-234 -57,-83 -71,-191 -103,-224 -100,-65 -25,97 -88,-137 -10,-39 -11,-87 -20,-132 -23,-119 -44,-155 -92,-261 -224,21 -386,90 -473,267 18,67 162,443 266,52 -80,33 -112,94 -131,99l5 -252c132,132 76,-25 180,102 63,78 6,305 -153,313 -84,4 -27,-26 -127,15 -20,-122 -42,-197 -153,-230 -37,197 7,13 -69,97z"/>
   <path class="fil3" d="M2261 6033c124,17 65,4 143,-140 60,-109 51,-57 94,-187 52,-163 78,-298 121,-467l190 -57c-137,14 -113,-8 -175,73 72,96 -17,2 340,26l132 -6c-196,-4 -355,-51 -441,136l382 -78c-12,92 -9,169 -55,239 -57,88 -91,21 -149,163 353,-9 118,-140 414,-138 160,1 9,59 140,3 114,-48 -144,-15 111,-53 -33,235 -7,129 -226,180 -36,8 -126,35 -134,36l-102 -16c10,85 24,65 -22,127 -56,75 -62,26 -210,221l-91 172c2,6 6,16 8,22l51 279c119,-45 -25,46 47,-39 -14,-176 -32,-288 52,-391 31,-38 144,-153 199,-203 268,-240 743,-59 622,-336 -74,-167 -296,-122 -430,-93l-60 -278c247,52 454,100 534,-88 -51,-64 2,-13 -64,-48l-457 -129c-103,-10 -480,16 -564,68 -66,42 -87,98 -125,233 -28,98 -39,195 -66,283 -58,191 -148,297 -209,486z"/>
   <path class="fil3" d="M16017 6049c-157,-36 -68,17 -109,-82 2,-1 1,-78 78,-16 51,40 19,36 31,98zm-173 -216c-45,-140 79,-153 122,-61 97,212 -1,89 -22,129 -144,-28 -63,48 -100,-68zm391 -428c-30,-202 -32,-233 -25,-463 4,-149 -31,-369 27,-468 68,21 29,-30 75,53 2,3 22,111 22,115 18,228 -12,385 -5,531 5,114 10,152 -12,264 -89,-109 -16,-22 -82,-32zm-378 -761l-107 -20c-52,131 -31,25 -21,185 7,-11 12,-26 18,-35 120,-207 -24,-73 77,-93 60,77 120,260 150,392 79,341 101,346 9,431l74 68c24,66 5,30 -6,124 48,-20 18,-65 98,-85 106,150 119,132 -19,201l-69 37c-63,-234 -49,-113 -101,-237l-179 -659c0,164 60,313 86,485 -86,56 -87,80 -153,139l-91 61c-235,184 21,650 81,967 12,67 10,122 18,180l28 106c1,-5 6,16 10,24 81,-344 -7,-311 -85,-618 -2,-8 -4,-17 -6,-25 -2,-8 -3,-17 -5,-25l-72 -270c147,26 117,-13 176,118 4,-7 4,-28 5,-24 1,1 -11,-26 80,-115 7,-8 17,-17 28,-22 -41,234 -6,198 -80,299 218,-73 -87,-88 224,-125 0,106 -32,393 36,438 2,-530 -17,-465 172,-641 15,138 5,126 63,222l19 -75c13,-64 5,-118 59,-118l-51 -90c-62,-175 20,-102 -71,-219 -116,-148 -130,-1 -142,-266l125 46c3,7 10,9 11,20l171 306c53,91 96,295 86,432 -18,248 -300,618 -152,746l15 -39c31,-122 1,-132 59,-292 142,-386 222,-381 20,-914 -104,-274 -49,-418 -52,-722 -2,-198 40,-637 -215,-502 -102,223 58,629 -58,830 -99,-62 -47,-2 -85,-163 -31,-126 -102,-429 -178,-463z"/>
   <path class="fil5" d="M9401 2342c5,-8 13,-29 16,-24l485 -1220c63,-149 112,-91 215,-184 56,-49 240,-490 665,-141 42,35 85,63 128,120 -101,-32 -273,-397 -710,-119 124,121 47,26 307,-6 94,-11 199,34 222,108 -443,18 -395,-38 -519,205 -79,153 -73,166 -235,207 -9,161 -17,-117 17,52 20,98 25,-91 6,52 -10,79 -26,-8 -62,176 116,-60 86,-75 265,-332 38,-55 47,-76 66,-120 35,89 5,30 16,93 1,10 5,44 7,54 56,221 149,32 68,283 210,-52 51,19 247,-9 95,-14 57,-30 128,-42 74,-13 95,-11 155,40 -100,170 -156,-4 -489,224 -116,80 -77,88 -179,162l-132 83c-153,111 -191,301 -187,509l54 4c39,-449 76,-329 353,-596 273,-266 477,-205 621,-287 77,-544 -625,238 -577,-649 253,-84 575,78 696,-178 34,-205 -352,-339 -595,-356 -261,-17 -251,178 -489,454 -155,180 -478,1137 -602,1391l39 46z"/>
   <path class="fil1" d="M2813 5567c127,250 17,134 1,165 -22,-22 -58,-25 -77,-103 -39,-158 40,-120 94,-142l-47 -35c77,15 70,33 112,21 101,-31 -40,-42 77,-37 -70,184 -64,139 -160,131zm-552 466c-88,61 -109,289 -100,397 136,110 415,137 621,138l-51 -279c-2,-6 -6,-16 -8,-22l91 -172c148,-195 154,-146 210,-221 46,-62 32,-42 22,-127l102 16c8,-1 98,-28 134,-36 219,-51 193,55 226,-180 -255,38 3,5 -111,53 -131,56 20,-2 -140,-3 -296,-2 -61,129 -414,138 58,-142 92,-75 149,-163 46,-70 43,-147 55,-239l-382 78c86,-187 245,-140 441,-136l-132 6c-357,-24 -268,70 -340,-26 62,-81 38,-59 175,-73l-190 57c-43,169 -69,304 -121,467 -43,130 -34,78 -94,187 -78,144 -19,157 -143,140z"/>
   <path class="fil3" d="M9490 14370c36,-386 -12,-355 94,-395 50,81 49,156 11,237l-49 64c223,-27 116,-68 145,-255l117 -6c44,230 31,300 95,529 -104,0 -33,19 -117,-35 -216,-137 38,-7 -296,-139zm320 -431c-66,18 73,-11 -56,-2 -103,8 -5,-23 -62,17 -3,-184 14,-119 80,-247 -102,-96 -101,-145 -42,-312 125,124 106,254 80,544zm-268 -39c-48,-191 -11,-467 42,-640 69,48 76,-1 63,171l-45 139c-3,5 -15,25 -17,19 -3,-5 -13,13 -20,19l58 86c41,115 18,184 -81,206zm-439 1445c53,-148 18,-123 -17,-289 -25,-122 -21,-162 -22,-323 147,180 -57,12 227,280l180 -109c6,-2 15,-5 21,-8 7,-3 15,-6 22,-9 132,-56 9,-111 165,29 57,52 -9,38 110,81 -9,-326 -3,-104 -72,-214 -4,-6 -10,-11 -13,-17l-43 -120c-19,-74 -56,-16 -185,-124 -7,-6 -13,-12 -20,-18l-41 -40c-6,-5 -14,-14 -22,-22 16,297 101,91 61,329l32 72 -83 20c-23,-45 -14,-27 -20,-95l-86 -338c14,-161 -11,-60 52,-117 232,46 23,24 115,102l119 58c215,87 416,351 384,615l-31 230c223,-251 -15,-813 -53,-1119 -29,-229 19,-462 -16,-686 -25,-156 -42,-118 -128,-182 -159,-117 -10,-122 -184,-124 -121,173 -89,810 -100,1022 -184,27 -91,-20 -218,114 -41,43 -6,14 -49,42 -131,85 -140,39 -170,247 -46,326 40,437 85,713z"/>
   <path class="fil5" d="M7092 6546c-19,-105 17,-14 -45,-137 -203,15 -519,262 -876,94 -97,-45 -32,25 -88,-91 -15,-31 -22,-61 -29,-102l465 55c40,14 22,10 51,28 209,134 -183,-54 45,36 -5,-425 127,-242 -19,-429 79,-49 218,-121 261,-197 -130,-54 -170,-11 -208,22 -300,259 -133,239 -360,224l104 -143c38,-74 41,-107 94,-156 68,-62 214,-152 304,-213 -97,-63 -123,10 -249,73 -100,50 -157,85 -182,228l-72 -5c-6,0 -25,-9 -34,-12 15,57 48,70 0,146l-118 84c-5,-8 -18,8 -25,15l374 95c127,36 48,-3 89,71 -65,51 -1,32 -91,23 -77,13 -495,40 -490,-154 2,-114 -4,-31 43,-102 138,-208 -6,146 39,-44 4,-15 16,-13 21,-21l-53 -27c-243,-97 -846,7 -936,-192 219,-67 224,12 228,15l28 36c34,-107 -2,-65 112,-84 26,-4 120,5 152,7 3,6 3,16 4,19 1,3 3,15 4,19 4,10 -31,30 54,67 40,-35 20,-26 26,-48l0 -50c117,-22 97,-11 208,4 219,30 122,36 175,-31 -55,-56 -15,-27 -92,-48 -6,-2 -103,-10 -113,-10l-438 3c-179,5 -153,-29 -174,-44 9,-5 20,-10 27,-13l481 -59c133,-53 922,-33 1086,-36 -145,-160 -1385,-52 -1600,30 -102,91 5,9 -52,80 -89,112 -76,30 -188,115 7,134 6,140 153,180l792 72c-40,271 -36,154 10,417 21,122 -1,86 107,169 357,277 698,-77 995,21z"/>
   <path class="fil5" d="M15681 683c42,9 31,7 44,95 4,-43 -26,-72 66,-46l13 176 -91 -39c-3,-6 -6,-15 -10,-22l-57 -97c-2,-4 -5,-16 -6,-20 -1,-3 -2,-10 -2,-19 -1,-9 -1,-13 -1,-20l44 -8zm554 -74c86,-55 56,-54 152,15l-71 41c-54,-8 -16,-21 -39,-41 25,86 -6,38 57,71 -22,451 -2,349 -111,409 -118,-93 -49,-86 -27,-209 17,-96 0,-185 39,-286zm-418 -127c208,38 159,208 171,556 256,-284 -207,-729 150,-529 66,220 -50,348 -24,511l-108 19c-10,3 -16,4 -26,7 -2,0 -117,52 -122,54 33,-164 33,-80 21,-223 -30,-335 -134,-159 -62,-395zm-194 1845c21,69 -1,45 51,66 7,-197 35,-232 -2,-420 -86,-428 -175,-795 -80,-1169 5,7 11,9 13,22 3,21 37,33 45,143l63 136c-93,87 -68,35 -69,119 122,-129 -37,-33 193,-47 8,-1 18,-2 25,-2 32,-2 6,-11 52,-4 -55,96 -9,27 -114,113l83 44 90 12 234 73c11,-40 -13,-95 22,-182 -116,120 -73,42 -204,30 -5,0 -14,2 -20,1 -23,-2 -25,87 -85,-33 -35,-72 -15,-24 -13,-91 491,-58 329,104 523,129 -20,-99 -49,-109 -89,-195l90 -199c20,364 34,229 57,435 20,180 -40,349 -16,499 186,-262 13,-752 -3,-1001 -21,-324 -76,-239 -231,-295 -48,-17 -61,-83 -137,-112 -33,-13 -177,8 -242,23 -93,21 -258,211 -286,262 -224,418 60,1138 50,1643z"/>
   <path class="fil3" d="M6321 14405c25,-137 -7,-86 99,-115 -22,126 11,85 -99,115zm-191 -266c-5,-207 -56,-185 -121,-319 92,-67 350,-8 257,472 -36,180 -33,136 -140,176 -11,-125 7,-206 4,-329zm576 -564c-51,38 14,36 -96,26 11,-191 -9,-50 52,-117l44 91zm-59 -99c-33,25 -228,-101 -233,-106 56,-48 -71,-107 151,-89 132,10 64,1 124,81 -15,102 29,61 -42,114zm-820 387l47 24c168,83 43,0 148,136l49 48c-42,166 -30,224 -5,350 -112,-67 -95,-8 -131,-378 -133,44 12,42 -132,49l-28 -143c-72,179 -93,383 -52,611 16,92 35,202 68,287l124 206c-30,-243 -195,-473 -158,-850l89 -22c34,14 2,50 60,184 3,9 7,17 11,25l41 85c76,-5 81,-18 135,-29 -38,129 -63,-6 -26,115 273,-154 -28,96 260,-58l124 -32c176,-36 -135,92 47,-16l59 -53c-64,-112 -50,-11 -28,-147 2,-14 29,1 21,-120 -11,-148 7,-55 -44,-130 -6,10 -10,14 -13,34 -32,267 -117,209 -133,211 -24,-74 7,-179 -13,-276 -45,-216 80,151 -31,-82l-53 -87c-25,-51 -13,24 -24,-65 55,-18 21,-18 76,-4 1,1 100,48 131,60 -35,-144 -43,-227 2,-361 83,128 22,32 32,102l-46 294c-3,14 -9,27 -11,41 75,-26 121,28 137,-129 16,-153 -57,25 -24,-158 70,226 31,-166 144,355 29,138 236,327 18,881 -27,70 -55,76 -69,182 -12,91 4,197 1,292 31,36 -18,18 52,5 28,-145 -37,-219 14,-327 213,-458 164,-637 59,-981 -103,-340 93,-478 -43,-682 -59,-88 -219,-126 -298,-38 -127,144 72,281 -142,392l-445 199z"/>
   <path class="fil3" d="M12358 5965c76,-84 32,100 69,-97 111,33 133,108 153,230 100,-41 43,-11 127,-15 159,-8 216,-235 153,-313 -104,-127 -48,30 -180,-102l-5 252c19,-5 51,-66 131,-99 -104,391 -248,15 -266,-52 87,-177 249,-246 473,-267 48,106 69,142 92,261 9,45 10,93 20,132 63,234 -12,72 88,137 -57,-594 -200,-625 -362,-777 -348,-326 -314,-607 -495,-568l-6 165c4,16 38,95 49,121 48,114 75,150 125,233 -72,118 -357,186 -166,759z"/>
   <path class="fil4" d="M18758 10081c70,54 60,-20 29,83 -62,-32 -57,3 -29,-83zm-182 477c18,-109 6,-376 6,-523 195,395 290,165 322,137 2,9 4,13 4,27l5 54c0,2 -6,59 -5,91l118 -68 19 143c43,-40 8,-3 39,-45l55 -74 123 67c11,-84 -4,6 -80,-214 -67,-193 -20,-95 -164,-217 84,-7 115,35 172,66l66 33c-10,-223 -41,-250 -264,-216 -24,-54 -36,-90 -37,-176 85,136 12,96 89,62 -61,-272 -107,-9 -6,-363 67,-234 14,-191 15,-398 104,-62 -90,-64 84,0l60 33c-39,-139 -55,-106 -60,-230l103 -68c-9,-6 44,-100 -108,-13 -163,94 -191,711 -210,894 -198,2 -148,-25 -261,99 -246,270 -178,800 -85,899z"/>
   <path class="fil3" d="M2491 13494c86,47 120,81 88,220l-133 -9 87 -113c-120,44 -65,58 -108,16 2,-112 23,-80 66,-114zm180 -43l156 -21 -17 352 -150 -61 11 -270zm-516 182l-71 26c7,8 17,9 21,26l74 111c21,52 104,360 -98,380 -35,-154 -16,-263 -59,-370l67 -118c-115,50 -129,74 -156,195l77 320c119,158 469,-78 569,-30 121,58 47,74 187,111 -28,-70 -24,-127 -46,-207 -75,-285 -352,-88 -395,-304 95,-40 393,48 518,83 4,-8 7,-33 9,-28 2,5 7,-21 10,-27 2,-5 7,-18 10,-25 43,-79 0,-37 59,-78 82,212 250,496 112,729 0,1 -31,48 -38,59l-46 83c-36,64 -61,111 -86,167 -93,211 -36,202 -64,432 82,-19 26,50 53,-57 41,-606 297,-544 283,-907 -7,-194 -201,-706 -302,-815 -154,-32 -81,-18 -206,23l-67 19c-8,1 -16,1 -25,3 -238,40 -110,86 -390,199z"/>
   <path class="fil6" d="M3137 1263c122,27 41,1 78,40 -62,98 24,50 -102,62 6,-20 22,-96 24,-102zm-266 -522c144,-57 152,33 219,132 -6,132 -29,159 -41,241 -30,195 63,115 -82,208 -14,-644 20,-359 -96,-581zm266 522c-56,-117 7,-190 10,-324 3,-198 -64,-135 -69,-292 329,39 192,251 168,553l-109 63zm-614 796c49,138 -25,186 56,252 44,-249 -16,-113 162,-228 -167,-26 -99,55 -190,-84 -98,-152 -154,-547 -144,-759 8,-176 89,-418 262,-278 108,88 42,275 70,381 31,114 -28,23 59,107 26,-79 7,17 9,-74 0,-9 -1,-35 -1,-43 -6,-101 -25,-321 -64,-383 -54,-85 -204,-74 -38,-131 103,-35 131,27 190,59 43,319 3,452 -110,679l57 -29c8,-3 17,-8 25,-11 91,-34 84,-2 144,-22 6,-2 14,-6 19,-8 5,-2 13,-8 18,-11l207 -77c35,-166 66,-244 82,-432 15,-183 -10,-311 93,-419 41,54 12,672 6,790 -16,352 -189,370 -221,622l-143 38 90 47 34 236c4,-5 7,-15 8,-19l25 -130c18,-109 -30,-29 35,-125 25,-261 211,-284 228,-636 16,-327 95,-896 -61,-880 -63,7 -10,-13 -55,21 -49,37 -37,69 -93,130 -188,-105 -549,62 -678,160 -28,20 -167,136 -183,158 -193,275 -16,837 102,1099z"/>
   <path class="fil2" d="M18710 20834c-57,240 -19,1252 -15,1585l302 -3 2 -1602c-99,-6 -199,-23 -289,20z"/>
   <path class="fil2" d="M16487 22386c105,49 193,38 306,28l4 -1592 -318 -10 8 1574z"/>
   <path class="fil3" d="M12354 9904l-16 1088c263,-30 174,-290 265,-496 51,51 -4,-51 51,78 6,16 17,58 21,76 23,112 6,465 178,304l-11 -146c35,172 15,73 -79,111 13,-141 -41,-347 -84,-484l70 -141c87,182 -48,166 92,340l17 -125 -22 -223 218 -10c47,-138 82,-243 57,-388 -27,-163 -65,50 80,-318l238 -71 -123 -173c-4,2 -9,10 -10,11 -126,88 -93,-20 -146,-43 -12,239 131,157 166,179 -161,70 -137,-64 -250,193l-289 401c-66,62 -81,51 -112,156 -19,64 -14,146 -62,204 -44,-99 -2,-133 23,-269 11,-59 4,-41 11,-88 23,-153 9,-51 49,-180l5 -141c-198,82 -139,423 -156,580l-73 454c-42,161 -20,78 -82,129 62,-296 43,-569 43,-876 8,-252 14,-50 -69,-132z"/>
   <path class="fil3" d="M12941 1541c57,-113 65,-117 179,-72 -56,29 -84,61 -179,72zm-187 93l25 0c41,129 -12,51 98,99l13 -133 152 97c48,-80 81,-204 206,-183 1,2 56,1 -14,96 -110,152 -106,-30 -244,323 -51,131 -83,139 -124,207l-41 90c-2,6 -5,16 -6,22 -17,88 -26,-82 -2,64 5,30 50,106 69,190 113,-12 28,0 61,-45 -55,-299 -25,-200 86,-443 41,-87 35,-129 105,-206 60,-66 93,-60 161,-184 209,-385 74,-686 -406,-711l86 -441c-126,34 -71,20 -98,210 -49,341 -154,335 -196,384 -66,75 -93,95 -10,186 84,64 145,-103 255,-123 97,-17 268,83 288,106 -16,3 -402,-104 -523,136 -28,55 -20,25 -10,61 88,46 105,-40 110,-44 212,-178 431,-87 425,19 -43,-74 20,-46 -176,-36 -158,8 -245,101 -290,259z"/>
   <path class="fil3" d="M6706 20062c11,-225 -15,-243 -144,-331 -157,-109 -95,-150 -164,-301l172 -96c33,-17 40,-16 82,-37 3,-10 3,-38 5,-33 1,5 3,-24 5,-31 26,-112 -16,-85 50,-106 34,98 -142,194 95,192 210,-1 96,98 225,44 -15,-132 30,-17 -179,-256 -99,-112 -115,-64 -376,-107 51,150 175,134 88,297l-60 -58c-92,-117 -99,-200 -65,-333 218,9 141,25 297,58l247 18c171,-11 121,-96 151,-2 -24,-123 -13,-68 -96,-104l-237 -42 7 -180c-21,24 65,8 -69,23 -27,3 -75,0 -103,-2l7 56c-1,3 -1,46 -2,50 -26,113 -20,61 -48,78 -201,-101 -8,-257 31,-394 -100,14 -144,61 -228,113 -88,55 -103,75 -153,155 -132,210 -96,281 23,473 118,191 53,327 182,486 33,40 122,104 158,155 67,95 44,153 99,215z"/>
   <path class="fil3" d="M2059 18986c8,-111 14,-129 106,-86 -18,61 16,77 -106,86zm198 -532l91 -11 6 304c-15,114 -25,85 -39,110l-83 -14c23,-194 63,3 76,-174 -11,-3 -106,63 -85,-128 17,-159 -8,-5 34,-87zm-267 1493c128,43 33,22 60,-21 -100,-410 -255,-1078 -276,-1521 -8,-166 -41,-390 -16,-533 49,43 15,-10 34,56l113 575c108,-38 153,-84 206,-83 66,91 116,352 -1,422 -131,-79 -16,-160 -88,-315 -132,184 54,115 -116,232 -5,3 -16,6 -24,9l62 23c133,39 -63,-44 43,10 -12,336 103,214 240,232 8,-188 -36,-17 30,-176 141,-48 35,-29 77,61 54,-10 49,29 98,-18 -16,-218 -14,-361 30,-540 222,75 64,85 191,430 27,74 34,58 52,158 85,1 118,-33 168,-176l130 -335c-55,-52 34,-41 -63,0 -86,130 -92,356 -238,390 -30,-100 -13,-198 -41,-313 -33,-136 -71,-110 -131,-218 -93,15 -69,25 -104,36 -178,56 -35,-26 -211,-7l-126 25c-87,21 -40,22 -125,40 -141,-367 -26,-605 -235,-605 -167,253 180,1869 261,2162z"/>
   <path class="fil3" d="M6760 9173c28,-28 124,1 139,17 34,37 45,105 64,151 -50,27 75,59 -16,-8 -45,-33 -1,-5 -45,-37 -1,125 24,102 11,208 -18,149 -58,142 -64,151 -5,-5 -120,-21 8,-177l-97 -305zm-6 547c32,-56 1,-18 46,-53 35,49 17,-4 33,71l-18 47c-97,-4 -27,10 -60,-47 -34,-49 16,-10 -80,-20l-89 15 2 -52 -22 -312 -147 -37c8,-69 -26,-108 -59,-178 110,41 81,3 111,90 18,54 -50,-42 13,65 48,82 -46,3 81,65 0,-90 19,-188 -73,-240 18,-20 47,-42 73,-80 173,158 -140,-157 44,60 64,75 -61,-10 30,26 48,20 -48,-77 55,3 -7,79 13,172 13,263 0,67 -17,143 -17,169 5,237 -37,93 64,145zm-843 -236l100 -120 168 43c53,-154 -14,-68 93,-132 90,81 14,9 86,102l64 74c63,58 43,19 76,122 5,161 -22,100 43,198 -48,173 -159,200 -97,451 -5,-102 42,-336 149,-418 5,7 12,9 14,22l30 69c3,10 18,78 24,101l115 -33c156,-15 -44,25 99,7l-58 -50c3,-7 13,-31 16,-24l105 -191c3,-7 8,-17 11,-22l26 -43c129,356 -166,658 -121,1021 27,212 35,106 86,148 -12,-269 -25,-367 47,-599 61,-196 114,-272 80,-511 -28,-198 -5,-420 -111,-536l-420 -173c-26,8 -210,213 -516,333 -88,34 -84,59 -109,161z"/>
   <path class="fil5" d="M6607 759c66,34 76,-42 96,146 0,2 -4,101 -4,101 -18,86 -18,43 -46,77 -63,-36 -45,70 -64,-142 -11,-121 -11,-101 18,-182zm17 -1c-82,-69 -44,34 -47,-315l6 -289c1,-15 8,-18 11,-27 87,34 71,-78 87,120l-57 511zm-232 1740l44 -10c-230,-152 -213,-556 -222,-755 6,-6 15,-25 18,-18l55 -40c4,-2 13,-5 19,-8l-61 -34c-108,-126 10,-325 -19,-726 -8,-124 -38,-202 46,-298 161,225 -13,376 58,659 184,-298 -100,-889 118,-1067 88,105 66,328 66,474 0,162 6,416 66,485 55,64 -116,-18 92,-12 126,3 -4,97 53,1 138,-231 -23,45 39,-239 22,-96 -12,-23 36,-86 99,43 45,-12 74,105 18,72 -11,314 101,471l-7 -114 -78 -922c-70,62 -32,112 -24,210 20,233 -19,183 -66,232 -56,-114 -60,-18 -74,-196 -6,-82 -8,-206 -8,-300l130 -27 -92 -91c-63,-62 -64,-107 -132,-119 -185,13 -4,-3 -135,46 -96,36 -38,-14 -134,50 -54,269 4,289 -186,440 -32,301 -106,1832 223,1889z"/>
   <path class="fil3" d="M9205 10276c13,-130 63,-57 -50,-151 0,0 -98,-39 -124,-56 15,-47 -25,-121 102,-113 97,6 17,5 73,37 7,4 47,37 55,42 -59,-217 -27,-85 4,-133 113,-100 95,-139 308,-118 71,90 114,157 79,311 137,21 56,94 129,-61 45,-95 -43,-213 -82,-258 -4,-5 -11,-12 -15,-17 -119,-133 -307,-68 -395,-4l-174 148c4,-12 11,-24 16,-34l102 -197c137,-207 478,-93 675,42 -17,-233 -144,-95 -321,-330 153,-2 338,118 443,216 72,68 173,315 196,406 21,80 26,207 43,279l151 463c51,200 -8,148 100,241l-34 -182c-3,-128 -60,-265 -100,-383 -199,-587 -7,-645 -465,-967 -224,-158 -263,-200 -674,-3 -174,83 -259,364 -238,607 58,51 53,36 107,104l89 111z"/>
   <path class="fil3" d="M15973 9936c86,-37 -75,-47 37,20l76 35c3,-8 16,6 24,12 -75,305 -3,73 -117,325l-199 -13c38,-71 24,-9 24,-140l146 -11 9 -228zm400 700l2 158c-174,2 -108,41 -111,-101 -34,-215 65,-610 -123,-780 -296,-268 -409,168 -417,426 -10,322 5,550 -132,689 6,-151 4,-234 7,-396 4,-158 70,-267 -46,-376 -9,169 -51,655 39,813 236,-26 143,-243 190,-656 417,-55 285,-96 367,-331 151,321 -58,428 117,760 330,46 204,-729 280,-1258l218 -77c-63,-84 9,-13 -103,-57 -6,-3 -14,-5 -21,-7 -70,-25 16,-22 -110,-35 -157,328 -13,967 -157,1228z"/>
   <path class="fil5" d="M19424 1003c12,112 35,341 -35,427 -108,131 -113,-104 -5,-211 4,-3 12,-9 18,-15 -107,-74 -87,18 -89,-165l111 -36zm-677 -277c173,88 67,136 88,512l40 225c42,-71 27,-180 24,-259 -2,-94 7,-203 9,-298 5,-220 12,-347 25,-562 128,26 102,104 99,463 -2,184 -17,392 -2,555 58,-63 62,-10 71,-290l-12 -599c-19,-195 -68,-149 82,-235 44,149 94,1118 64,1330l114 -11c136,-22 -110,-27 49,1 181,32 -14,-13 64,15 45,16 57,27 95,48 31,187 105,419 33,621 -83,232 -176,232 -173,520 44,-53 59,-162 76,-205 158,-317 220,-308 145,-760 -35,-209 -101,-230 -115,-361 -25,-221 55,-369 -99,-433 -45,-57 -40,-30 -132,-64 -26,-240 14,-573 -95,-742l-321 114c-50,511 -25,273 -129,415z"/>
   <path class="fil3" d="M18559 13443c50,125 57,164 204,107 162,-62 37,-52 258,-30l-12 220c-168,60 -261,38 -387,142 -288,236 42,738 51,785 37,195 27,249 175,383 15,-175 14,-94 -91,-312 6,82 70,88 103,86l71 -25c-74,-112 -170,-158 -216,-280 -30,-79 -100,-258 -104,-310 84,-38 7,-26 96,14 5,3 13,8 19,11l54 39c47,41 79,97 124,144 134,9 265,-10 340,-114 -44,-98 -65,-11 -157,-143 -98,-142 17,-67 -74,-211 -53,7 -128,109 -139,167 -42,235 25,78 125,187 -184,94 -496,-496 22,-486 4,4 2,15 2,17 11,146 -119,-12 16,69 51,30 82,13 101,3 -27,-134 -99,-27 -33,-397 -9,-6 -21,-9 -29,-13 -70,-31 -106,-33 -145,-93 0,-1 0,-11 0,-16 -174,16 -100,63 -234,125 -99,-84 2,-28 -140,-69z"/>
   <path class="fil7" d="M16323 12054c-321,-25 -72,-538 98,-371 6,6 37,42 42,50 46,67 46,-30 29,147 -115,-12 -47,-64 -200,-65 -33,137 -12,110 31,239zm457 251c26,-210 -100,-100 -143,-266 -43,-164 76,-179 -11,-389 -254,-610 -964,329 -415,564 159,69 195,-40 303,-5 117,38 105,141 266,96z"/>
   <path class="fil5" d="M9994 5718c8,23 116,-12 -29,122 -1,-3 -117,-62 29,-122zm-66 -446c103,-42 65,-23 170,-7 -6,8 -12,20 -16,25l-46 62c-40,43 -54,41 -71,52l-37 -132zm-87 504c18,40 43,-55 13,55 -18,69 8,5 -36,60 -18,-40 -81,74 -12,-118 -84,34 8,13 -89,27l43 -593c-93,91 -50,-63 -91,177 -63,378 43,108 22,437 -105,-89 -107,-123 -115,-291 -10,-202 -63,-220 -21,-310 18,-4 263,-8 291,-4 30,114 24,425 -5,560zm-163 100c94,64 4,28 124,42 -59,322 -42,138 29,174 12,-195 131,-136 251,-262l49 57c67,64 -58,-9 39,29 14,-32 -10,-185 -20,-212 -29,-78 66,-5 -76,-96 -60,-39 4,-18 -110,-38 3,-4 6,-17 7,-14l53 -118c156,104 27,59 155,66 -44,-281 7,-283 -240,-327 -181,-32 -253,-12 -432,-19l13 -547c-75,73 -84,-179 -77,431 1,55 -2,105 12,161l62 136 -75 165c96,104 51,105 109,265l-78 131 108 -49c8,-4 19,-10 26,-14 7,-4 17,-12 27,-16l44 55z"/>
   <path class="fil7" d="M6732 3354c27,-19 -55,-115 220,19 -47,62 9,22 -57,64 -178,113 -163,-83 -163,-83zm310 -139c-54,-126 -1,-159 -99,-259 -109,-111 -311,-136 -426,1l65 331c2,307 -96,233 -12,322 128,135 451,-43 523,-88 37,-219 6,-176 -51,-307z"/>
   <path class="fil7" d="M15941 3486c0,722 607,375 446,205 -68,-72 -86,49 -230,54 -28,-56 -45,-72 -57,-159 151,-121 370,29 352,-210 -98,-45 -233,-33 -324,-5 -35,-127 -17,-135 1,-267l184 -34c7,-3 17,-8 25,-14 -17,-118 15,-116 -133,-144 -137,-26 -151,-23 -202,82 -42,89 -62,388 -62,492z"/>
   <path class="fil7" d="M15342 16370c-127,203 236,972 408,396 123,81 161,178 332,137 59,-113 165,-445 67,-587 -173,26 -80,103 -148,336l-18 41c-1,-4 -6,14 -10,19 -97,-88 -229,-478 -367,53 -228,-178 -34,-368 -264,-395z"/>
   <path class="fil7" d="M12782 3093c99,6 110,32 165,95 -1,149 -42,257 -170,296l5 -391zm-121 593c242,37 469,-237 438,-492 -31,-263 -325,-364 -557,-273 -25,277 67,-12 85,235 0,181 -14,387 34,530z"/>
   <path class="fil3" d="M15054 15148c51,-238 -69,-306 -40,-873 103,107 47,-13 53,141 12,275 52,132 54,253 0,8 -1,18 -2,25 0,0 -25,68 -30,77 161,-67 122,-127 164,-47l134 -27c1,65 76,-9 90,-20 9,-7 19,-22 27,-33 -85,-8 -125,-20 -198,-28l-146 -36c-106,-80 4,47 -37,-46 77,-32 373,-30 450,20 140,89 50,169 325,237 -85,-246 83,18 -121,-134 -141,-105 -82,-240 -478,-210l-35 -196c0,0 -24,-50 -32,-72 -36,-99 -22,-177 -40,-232l-53 -130c-11,-38 -23,-107 -32,-157 -30,-151 -5,-170 -47,-333 -6,8 -11,19 -14,27 -2,8 -9,18 -12,28 -35,130 54,513 143,788 -68,42 -148,0 -205,124 -39,86 -29,200 -19,298 19,170 33,428 101,556z"/>
   <path class="fil7" d="M19508 12417c15,-169 0,-83 -273,-331 34,-153 230,-172 109,-364 -96,-140 -346,-38 -431,9l125 631c111,-15 76,-56 193,-78 47,70 158,201 277,133z"/>
   <path class="fil7" d="M2931 2894c-89,94 -109,216 -163,345 -34,79 -142,249 -150,331 -9,86 9,125 90,95 92,-33 22,-69 141,-112 218,-78 159,108 346,103 77,-142 -40,-267 -85,-404 -69,-214 23,-330 -179,-358z"/>
   <path class="fil7" d="M19579 3718c-77,-190 -281,15 -175,-217 50,-109 48,-31 155,-81 44,-20 77,-24 65,-94 -21,-121 -171,-52 -283,-43 -125,10 -227,-33 -296,71 33,190 9,47 120,110 4,2 104,-39 70,115 -39,170 11,21 -110,94 -102,61 -60,-36 -84,111 71,93 72,59 195,51 8,167 0,339 199,294l-42 -279c98,-78 136,-29 186,-132z"/>
   <path class="fil3" d="M15822 15543c10,-101 44,-205 71,-274 257,-635 77,-206 55,-869 -12,-363 227,-915 84,-1154 -286,57 -198,618 -323,843 -137,-158 23,-894 -114,-913 -19,228 -51,856 114,1017l79 -196c49,-149 34,-108 126,-157 -85,-33 -129,38 -65,-195 19,-70 64,-152 124,-80 37,43 37,89 18,220 -35,230 -37,162 -155,140l105 80c-52,209 -55,406 -23,625l10 56c121,578 -151,358 -163,991 5,-9 14,-32 16,-27l41 -107z"/>
   <path class="fil4" d="M5911 9484c-43,38 -46,75 -50,185 -16,501 195,513 206,1260 88,36 81,122 88,-251 1,27 -50,-48 4,57 43,82 -56,26 54,48 2,-3 2,-13 2,-10l10 -39c19,-54 11,-13 36,-78 -243,-172 -57,-29 -216,-451 -82,-219 -108,-293 -51,-486 -63,-229 -54,-117 44,-167 12,136 -12,189 35,304 62,-30 31,-21 47,-48 3,-5 8,-14 11,-20 126,-223 -36,-201 137,-348 -11,-47 -13,-17 4,-53l139 65c112,74 38,-25 69,154 10,57 -27,61 14,99l4 -132c-33,-103 -13,-64 -76,-122l-64 -74c-72,-93 4,-21 -86,-102 -107,64 -40,-22 -93,132l-168 -43 -100 120z"/>
   <path class="fil7" d="M2823 7304c159,-35 185,42 242,-113 -75,-106 -261,-96 -339,-60 -101,96 -17,-11 -61,121 -195,577 91,755 236,689 205,-162 171,-473 -151,-397l73 -240z"/>
   <path class="fil7" d="M9698 11883c127,1 201,59 271,121 16,327 -195,242 -313,113l42 -234zm414 303c56,-180 -41,-365 -191,-413 -198,-64 -335,-95 -400,147 -128,474 471,651 591,266z"/>
   <path class="fil7" d="M12819 11756c112,-65 119,-9 134,0 -53,50 76,24 -61,39 -91,10 -29,-4 -73,-39zm18 620c43,-120 17,-224 8,-356 108,-85 107,-16 296,-178 -10,-190 -66,-256 -220,-288 -515,-106 -259,278 -252,310 53,246 -44,522 168,512z"/>
   <path class="fil7" d="M19434 16453c42,-143 164,-231 115,-369 -188,-25 -110,65 -235,205 -18,-19 -12,-15 -40,-55 -8,-11 -17,-34 -38,-56 -62,-65 -23,-49 -121,-48 -57,131 32,211 84,323 -138,230 -209,119 -195,319 169,59 188,-72 310,-168 164,65 154,197 382,148 -13,-238 -51,-64 -262,-299z"/>
   <path class="fil7" d="M2550 12001c-147,-105 -64,-197 -261,-174 0,1 -34,542 -32,548 179,39 113,-25 176,-210 355,115 132,-23 322,-103 76,141 51,293 227,281 30,-166 -114,-462 -198,-534 -191,18 -106,77 -234,192z"/>
   <path class="fil7" d="M6430 7687c83,115 47,171 164,242 7,-5 15,-13 18,-17l70 -123c370,-15 133,88 363,99 44,-156 77,-552 -99,-608 -30,43 -21,12 -38,80 -17,70 -6,29 -7,95 -1,43 8,83 5,157l-254 3c-25,-184 34,-224 -87,-292 -103,55 -37,-4 -135,364z"/>
   <path class="fil7" d="M16188 7555c56,-151 197,-78 178,-279 -143,-73 -134,8 -246,74 -68,-132 28,-172 -147,-153 -73,141 -25,512 19,634 84,-12 114,-51 157,-84 92,63 245,210 379,106 -15,-216 -80,-35 -340,-298z"/>
   <path class="fil7" d="M12895 7637l2 415c-180,58 -279,-9 -373,39 5,279 412,180 491,58 74,-115 59,-570 -31,-704 -130,-17 -140,3 -257,51 -107,44 -133,28 -108,190l276 -49z"/>
   <path class="fil7" d="M10564 3667c-174,-61 -452,5 -463,-245 -14,-321 271,-308 324,-399 -23,-58 30,-57 -83,-96 -42,-14 -89,-2 -127,14 -382,156 -394,952 249,871 100,-13 112,-34 100,-145z"/>
   <path class="fil4" d="M2334 18918c-25,142 -64,96 -90,-28l90 28zm0 0c-42,-90 64,-109 -77,-61 -66,159 -22,-12 -30,176 -34,51 -152,105 -68,173 -37,70 -4,5 -1,2l62 -60c-17,108 -34,96 2,192 3,8 158,309 333,153 -118,-40 -120,-19 -215,-124 -6,-7 -25,-29 -31,-35l-32 -37c35,-167 91,-98 49,-251l194 24c69,-122 24,51 59,-154l88 41c6,0 29,-5 38,-9 -18,-100 -25,-84 -52,-158 -127,-345 31,-355 -191,-430 -44,179 -46,322 -30,540 -49,47 -44,8 -98,18z"/>
   <path class="fil7" d="M6563 16057c188,-22 384,65 366,-150 -133,-60 -307,-35 -452,-33 -175,2 -319,-53 -324,149 85,48 139,26 247,24 23,434 -50,534 136,536 57,-104 18,-291 27,-526z"/>
   <path class="fil7" d="M7265 20695c-66,-102 -336,-146 -439,-75 20,71 -120,99 264,170 -24,53 -412,412 239,337 18,-2 160,-20 167,-23 120,-50 58,16 72,-120 -110,-93 -207,-30 -348,-15 9,-146 138,-114 45,-274z"/>
   <path class="fil7" d="M2695 16552c25,-271 -167,-198 -237,-360 -91,-213 195,-89 221,-302 -78,-61 -146,-63 -246,-4 -249,147 -150,368 1,532l-163 101c17,235 338,122 424,33z"/>
   <path class="fil7" d="M6798 11818c-52,72 -8,62 -86,136 -177,-98 -130,-145 -193,-342 -237,17 -154,56 -161,238 -7,173 -99,198 -40,375 132,-26 64,26 151,-154 25,-53 14,-31 37,-62 7,5 15,12 19,15 4,4 14,12 19,16 134,114 217,199 350,-48l36 -219c-82,-29 -106,9 -132,45z"/>
   <path class="fil3" d="M11801 15117c75,-208 -4,-223 -2,-360 2,-112 3,-59 25,-106l62 148c3,7 8,19 13,28l19 -59c8,-95 -14,-135 -59,-183 -43,-44 2,2 -31,-26l-30 -25c9,-40 14,-72 36,-100 74,-101 47,-59 146,-98 5,122 20,174 31,271 6,56 1,59 4,100 1,7 1,16 2,22 1,7 2,17 3,23 1,10 13,60 16,80l-140 29c-5,1 -16,0 -23,4 9,5 25,-6 30,10 28,98 20,-16 48,30 42,68 56,-48 13,123 6,-10 13,-38 17,-32 8,11 20,-69 94,-119 109,70 33,0 88,108 220,-356 67,-289 117,-368 88,91 25,47 62,139 68,171 26,86 130,133 -10,-44 -73,-236 -91,-272 -53,-110 -121,-121 -189,-142l27 228c-10,182 -12,97 -56,162 -93,-64 -38,100 -73,-152 -19,-139 26,-117 -69,-304 -4,-8 -9,-17 -12,-24l-32 -54c-4,-17 -12,-19 -19,-28 8,-10 15,-29 18,-35l26 -60 -181 140c-166,152 -69,572 -20,769z"/>
   <path class="fil7" d="M19099 8090c-4,-231 104,-402 70,-565 -164,-4 -159,94 -198,269 -30,133 -48,261 -20,403 102,183 477,-14 458,-186 -152,-66 -183,31 -310,79z"/>
   <path class="fil1" d="M15781 4953l179 659c52,124 38,3 101,237l69 -37c138,-69 125,-51 19,-201 -80,20 -50,65 -98,85 11,-94 30,-58 6,-124l-74 -68c92,-85 70,-90 -9,-431 -30,-132 -90,-315 -150,-392 -101,20 43,-114 -77,93 -6,9 -11,24 -18,35 -10,-160 -31,-54 21,-185l107 20c-51,-65 51,-43 -89,-65 -81,107 -74,280 13,374z"/>
   <path class="fil7" d="M10074 16562c-246,-20 -34,332 -336,257 -225,-57 -53,-311 -271,-337 -108,185 66,482 263,514 242,39 413,-157 344,-434z"/>
   <path class="fil4" d="M15387 14697c-40,147 -216,162 -242,267 54,12 80,-21 175,-54 6,156 -31,234 38,317l30 -327c54,50 117,61 88,326 -23,222 -98,46 -71,234 119,50 -55,-80 70,3l25 25c30,47 18,23 15,62 8,-5 21,-18 26,-10l133 -42c-93,-51 -149,-96 -183,-308 -13,-81 -16,-108 25,-176 121,-7 63,248 256,116 -30,-115 107,83 -51,-50 -58,-48 -37,66 -50,-59 -39,-30 -40,-149 -42,-160l-9 -56c-56,-164 -56,28 -116,-161 -8,11 -18,26 -27,33 -14,11 -89,85 -90,20z"/>
   <path class="fil7" d="M12385 16668c-93,-163 -28,-241 -200,-191 -25,171 134,467 242,537 153,-58 252,-445 249,-515 -188,-57 -146,81 -249,224 -20,-22 -19,-14 -42,-55z"/>
   <path class="fil7" d="M2227 20745c-107,-75 -81,-133 -219,-104 -45,145 59,140 83,282 22,137 2,241 42,364l108 -16 17 -287c150,-129 207,-145 202,-297 -178,-25 -90,30 -233,58z"/>
   <path class="fil0" d="M17622 22163c168,-15 341,5 350,-222 9,-234 -173,-260 -356,-226l6 448z"/>
   <path class="fil3" d="M6335 1601c194,218 238,38 318,219 -75,99 82,39 -73,20l-96 225 118 -123c-1,172 3,114 57,260 147,-60 -20,-68 129,-39 62,12 -8,30 43,0 -35,-45 -4,-13 -40,-48 -137,-130 14,-93 -103,-13 -4,3 -15,11 -24,14 -34,-270 -11,-208 56,-310 5,-6 10,-14 14,-20 90,-141 62,-45 66,-183 -238,65 -144,27 -359,11l95 -89c90,40 48,27 144,29 21,0 77,-1 92,-3 96,-18 58,-6 115,-49 -89,-72 -62,-65 -324,-54 -82,3 -76,-9 -133,25l-95 128z"/>
   <path class="fil3" d="M5994 9719l-9 184c137,88 99,45 306,26 -29,134 -86,181 -48,263 36,-68 58,-178 95,-244 4,-9 20,-32 26,-39 64,-85 54,-17 130,-204 -41,-38 -4,-42 -14,-99 -31,-179 43,-80 -69,-154l-23 284 -57 68c-3,-19 12,-33 -9,-37 0,0 -83,29 -73,31l19 -358c-173,147 -11,125 -137,348 -3,6 -8,15 -11,20 -16,27 15,18 -47,48 -47,-115 -23,-168 -35,-304 -98,50 -107,-62 -44,167z"/>
   <path class="fil1" d="M9490 14370c334,132 80,2 296,139 84,54 13,35 117,35 -64,-229 -51,-299 -95,-529l-117 6c-29,187 78,228 -145,255l49 -64c38,-81 39,-156 -11,-237 -106,40 -58,9 -94,395z"/>
   <path class="fil1" d="M9806 5773l35 3c29,-135 35,-446 5,-560 -28,-4 -273,0 -291,4 -42,90 11,108 21,310 8,168 10,202 115,291 21,-329 -85,-59 -22,-437 41,-240 -2,-86 91,-177l-43 593c97,-14 5,7 89,-27z"/>
   <path class="fil1" d="M15988 1038c-12,-348 37,-518 -171,-556 -72,236 32,60 62,395 12,143 12,59 -21,223 5,-2 120,-54 122,-54 10,-3 16,-4 26,-7l108 -19c-26,-163 90,-291 24,-511 -357,-200 106,245 -150,529z"/>
   <path class="fil3" d="M19349 1557l-114 11 21 89c-36,42 -110,101 -156,135 -107,79 16,42 -138,38 -50,161 -143,262 -143,261 -4,-6 -14,19 -21,28 113,-40 222,-162 273,-262 98,21 64,11 126,80 4,-7 7,-18 10,-22l128 -71c-19,157 -17,323 121,254 -94,-49 -78,-15 -95,-166 44,-11 -41,-55 115,63l-21 -281c-29,-69 -69,-31 -106,-157z"/>
   <path class="fil3" d="M15060 13327c123,32 120,102 212,403 27,88 39,151 59,242 40,184 45,175 115,228l35 -95c2,-9 2,-20 3,-30 0,-9 -10,-86 -11,-93 -5,-61 -8,-187 -6,-275 3,-215 1,-311 64,-514l64 -17c-39,-39 94,-65 -91,-34 -119,140 -127,678 -73,875 -68,-43 -103,-507 -310,-731l-61 41z"/>
   <path class="fil1" d="M16235 5405c66,10 -7,-77 82,32 22,-112 17,-150 12,-264 -7,-146 23,-303 5,-531 0,-4 -20,-112 -22,-115 -46,-83 -7,-32 -75,-53 -58,99 -23,319 -27,468 -7,230 -5,261 25,463z"/>
   <path class="fil2" d="M9265 9902c-25,241 262,186 387,193 35,-154 -8,-221 -79,-311 -213,-21 -195,18 -308,118z"/>
   <path class="fil8" d="M17636 20258c-282,94 -219,-247 -13,-169l13 169zm-4 -242l-187 -31c-281,503 265,360 271,359l7 -421c-17,-223 7,-64 -50,-128 -59,94 -23,22 -41,221z"/>
   <path class="fil8" d="M15853 20091c237,-105 118,177 116,184l-126 -7c-43,-122 -45,-85 10,-177zm154 269c158,-196 104,-425 -189,-357 3,-146 38,-154 -50,-209 -33,58 -16,-17 -26,69 -15,117 -35,447 59,485 32,13 162,16 206,12z"/>
   <path class="fil1" d="M6009 13820c65,134 116,112 121,319 3,123 -15,204 -4,329 107,-40 104,4 140,-176 93,-480 -165,-539 -257,-472z"/>
   <path class="fil8" d="M15477 20006l35 140 -112 -16 77 -124zm-227 347c166,-148 99,-117 284,-121 85,101 12,92 147,119 -15,-85 -162,-457 -206,-546 -93,59 -207,423 -225,548z"/>
   <path class="fil8" d="M16848 20091c39,-40 115,-24 140,16 74,118 -17,160 -18,161 -152,54 -192,-103 -122,-177zm160 -80l-191 -36c-100,152 -150,254 36,401 114,-13 86,-35 231,-25 -6,-244 38,-495 -56,-554 -36,83 -19,101 -20,214z"/>
   <path class="fil8" d="M18832 20347c182,-31 -1,-76 131,-280 37,50 25,-3 45,91 42,189 -63,160 72,189 35,-92 5,-68 16,-158 21,-179 -4,-96 72,-120 88,118 -10,149 59,273 60,-25 49,33 59,-116 4,-70 -6,-144 -21,-211l-432 -4 -1 336z"/>
   <path class="fil3" d="M13072 6902c11,-167 -45,-211 -115,-270 -135,-114 -294,-189 -296,-239 165,59 120,55 188,4 -95,-75 -236,-110 -338,-153 -36,-259 21,-197 -58,-228 -152,-58 19,-82 -45,33 75,208 90,364 300,490 405,243 237,288 364,363z"/>
   <path class="fil3" d="M6625 18465l100 11c69,-125 1,-64 56,-242 -34,-17 -79,-21 -111,-81 -55,-103 -22,-122 12,-179l-29 -37c-3,-3 -11,-12 -15,-17 -3,-4 -11,-11 -14,-16 -21,-30 -30,-36 -44,-83 -23,-76 -8,-176 -6,-258 64,36 99,-17 131,204l41 -3c-7,-81 -25,-8 20,-123 28,-72 10,45 40,-107 -56,-30 -62,-33 -127,-23 -79,12 -79,4 -141,34 -73,250 91,533 154,798l-67 122z"/>
   <path class="fil8" d="M16451 20102c132,-120 182,120 94,174 -71,44 -220,-59 -94,-174zm-64 248l278 -3 1 -344c-91,-1 -218,-57 -292,9 -109,98 -47,257 13,338z"/>
   <path class="fil8" d="M18045 20273c-163,31 -182,-62 -107,-201l119 16c22,81 20,108 -12,185zm108 61l1 -324 -278 -28c-42,93 -113,193 -39,315 64,106 191,67 316,37z"/>
   <path class="fil8" d="M18502 20096c115,-107 189,10 133,186 -142,-2 -161,-17 -133,-186zm-87 -29l-20 203c143,153 171,83 352,71l0 -309c-105,-38 -165,-56 -279,-31l-53 66z"/>
   <path class="fil1" d="M6588 9681c66,-128 -15,-45 100,-82l-13 119c96,10 46,-29 80,20l-1 -18c-101,-52 -59,92 -64,-145 0,-26 17,-102 17,-169 0,-91 -20,-184 -13,-263 -103,-80 -7,17 -55,-3 -91,-36 34,49 -30,-26 -184,-217 129,98 -44,-60 -26,38 -55,60 -73,80 92,52 73,150 73,240 -127,-62 -33,17 -81,-65 -63,-107 5,-11 -13,-65 -30,-87 -1,-49 -111,-90 33,70 67,109 59,178l147 37 22 312z"/>
   <path class="fil1" d="M3137 1263l109 -63c24,-302 161,-514 -168,-553 5,157 72,94 69,292 -3,134 -66,207 -10,324z"/>
   <path class="fil2" d="M9656 12117c118,129 329,214 313,-113 -70,-62 -144,-120 -271,-121l-42 234z"/>
   <path class="fil0" d="M17620 21442c340,-52 342,-339 6,-381l-6 381z"/>
   <path class="fil7" d="M9686 7436c-37,108 -25,181 -11,320 13,134 4,147 114,163 61,-103 38,-198 29,-333 -11,-173 -12,-192 -132,-150z"/>
   <path class="fil1" d="M5775 13949l28 143c144,-7 -1,-5 132,-49 36,370 19,311 131,378 -25,-126 -37,-184 5,-350l-49 -48c-105,-136 20,-53 -148,-136l-47 -24 -52 86z"/>
   <path class="fil1" d="M6890 364c-17,-127 2,-59 -42,-81l-130 27c0,94 2,218 8,300 14,178 18,82 74,196 47,-49 86,1 66,-232 -8,-98 -46,-148 24,-210z"/>
   <path class="fil2" d="M16323 12054c-43,-129 -64,-102 -31,-239 153,1 85,53 200,65 17,-177 17,-80 -29,-147 -5,-8 -36,-44 -42,-50 -170,-167 -419,346 -98,371z"/>
   <path class="fil1" d="M12853 10954c71,-67 45,-96 34,-224 -8,-81 -9,-146 -29,-221l-17 125c-140,-174 -5,-158 -92,-340l-70 141c43,137 97,343 84,484 94,-38 114,61 79,-111l11 146z"/>
   <path class="fil1" d="M16235 609c-39,101 -22,190 -39,286 -22,123 -91,116 27,209 109,-60 89,42 111,-409 -63,-33 -32,15 -57,-71 23,20 -15,33 39,41l71 -41c-96,-69 -66,-70 -152,-15z"/>
   <path class="fil1" d="M2089 13688l-67 118c43,107 24,216 59,370 202,-20 119,-328 98,-380l-74 -111c-4,-17 -14,-18 -21,-26l71 -26 -66 55z"/>
   <path class="fil1" d="M2871 741c116,222 82,-63 96,581 145,-93 52,-13 82,-208 12,-82 35,-109 41,-241 -67,-99 -75,-189 -219,-132z"/>
   <path class="fil3" d="M19314 5813c-51,40 -27,-67 -52,88 107,140 142,81 241,48 62,-21 34,-3 72,-14 176,-50 40,-68 267,-100 -53,210 -21,65 -90,203l80 -16c242,-462 -308,-107 -494,-121l-24 -88z"/>
   <path class="fil4" d="M15973 1340l-90 -12c23,108 16,101 -50,168 5,6 13,7 16,17 3,11 14,14 18,17l114 164c53,-127 -18,-89 80,-258 -41,129 -36,14 -30,133 7,161 10,52 30,98 61,-92 59,-68 57,-231 -10,-5 -23,-22 -29,-14l-87 -58c-9,-7 -19,-16 -29,-24z"/>
   <path class="fil4" d="M9831 6092c-71,-36 -88,148 -29,-174 -120,-14 -30,22 -124,-42l-129 157c-5,5 -14,13 -18,17 -4,4 -13,11 -19,16 83,62 -25,25 73,32 2,0 108,-17 112,-18 -31,110 -39,61 -3,152 42,11 58,7 58,7 4,2 22,24 28,26 4,1 14,4 18,4l33 -177z"/>
   <path class="fil9" d="M11793 5352c-124,-3 -118,34 -129,-71l-40 58c41,120 34,-21 67,170 11,65 17,135 24,210 142,-20 76,-19 214,6 120,-172 91,9 138,-209 -190,57 -59,78 -291,120 -3,-105 -14,-93 -30,-198 5,-7 13,-18 15,-22l32 -64z"/>
   <path class="fil1" d="M15964 10164l-146 11c0,131 14,69 -24,140l199 13c114,-252 42,-20 117,-325 -8,-6 -21,-20 -24,-12l-76 -35c-112,-67 49,-57 -37,-20l-9 228z"/>
   <path class="fil10" d="M12046 5511c105,-83 10,1 66,-130 18,-42 48,-73 74,-109l17 -365c-12,-75 -15,-48 -40,-89 -56,87 -14,-85 -46,121 -1,2 -2,94 -3,104 -6,192 -140,338 -68,468z"/>
   <path class="fil1" d="M9542 13900c99,-22 122,-91 81,-206l-58 -86c7,-6 17,-24 20,-19 2,6 14,-14 17,-19l45 -139c13,-172 6,-123 -63,-171 -53,173 -90,449 -42,640z"/>
   <path class="fil1" d="M9772 13707c-66,128 -83,63 -80,247 57,-40 -41,-9 62,-17 129,-9 -10,20 56,2 26,-290 45,-420 -80,-544 -59,167 -60,216 42,312z"/>
   <path class="fil4" d="M12877 1733c-110,-48 -57,30 -98,-99l-25 0c14,168 43,-170 -16,87 -27,121 -73,19 -223,145 9,3 20,1 27,12l149 -12c-75,126 -72,115 -59,165l146 -165c3,130 -21,132 61,102l8 -35c-4,-103 -42,-118 30,-200z"/>
   <path class="fil1" d="M6268 9440l-19 358c-10,-2 73,-31 73,-31 21,4 6,18 9,37l57 -68 23 -284 -139 -65c-17,36 -15,6 -4,53z"/>
   <path class="fil2" d="M12777 3484c128,-39 169,-147 170,-296 -55,-63 -66,-89 -165,-95l-5 391z"/>
   <path class="fil1" d="M6624 758l57 -511c-16,-198 0,-86 -87,-120 -3,9 -10,12 -11,27l-6 289c3,349 -35,246 47,315z"/>
   <path class="fil1" d="M6760 9173l97 305c-128,156 -13,172 -8,177 6,-9 46,-2 64,-151 13,-106 -12,-83 -11,-208 44,32 0,4 45,37 91,67 -34,35 16,8 -19,-46 -30,-114 -64,-151 -15,-16 -111,-45 -139,-17z"/>
   <polygon class="fil1" points="2660,13721 2810,13782 2827,13430 2671,13451 "/>
   <path class="fil11" d="M6788 17941l40 108 8 -76c53,62 -55,27 85,73 50,16 42,3 79,0 196,-16 68,20 178,-72l-77 -41c-9,-2 -18,1 -26,1 -15,0 -10,91 -49,14 -4,-8 -15,8 -24,10l-56 -145 -158 128z"/>
   <path class="fil1" d="M19424 1003l-111 36c2,183 -18,91 89,165 -6,6 -14,12 -18,15 -108,107 -103,342 5,211 70,-86 47,-315 35,-427z"/>
   <path class="fil1" d="M2223 18541c-21,191 74,125 85,128 -13,177 -53,-20 -76,174l83 14c14,-25 24,4 39,-110l-6 -304 -91 11c-42,82 -17,-72 -34,87z"/>
   <path class="fil8" d="M18259 20349c109,-57 67,-489 30,-555 -86,56 -53,128 -50,264 3,109 -9,219 20,291z"/>
   <path class="fil1" d="M6414 13370c5,5 200,131 233,106 71,-53 27,-12 42,-114 -60,-80 8,-71 -124,-81 -222,-18 -95,41 -151,89z"/>
   <path class="fil8" d="M16208 20511c58,-105 61,-408 0,-509 -84,67 -83,443 0,509z"/>
   <path class="fil6" d="M2614 1230c-28,-82 -47,-101 -94,-180 -65,82 -6,90 29,217 27,100 19,145 49,250l206 61c-45,-89 -22,-123 -146,-77l-44 -271z"/>
   <path class="fil5" d="M2784 5452l47 35c-54,22 -133,-16 -94,142 19,78 55,81 77,103 16,-31 126,85 -1,-165 96,8 90,53 160,-131 -117,-5 24,6 -77,37 -42,12 -35,-6 -112,-21z"/>
   <path class="fil0" d="M16970 20268c1,-1 92,-43 18,-161 -25,-40 -101,-56 -140,-16 -70,74 -30,231 122,177z"/>
   <path class="fil1" d="M6653 1083c28,-34 28,9 46,-77 0,0 4,-99 4,-101 -20,-188 -30,-112 -96,-146 -29,81 -29,61 -18,182 19,212 1,106 64,142z"/>
   <path class="fil0" d="M15853 20091c-55,92 -53,55 -10,177l126 7c2,-7 121,-289 -116,-184z"/>
   <path class="fil0" d="M16451 20102c-126,115 23,218 94,174 88,-54 38,-294 -94,-174z"/>
   <path class="fil0" d="M18502 20096c-28,169 -9,184 133,186 56,-176 -18,-293 -133,-186z"/>
   <path class="fil0" d="M17636 20258l-13 -169c-206,-78 -269,263 13,169z"/>
   <path class="fil0" d="M18045 20273c32,-77 34,-104 12,-185l-119 -16c-75,139 -56,232 107,201z"/>
   <path class="fil2" d="M6732 3354c0,0 -15,196 163,83 66,-42 10,-2 57,-64 -275,-134 -193,-38 -220,-19z"/>
   <path class="fil1" d="M2425 13608c43,42 -12,28 108,-16l-87 113 133 9c32,-139 -2,-173 -88,-220 -43,34 -64,2 -66,114z"/>
   <path class="fil1" d="M15944 5901c21,-40 119,83 22,-129 -43,-92 -167,-79 -122,61 37,116 -44,40 100,68z"/>
   <path class="fil1" d="M15637 691c0,7 0,11 1,20 0,9 1,16 2,19 1,4 4,16 6,20l57 97c4,7 7,16 10,22l91 39 -13 -176c-92,-26 -62,3 -66,46 -13,-88 -2,-86 -44,-95l-44 8z"/>
   <path class="fil12" d="M16264 10693c3,142 -63,103 111,101l-2 -158 -57 -26 -52 83z"/>
   <path class="fil1" d="M9965 5404c17,-11 31,-9 71,-52l46 -62c4,-5 10,-17 16,-25 -105,-16 -67,-35 -170,7l37 132z"/>
   <path class="fil2" d="M2686 10159c54,-73 33,-37 47,-156l-94 0 -32 132 79 24z"/>
   <path class="fil12" d="M2784 10183c75,-38 103,-91 90,-220 -85,47 -125,125 -90,220z"/>
   <path class="fil7" d="M12285 4743c-52,-53 94,-67 -90,-47 -93,10 -18,1 -69,59 112,50 69,62 159,-12z"/>
   <path class="fil10" d="M7085 17806c-12,-114 11,-89 -80,-121 -60,133 -11,106 0,134l80 -13z"/>
   <path class="fil6" d="M11664 5281c11,105 5,68 129,71 -24,-80 -37,-81 -105,-119l-24 48z"/>
   <path class="fil8" d="M6588 9681l-2 52 89 -15 13 -119c-115,37 -34,-46 -100,82z"/>
   <path class="fil12" d="M15908 5967c41,99 -48,46 109,82 -12,-62 20,-58 -31,-98 -77,-62 -76,15 -78,16z"/>
   <path class="fil12" d="M12941 1541c95,-11 123,-43 179,-72 -114,-45 -122,-41 -179,72z"/>
   <path class="fil8" d="M16176 19958c104,-63 96,-29 32,-135 -76,54 -78,31 -32,135z"/>
   <path class="fil12" d="M9965 5840c145,-134 37,-99 29,-122 -146,60 -30,119 -29,122z"/>
   <path class="fil12" d="M2059 18986c122,-9 88,-25 106,-86 -92,-43 -98,-25 -106,86z"/>
   <path class="fil12" d="M6610 13601c110,10 45,12 96,-26l-44 -91c-61,67 -41,-74 -52,117z"/>
   <path class="fil12" d="M6321 14405c110,-30 77,11 99,-115 -106,29 -74,-22 -99,115z"/>
   <polygon class="fil13" points="15400,20130 15512,20146 15477,20006 "/>
   <path class="fil12" d="M3137 1263c-2,6 -18,82 -24,102 126,-12 40,36 102,-62 -37,-39 44,-13 -78,-40z"/>
   <path class="fil12" d="M9454 14771l-71 -3c6,68 -3,50 20,95l83 -20 -32 -72z"/>
   <path class="fil8" d="M12819 11756c44,35 -18,49 73,39 137,-15 8,11 61,-39 -15,-9 -22,-65 -134,0z"/>
   <path class="fil12" d="M9841 5776l-35 -3c-69,192 -6,78 12,118 44,-55 18,9 36,-60 30,-110 5,-15 -13,-55z"/>
   <path class="fil12" d="M6483 6255c90,9 26,28 91,-23 -41,-74 38,-35 -89,-71l-2 94z"/>
   <path class="fil12" d="M6754 9720l1 18c33,57 -37,43 60,47l18 -47c-16,-75 2,-22 -33,-71 -45,35 -14,-3 -46,53z"/>
   <path class="fil12" d="M18807 6199c86,74 -104,46 44,32 72,-7 25,2 71,-32 -105,-133 -63,-38 -115,0z"/>
   <polygon class="fil12" points="2257,9949 2338,9989 2335,9888 2273,9881 "/>
   <path class="fil2" d="M2334 18918l-90 -28c26,124 65,170 90,28z"/>
   <path class="fil12" d="M18992 6204c66,-52 55,-28 29,-117 -41,47 -20,-46 -38,56 -9,51 -1,25 9,61z"/>
   <path class="fil12" d="M18787 10164c31,-103 41,-29 -29,-83 -28,86 -33,51 29,83z"/>
  </g>
 </g>
</svg>
