<?xml version="1.0" standalone="no"?>
<!DOCTYPE svg PUBLIC "-//W3C//DTD SVG 20010904//EN"
 "http://www.w3.org/TR/2001/REC-SVG-20010904/DTD/svg10.dtd">
<svg version="1.0" xmlns="http://www.w3.org/2000/svg"
 width="746.000000pt" height="735.000000pt" viewBox="0 0 746.000000 735.000000"
 preserveAspectRatio="xMidYMid meet">

<g transform="translate(0.000000,735.000000) scale(0.100000,-0.100000)"
fill="#000000" stroke="none">
<path d="M2137 7116 c-4 -9 -14 -12 -26 -9 -23 6 -36 -14 -46 -74 -4 -29 -14
-47 -31 -58 l-25 -16 3 -232 c3 -224 4 -234 28 -282 15 -31 33 -51 45 -54 18
-3 17 0 -7 25 -31 35 -48 90 -48 162 0 47 3 54 25 62 23 9 55 4 55 -8 0 -3 -7
-13 -16 -23 -9 -10 -14 -24 -12 -31 3 -8 12 1 22 20 12 23 22 32 32 28 9 -3
22 -6 29 -6 8 0 11 -7 8 -20 -3 -11 -1 -20 5 -20 14 0 52 54 52 74 0 15 -3 15
-27 3 -21 -11 -37 -12 -63 -4 l-35 10 30 7 c52 13 95 11 121 -6 32 -21 41 -12
18 18 -16 22 -25 24 -95 24 -71 -1 -79 -3 -103 -28 -31 -35 -42 -35 -50 -2 -8
29 1 65 18 77 8 5 6 10 -4 17 -12 8 -13 13 -3 29 8 13 9 22 3 26 -14 9 -12 52
3 59 10 5 10 7 0 12 -18 8 -17 64 1 64 19 0 26 -48 19 -125 -4 -46 -2 -65 6
-65 6 0 11 4 11 8 0 5 10 14 23 20 20 10 21 11 2 11 -18 1 -20 7 -17 51 3 37
8 50 20 50 8 0 13 2 11 4 -2 2 -8 4 -13 4 -13 1 -36 60 -30 77 3 7 12 11 20 8
8 -3 14 0 14 6 0 6 -7 11 -15 11 -18 0 -19 9 -5 46 16 42 32 16 35 -58 2 -34
6 -98 10 -140 7 -72 9 -76 27 -67 13 7 23 7 31 1 8 -7 18 -6 31 4 27 20 36 18
36 -8 1 -13 7 -36 16 -53 l14 -30 -6 40 c-3 22 -9 92 -14 155 -8 122 -21 170
-44 170 -7 0 -21 11 -30 25 -18 27 -51 33 -59 11z m45 -28 c2 -13 2 -55 0 -95
-3 -56 -7 -71 -17 -67 -20 8 -19 184 0 184 8 0 15 -10 17 -22z m62 -40 c4 -16
-1 -28 -17 -41 l-22 -19 22 5 c21 5 22 1 25 -79 3 -72 1 -84 -14 -88 -10 -2
-18 1 -19 7 0 7 -2 23 -3 35 -2 13 3 26 11 29 7 3 10 9 7 14 -3 5 -9 7 -13 4
-10 -6 -21 44 -21 94 0 54 32 82 44 39z m-54 -183 c0 -33 -4 -45 -15 -45 -11
0 -15 12 -15 45 0 33 4 45 15 45 11 0 15 -12 15 -45z"/>
<path d="M4305 7064 c-8 -20 -15 -38 -15 -40 0 -2 -21 -52 -46 -111 -30 -71
-51 -137 -60 -193 -7 -47 -17 -110 -23 -140 -10 -60 -4 -147 11 -156 6 -4 7
17 3 53 -5 39 -1 88 10 148 9 50 21 114 26 144 11 68 48 151 68 151 11 0 12 3
4 11 -9 9 -8 19 3 40 8 16 19 29 24 29 19 0 20 -21 6 -75 -8 -30 -12 -55 -10
-55 2 0 -16 -18 -39 -39 -54 -51 -43 -63 14 -15 40 33 46 35 88 29 55 -8 76
-19 85 -41 5 -13 3 -14 -6 -7 -7 5 -34 16 -59 22 -40 11 -52 11 -82 -4 -19 -9
-43 -25 -53 -36 -15 -17 -15 -19 -1 -19 9 0 19 5 22 10 3 6 20 17 36 25 24 13
36 14 72 4 63 -18 70 -31 11 -24 -52 7 -98 -7 -132 -42 -26 -26 -4 -25 35 1
40 27 75 32 117 16 40 -15 31 -26 -20 -22 -35 3 -51 -1 -67 -15 -12 -11 -30
-23 -39 -26 -20 -7 -25 -27 -7 -27 8 0 9 -4 0 -13 -6 -8 -8 -17 -4 -21 4 -4 3
-10 -2 -14 -14 -10 -37 -63 -30 -70 3 -4 8 4 12 16 7 27 18 28 32 5 9 -15 10
-13 11 13 0 17 5 45 11 63 10 29 13 31 28 16 10 -8 21 -12 24 -8 4 3 7 1 7 -5
0 -7 5 -12 11 -12 6 0 8 9 4 20 -4 14 -2 20 9 20 8 0 19 7 24 16 7 12 14 14
26 7 16 -9 15 -13 -9 -41 -15 -18 -35 -32 -46 -32 -12 0 -19 -7 -19 -20 0 -29
-39 -102 -50 -95 -6 4 -10 -2 -10 -12 0 -11 -5 -24 -12 -31 -9 -9 -8 -16 5
-30 9 -10 17 -24 17 -30 0 -7 5 -12 10 -12 12 0 12 -2 0 39 -8 31 -6 40 20 81
17 26 30 51 30 56 0 6 20 30 45 54 69 68 83 142 37 197 -21 26 -39 35 -81 43
-30 6 -56 12 -58 14 -4 4 24 121 38 158 8 18 7 32 -1 47 -16 31 -38 25 -55
-15z m37 -3 c7 10 8 3 4 -20 -9 -52 -22 -57 -31 -11 -5 26 6 52 13 31 4 -11 6
-11 14 0z m58 -366 c-13 -16 -60 -21 -60 -7 0 15 13 22 43 22 25 0 28 -2 17
-15z"/>
<path d="M6450 7075 c-7 -9 -21 -13 -30 -10 -25 8 -38 -14 -42 -70 -2 -31 -8
-50 -15 -50 -7 0 -16 -4 -22 -10 -13 -14 -35 -384 -27 -465 6 -71 38 -176 44
-147 2 9 9 17 17 17 25 0 25 30 0 36 -14 3 -22 10 -19 16 3 5 -2 25 -11 44
-16 34 -19 67 -16 177 1 50 4 60 21 64 11 3 20 9 20 13 0 5 15 14 33 21 29 11
30 13 10 16 -22 4 -23 7 -22 151 0 143 8 188 27 167 5 -6 12 -29 15 -52 4 -38
3 -43 -15 -43 -11 0 -18 -5 -15 -12 2 -7 10 -13 18 -13 8 0 14 -6 13 -12 -1
-7 -2 -24 -2 -38 -1 -15 -8 -25 -17 -25 -8 0 -15 -4 -15 -10 0 -5 7 -10 15
-10 11 0 15 -12 15 -45 0 -41 2 -45 25 -45 14 0 25 5 25 10 0 6 -6 9 -12 8
-24 -5 -20 43 5 66 l25 23 6 -30 c3 -17 1 -36 -5 -43 -8 -10 -8 -18 -2 -26 13
-16 23 -108 13 -108 -5 0 -21 -11 -37 -24 -16 -14 -38 -24 -48 -23 -12 1 -21
-5 -23 -18 -2 -11 -11 -28 -20 -38 -31 -35 -5 -24 43 19 28 24 66 54 85 65
l35 21 -32 -34 c-43 -45 -42 -56 2 -22 l36 27 -7 -41 c-4 -28 -2 -47 6 -57 22
-26 30 -16 12 14 -9 16 -13 33 -9 38 5 4 13 0 18 -10 6 -9 15 -17 21 -17 7 0
7 4 1 13 -6 6 -13 20 -17 31 -5 14 -2 17 9 12 24 -9 17 11 -11 33 l-26 21 23
9 c33 12 43 -1 58 -76 14 -72 8 -101 -31 -162 -18 -29 -28 -57 -27 -80 l1 -36
13 42 c7 23 25 62 39 86 15 25 27 58 28 73 2 54 -14 129 -33 156 -14 20 -19
45 -19 91 0 68 -21 107 -59 107 -16 0 -19 13 -25 102 -4 56 -12 108 -18 115
-14 17 -33 16 -48 -2z m44 -57 c3 -29 6 -77 6 -105 0 -46 -3 -53 -20 -53 -17
0 -20 7 -20 40 0 22 5 40 10 40 6 0 10 7 10 16 0 8 -4 13 -9 9 -11 -6 -26 79
-16 94 16 27 32 9 39 -41z m-124 -129 c0 -12 -5 -19 -11 -17 -6 2 -10 7 -10
11 1 4 1 14 1 23 0 8 5 12 10 9 6 -3 10 -15 10 -26z m-6 -65 c10 -27 7 -44 -9
-44 -10 0 -15 10 -15 30 0 32 14 40 24 14z m206 -28 c0 -52 -16 -100 -30 -91
-16 10 -11 35 7 35 15 0 14 2 -3 15 -17 13 -17 14 -1 15 22 0 22 16 0 28 -19
11 -11 42 12 42 11 0 15 -11 15 -44z m-200 -65 c0 -18 -6 -31 -16 -35 -23 -9
-25 -4 -18 32 8 41 34 43 34 3z m200 -61 c-20 -13 -33 -13 -25 0 3 6 14 10 23
10 15 0 15 -2 2 -10z"/>
<path d="M5386 7023 c-3 -4 -21 -7 -39 -7 -22 -1 -35 -7 -41 -22 -5 -11 -19
-25 -30 -30 -55 -24 -70 -155 -36 -309 12 -55 23 -130 23 -167 2 -73 14 -92
19 -30 3 33 6 37 33 40 l30 4 -31 13 c-28 12 -31 18 -52 117 -23 112 -29 233
-11 258 9 12 10 10 6 -8 -4 -18 -2 -22 9 -18 17 7 18 -6 2 -22 -9 -9 -8 -12 5
-12 21 0 21 -8 0 -32 -18 -20 -4 -25 15 -6 9 9 12 6 12 -15 0 -22 5 -27 35
-33 35 -6 35 -7 20 -30 -8 -12 -11 -25 -6 -29 5 -3 12 1 14 7 3 7 6 -4 6 -24
1 -55 18 -46 23 12 6 59 12 68 33 50 9 -8 27 -15 41 -16 22 -2 24 -1 12 13 -7
9 -11 26 -10 37 3 17 1 19 -9 9 -18 -18 -39 -16 -39 2 0 20 -17 19 -29 -2 -9
-16 -12 -16 -21 -3 -18 27 -11 40 23 41 46 2 70 -2 83 -12 6 -5 13 -6 17 -3 3
3 12 -3 19 -15 7 -12 16 -21 20 -21 13 0 9 27 -6 39 -13 11 -11 57 3 66 4 2
13 -23 20 -56 25 -112 -5 -258 -53 -260 -12 0 -15 -3 -8 -6 17 -6 16 -53 -2
-53 -7 0 -30 11 -50 25 -20 13 -36 20 -36 15 0 -16 52 -50 76 -50 20 0 24 -5
24 -30 0 -16 5 -30 10 -30 6 0 10 23 10 52 0 35 8 68 27 106 34 69 40 147 19
228 -9 34 -16 79 -16 101 0 48 -23 83 -56 83 -14 0 -34 9 -46 20 -22 20 -49
26 -62 13z m53 -30 c10 -21 3 -121 -10 -129 -5 -3 -12 3 -16 12 -4 11 -2 19 6
22 7 2 8 8 3 15 -5 7 -12 24 -16 39 -3 14 -9 33 -12 42 -9 23 33 21 45 -1z
m-64 -24 c13 -24 14 -34 4 -45 -8 -10 -8 -14 0 -14 6 0 11 -10 11 -22 0 -12
-3 -18 -7 -15 -3 4 -12 2 -18 -3 -9 -8 -14 0 -19 32 -4 23 -12 48 -18 55 -13
16 -3 43 16 43 9 0 23 -14 31 -31z m155 -33 c0 -6 -7 -3 -14 7 -7 9 -19 17
-26 17 -9 0 -9 -4 -2 -13 8 -10 10 -78 3 -119 -2 -15 -41 -8 -41 7 0 8 8 15
18 15 14 0 14 2 3 9 -16 11 -10 83 10 107 10 13 14 12 30 -2 11 -10 19 -22 19
-28z m-209 -33 c6 -19 8 -37 5 -40 -3 -4 -1 -12 5 -19 13 -15 4 -48 -10 -40
-5 4 -12 25 -16 48 -4 23 -14 48 -21 56 -21 20 -17 41 6 35 11 -3 24 -20 31
-40z m69 -57 c0 -14 -29 -31 -38 -22 -2 3 -2 12 1 21 8 19 37 20 37 1z m40 -6
c0 -5 -7 -10 -15 -10 -8 0 -15 5 -15 10 0 6 7 10 15 10 8 0 15 -4 15 -10z
m-80 -60 c0 -5 -7 -10 -15 -10 -8 0 -15 5 -15 10 0 6 7 10 15 10 8 0 15 -4 15
-10z"/>
<path d="M5415 6990 c3 -5 8 -10 11 -10 2 0 4 5 4 10 0 6 -5 10 -11 10 -5 0
-7 -4 -4 -10z"/>
<path d="M3412 6982 c-72 -76 -123 -143 -139 -183 -10 -24 -42 -93 -71 -154
-57 -116 -87 -194 -79 -202 3 -2 13 13 22 34 9 21 46 99 81 174 35 75 64 143
64 151 0 8 11 25 25 38 21 19 25 21 25 7 0 -25 12 -21 49 17 20 21 50 38 77
45 49 12 91 14 80 4 -3 -4 4 -13 16 -20 20 -11 15 -12 -49 -13 -69 0 -72 -1
-95 -32 -13 -18 -28 -42 -33 -53 -6 -11 -22 -21 -37 -23 -28 -3 -44 -27 -27
-38 6 -4 4 -13 -7 -25 -9 -10 -14 -19 -10 -19 4 0 2 -9 -4 -20 -12 -22 -1 -27
18 -8 9 9 12 9 12 -1 0 -7 5 -9 11 -6 6 4 8 14 5 22 -7 17 6 44 37 76 12 13
27 32 33 43 11 18 11 17 11 -7 0 -15 -14 -45 -34 -70 -32 -40 -34 -48 -28 -89
3 -25 7 -52 8 -60 1 -8 -2 -16 -7 -17 -5 0 -13 -8 -18 -17 -5 -9 -16 -16 -24
-16 -8 0 -14 -6 -13 -12 1 -7 -1 -25 -4 -40 -16 -64 -17 -78 -7 -78 5 0 10 6
10 13 0 49 24 89 77 130 102 78 144 99 226 112 31 5 37 10 37 31 0 33 -40 49
-86 34 -40 -14 -64 -8 -92 23 -21 23 -25 39 -23 95 l1 32 93 0 c80 0 96 3 120
23 19 15 26 28 22 39 -11 28 -78 67 -134 78 -86 16 -110 13 -139 -18z m197
-17 c16 -8 33 -20 36 -26 14 -21 -4 -20 -43 4 -47 31 -116 43 -156 27 -26 -10
-28 -9 -15 6 11 13 26 15 81 10 37 -3 81 -12 97 -21z m-114 -26 c-33 -5 -67
-11 -75 -14 -9 -3 -7 1 4 10 13 10 40 15 75 14 l56 -1 -60 -9z m-37 -241 c-2
-8 6 -13 20 -13 20 0 41 -19 42 -37 0 -4 -17 -16 -37 -27 -21 -11 -48 -29 -60
-40 -23 -22 -34 -16 -40 24 -7 45 -2 68 24 105 26 35 29 37 41 19 7 -10 11
-24 10 -31z m168 -9 c10 -16 -6 -26 -53 -32 -33 -4 -43 -2 -43 9 0 8 9 14 20
14 11 0 20 5 20 10 0 14 47 13 56 -1z"/>
<path d="M1038 6976 c-12 -27 -23 -33 -33 -16 -3 6 -21 10 -40 10 -19 0 -37
-4 -40 -10 -3 -5 -16 -10 -29 -10 -12 0 -31 -7 -42 -15 -10 -8 -26 -15 -35
-15 -30 0 -97 -60 -110 -97 -19 -60 -6 -178 29 -259 20 -45 29 -78 25 -96 -3
-16 -1 -28 5 -28 6 0 12 12 14 27 2 19 10 29 26 33 29 6 25 26 -4 22 -17 -2
-26 10 -49 60 -34 74 -45 205 -23 248 16 30 48 38 60 16 5 -9 14 -14 19 -10 7
4 10 -5 8 -22 -2 -16 0 -35 5 -42 7 -12 -9 -43 -17 -31 -10 16 -40 85 -39 92
1 4 -2 7 -7 7 -16 0 -22 -32 -9 -48 9 -11 9 -14 1 -9 -6 4 -15 2 -18 -4 -4 -6
2 -13 14 -16 15 -4 21 -13 21 -32 0 -40 14 -53 59 -54 22 -1 41 -3 41 -5 0 -1
-7 -18 -14 -37 -9 -22 -11 -35 -5 -35 6 0 13 9 16 19 3 12 11 17 19 14 15 -5
19 8 7 21 -12 12 -12 37 0 33 7 -2 14 -28 17 -58 5 -54 31 -99 57 -99 8 0 13
-14 13 -40 0 -22 5 -40 10 -40 6 0 10 20 10 43 0 28 9 60 25 88 61 107 63 116
67 269 3 144 3 145 -19 148 -16 2 -26 -4 -35 -22z m35 -71 c-1 -41 -5 -108 -6
-149 -3 -63 -8 -81 -36 -122 -17 -27 -34 -58 -37 -70 -12 -49 -74 13 -74 73 0
13 7 38 16 55 l16 31 20 -24 c17 -22 18 -22 16 -4 -2 14 3 21 18 23 16 2 20 9
17 26 -3 13 2 30 10 38 10 9 12 20 7 28 -5 8 -7 17 -5 20 2 3 6 35 10 70 3 34
8 67 11 71 15 24 21 2 17 -66z m-83 25 c0 -11 7 -20 15 -20 9 0 15 -9 15 -24
0 -14 -7 -31 -15 -40 -17 -16 -21 -41 -5 -31 12 7 12 3 4 -19 -3 -9 -14 -16
-24 -16 -15 0 -17 8 -12 69 3 45 1 71 -7 75 -18 11 -13 26 9 26 13 0 20 -7 20
-20z m-73 -6 c-3 -4 3 -14 15 -23 16 -14 19 -24 13 -49 -9 -43 -35 -42 -35 1
0 18 -7 43 -16 55 -14 21 -14 22 7 22 12 0 20 -3 16 -6z m-62 -36 c23 -10 26
-17 23 -52 -4 -48 -28 -63 -28 -16 0 21 -9 39 -26 55 -30 28 -15 34 31 13z
m78 -114 c-8 -21 -23 -17 -23 6 0 13 5 18 14 14 8 -3 12 -12 9 -20z m-53 -19
c0 -14 -4 -25 -10 -25 -11 0 -14 33 -3 43 11 11 13 8 13 -18z m120 6 c0 -13
-29 -35 -37 -28 -7 8 15 37 28 37 5 0 9 -4 9 -9z m-70 -36 c0 -8 -7 -15 -15
-15 -16 0 -20 12 -8 23 11 12 23 8 23 -8z m-102 -7 c-2 -6 -10 -14 -16 -16 -7
-2 -10 2 -6 12 7 18 28 22 22 4z m32 -13 c-7 -9 -15 -13 -17 -11 -7 7 7 26 19
26 6 0 6 -6 -2 -15z"/>
<path d="M2147 6753 c-10 -9 -9 -23 2 -23 5 0 11 7 15 15 5 15 -5 20 -17 8z"/>
<path d="M2206 6731 c-4 -7 -5 -15 -2 -18 9 -9 19 4 14 18 -4 11 -6 11 -12 0z"/>
<path d="M5410 6728 c-10 -65 -10 -78 -1 -78 6 0 11 18 11 40 0 22 -2 40 -5
40 -3 0 -5 -1 -5 -2z"/>
<path d="M6467 6692 c-19 -21 -22 -32 -7 -32 10 0 34 39 27 46 -2 2 -11 -4
-20 -14z"/>
<path d="M2290 6688 c0 -9 5 -20 10 -23 13 -8 13 5 0 25 -8 13 -10 13 -10 -2z"/>
<path d="M2310 6608 c0 -24 -10 -63 -21 -88 -23 -50 -39 -157 -22 -147 6 4 13
28 16 54 3 26 15 70 26 96 22 52 28 112 11 122 -6 4 -10 -11 -10 -37z"/>
<path d="M6371 6619 c-25 -20 -25 -34 0 -24 16 6 43 45 32 45 -5 -1 -19 -10
-32 -21z"/>
<path d="M2137 6577 c-19 -29 -22 -57 -7 -57 6 0 10 9 10 19 0 11 5 23 10 26
6 4 10 -5 10 -20 0 -35 17 -65 36 -65 14 0 14 2 0 16 -14 13 -21 42 -17 67 0
4 -3 7 -8 7 -5 0 -11 8 -13 17 -2 14 -6 12 -21 -10z"/>
<path d="M4215 6589 c-11 -17 0 -20 21 -4 17 13 17 14 2 15 -9 0 -20 -5 -23
-11z"/>
<path d="M871 6576 c-7 -8 -8 -17 -3 -20 6 -3 15 1 21 8 7 8 8 17 3 20 -6 3
-15 -1 -21 -8z"/>
<path d="M2212 6560 c13 -20 28 -27 28 -12 0 10 -22 32 -32 32 -5 0 -3 -9 4
-20z"/>
<path d="M910 6521 c0 -10 25 -21 48 -21 15 1 14 3 -2 15 -22 17 -46 20 -46 6z"/>
<path d="M2215 6500 c10 -11 20 -18 23 -15 7 6 -18 35 -31 35 -5 0 -2 -9 8
-20z"/>
<path d="M6460 6503 c0 -15 -2 -16 -10 -3 -7 11 -11 9 -19 -13 -15 -38 -13
-46 4 -23 15 19 15 19 15 1 0 -26 16 -7 24 28 4 16 2 27 -4 27 -5 0 -10 -8
-10 -17z"/>
<path d="M2145 6260 c-13 -14 -15 -23 -7 -32 13 -16 18 -126 7 -152 -15 -34
41 -47 118 -25 72 20 92 63 51 110 -8 8 -14 27 -14 41 0 32 -24 53 -75 67 -54
15 -59 14 -80 -9z m94 -49 c11 -7 10 -11 -7 -20 -28 -15 -32 -14 -32 9 0 21
16 26 39 11z m38 -95 c-2 -5 -15 -13 -30 -17 -21 -6 -29 -3 -38 12 -5 11 -7
23 -4 28 7 12 76 -10 72 -23z"/>
<path d="M840 6164 c-28 -59 -49 -113 -46 -120 8 -21 34 -17 46 6 15 28 89 28
113 0 9 -11 23 -17 32 -14 19 8 14 43 -16 100 -10 21 -19 50 -19 64 0 30 -25
70 -45 70 -7 0 -36 -48 -65 -106z m66 -41 c-11 -11 -19 6 -11 24 8 17 8 17 12
0 3 -10 2 -21 -1 -24z"/>
<path d="M4209 6254 c-12 -14 -11 -19 8 -31 19 -13 21 -21 16 -68 -7 -66 3
-121 23 -129 51 -20 151 87 139 148 -3 16 -13 38 -23 49 -39 44 -137 62 -163
31z m119 -56 c17 -17 15 -54 -4 -83 -25 -38 -44 -32 -44 13 0 73 18 100 48 70z"/>
<path d="M3374 6235 c-34 -26 -64 -89 -64 -131 0 -38 34 -79 80 -98 47 -19
111 -21 127 -5 21 21 3 39 -38 39 -56 0 -107 24 -114 52 -13 49 35 118 81 118
21 0 25 4 22 23 -5 33 -54 34 -94 2z"/>
<path d="M5391 6223 c-36 -128 -20 -225 41 -258 l37 -20 28 21 c51 38 37 85
-16 52 -26 -16 -51 -3 -51 26 0 26 9 30 90 38 17 2 25 9 25 23 0 17 -8 20 -58
23 l-58 3 3 37 c3 34 5 37 36 38 40 1 50 10 36 32 -7 11 -27 18 -57 20 -45 3
-46 3 -56 -35z"/>
<path d="M6528 6151 c-42 -3 -80 -9 -83 -13 -14 -14 4 -37 32 -40 22 -2 29 -9
31 -30 3 -23 -1 -28 -30 -36 -46 -12 -46 -46 0 -50 27 -3 32 -7 32 -28 0 -36
18 -64 41 -64 18 0 19 5 13 49 -6 48 -6 48 25 54 22 5 31 12 31 27 0 16 -7 20
-30 20 -26 0 -30 3 -30 29 0 25 5 30 36 35 38 8 56 32 33 47 -8 5 -16 8 -19 7
-3 -1 -40 -4 -82 -7z"/>
<path d="M5457 5793 c-4 -3 -7 -62 -7 -130 0 -111 -2 -124 -17 -121 -9 2 -20
17 -25 33 -5 17 -21 60 -35 97 -24 63 -43 85 -64 72 -12 -7 -12 -61 1 -69 6
-4 7 5 4 23 -8 42 9 47 29 9 36 -70 47 -108 37 -127 -14 -25 -13 -30 5 -24 12
5 15 -2 15 -34 0 -23 5 -44 10 -47 14 -9 12 -41 -3 -53 -10 -8 -16 -6 -25 9
-7 11 -10 24 -7 29 3 5 1 19 -4 32 -5 13 -17 49 -26 82 -15 49 -15 60 -4 67
11 7 10 9 -3 9 -22 0 -23 -24 -3 -80 17 -47 20 -90 7 -90 -9 0 -40 -24 -88
-67 -21 -19 -23 -28 -18 -65 3 -24 19 -81 35 -128 16 -46 29 -104 29 -127 0
-24 4 -43 10 -43 5 0 7 7 4 15 -4 8 1 17 10 21 9 3 16 10 16 16 0 5 -4 6 -10
3 -5 -3 -10 -2 -10 4 0 5 6 12 13 14 8 4 7 6 -4 6 -11 1 -25 31 -47 99 -34
102 -39 136 -21 130 6 -2 10 -7 10 -11 -2 -10 49 -57 61 -57 5 0 6 -10 2 -22
l-6 -23 19 23 c37 41 53 29 55 -40 l1 -63 6 60 c7 62 19 92 45 115 14 11 16 9
16 -12 0 -27 17 -48 38 -48 12 0 11 4 -2 25 -20 31 -21 49 -1 41 8 -3 15 -1
15 3 0 5 -6 11 -14 14 -7 3 -13 17 -13 32 0 18 -13 39 -36 61 -25 24 -33 40
-30 55 5 18 9 17 46 -20 22 -23 37 -44 34 -48 -4 -3 2 -12 13 -20 19 -14 50
-98 50 -138 0 -11 -13 -52 -30 -90 -17 -42 -29 -86 -29 -110 l1 -40 8 46 c4
25 20 70 35 99 33 66 31 123 -8 221 -25 60 -27 77 -27 208 0 79 -5 151 -10
162 -10 19 -40 26 -53 12z m43 -22 c15 -29 12 -61 -5 -61 -8 0 -15 -4 -15 -10
0 -5 7 -10 15 -10 22 0 20 -66 -2 -79 -17 -10 -16 -10 2 -11 l20 -1 -20 -9
c-17 -7 -17 -9 -2 -9 14 -1 17 -10 17 -47 0 -46 0 -46 -22 -32 -22 14 -23 24
-26 139 -1 67 0 129 2 136 8 19 24 16 36 -6z m-132 -358 c27 -61 35 -90 27
-102 -10 -17 -37 0 -32 20 3 11 1 19 -4 19 -11 0 -39 66 -39 91 0 35 26 19 48
-28z m96 3 c9 -13 7 -19 -7 -27 -9 -6 -15 -14 -13 -18 3 -4 -4 -7 -14 -8 -26
-2 -33 24 -13 53 17 27 31 27 47 0z m-162 -14 c3 7 8 -1 12 -19 4 -17 14 -37
22 -44 18 -15 18 -39 -1 -39 -8 0 -23 21 -35 46 -17 40 -22 45 -35 34 -23 -19
-31 -3 -9 21 17 18 19 19 30 4 9 -12 13 -13 16 -3z"/>
<path d="M3096 5768 c-14 -24 -31 -250 -31 -418 1 -77 4 -93 38 -166 20 -45
37 -93 37 -108 0 -14 4 -26 8 -26 17 0 -1 77 -31 140 -31 62 -32 71 -32 183 0
79 4 120 12 125 8 5 9 13 3 22 -16 25 -12 80 5 80 8 0 15 7 15 15 0 8 -4 15
-10 15 -18 0 -11 58 8 63 16 4 16 5 -1 6 -14 1 -18 8 -15 34 2 20 8 32 18 32
12 0 16 -20 18 -112 1 -64 7 -113 12 -113 6 0 10 -9 10 -20 0 -11 -4 -20 -10
-20 -14 0 -13 -37 2 -42 17 -6 0 -28 -23 -28 -10 0 -19 -4 -19 -9 0 -5 6 -9
13 -8 49 2 60 -12 32 -40 -8 -8 -13 -19 -9 -24 3 -5 12 -2 20 6 9 8 23 15 33
15 20 0 58 -37 48 -47 -4 -3 -7 -1 -7 6 0 7 -5 9 -12 5 -7 -4 -8 -3 -4 4 13
21 -10 13 -32 -11 -29 -31 -28 -34 8 -29 30 4 31 3 25 -24 -6 -28 -6 -28 9
-10 15 19 16 19 16 -11 0 -18 5 -35 11 -39 9 -5 10 1 5 21 -11 44 24 115 56
115 8 0 20 6 27 13 11 10 14 10 18 0 5 -15 33 -18 33 -4 0 6 -4 13 -10 16 -5
3 -10 11 -10 16 0 6 5 7 10 4 6 -3 10 -3 10 0 0 11 -25 32 -58 49 -18 9 -32
19 -32 22 0 2 10 -1 23 -7 22 -12 22 -12 3 10 -14 16 -16 21 -5 21 22 0 42
-17 35 -29 -5 -7 -1 -9 8 -5 11 4 16 0 16 -10 0 -9 4 -16 9 -16 10 0 31 -78
31 -118 0 -15 -18 -58 -41 -96 -37 -61 -40 -71 -33 -114 10 -74 26 -87 19 -15
-7 59 -5 64 35 130 39 64 41 71 35 123 -3 33 -18 76 -35 107 -17 29 -30 61
-30 71 0 40 -33 54 -129 55 l-91 2 0 82 c0 117 -29 167 -64 111z m179 -229
c-4 -11 -2 -19 4 -19 20 0 11 -39 -11 -51 -19 -10 -20 -13 -6 -23 19 -14 24
-100 5 -93 -6 2 -11 11 -11 20 1 8 -4 13 -10 11 -8 -3 -10 20 -8 78 4 99 6
110 27 102 10 -4 13 -13 10 -25z m-75 6 c0 -8 5 -15 10 -15 14 0 12 -44 -2
-58 -10 -10 -10 -15 0 -21 11 -7 11 -9 -1 -14 -21 -8 -27 1 -27 42 0 20 -4 43
-9 51 -6 8 -7 18 -5 22 9 14 34 9 34 -7z m153 -2 c7 -6 -21 -32 -35 -33 -5 0
-8 9 -8 20 0 19 28 28 43 13z m-133 -132 c0 -20 -13 -35 -23 -25 -7 8 4 44 14
44 5 0 9 -9 9 -19z m115 -1 c7 -23 -2 -43 -18 -37 -15 5 -15 57 -1 57 7 0 15
-9 19 -20z"/>
<path d="M6455 5728 c-3 -13 -6 -76 -8 -141 l-2 -118 -57 -4 c-31 -2 -64 -9
-73 -17 -48 -39 -55 -53 -57 -102 -4 -123 2 -157 51 -296 3 -9 6 -5 9 13 2 15
10 27 18 27 23 0 16 19 -9 25 -32 8 -64 79 -47 100 7 9 8 15 2 15 -5 0 -10 27
-11 62 -1 65 15 71 21 8 2 -25 8 -36 22 -38 11 -3 26 -10 34 -18 7 -8 22 -14
33 -14 12 0 24 -13 34 -37 8 -20 18 -34 21 -30 3 3 0 15 -7 28 -6 13 -12 60
-12 108 1 51 -5 100 -13 120 -17 41 -17 41 -1 41 19 0 49 -38 34 -44 -9 -3 -9
-5 1 -5 7 -1 12 -15 12 -37 0 -23 -4 -33 -11 -28 -8 4 -8 0 0 -15 8 -14 8 -21
1 -21 -7 0 -8 -6 0 -19 7 -13 7 -22 0 -26 -5 -3 -10 -11 -10 -18 0 -7 5 -6 14
3 15 17 37 106 30 125 -3 6 2 18 11 25 8 7 15 17 15 23 0 6 -3 7 -7 4 -3 -4
-12 -2 -20 4 -10 9 -13 46 -13 148 0 142 10 188 29 138 15 -38 14 -47 -4 -47
-8 0 -15 -5 -15 -10 0 -6 7 -13 15 -16 8 -4 15 -18 15 -34 0 -16 -7 -30 -15
-34 -22 -8 -18 -26 6 -26 20 0 21 -4 17 -99 -1 -55 0 -97 5 -94 4 2 7 -1 7 -7
0 -15 43 -30 55 -19 14 13 45 11 45 -3 0 -7 11 0 25 15 26 27 59 35 70 18 6
-11 -42 -51 -62 -51 -28 0 -76 -44 -95 -87 -11 -24 -25 -46 -33 -49 -7 -3 -16
-15 -19 -27 -4 -15 -8 -18 -14 -10 -4 7 -7 -8 -7 -32 1 -47 15 -77 15 -31 0
14 12 45 26 68 15 23 33 56 40 74 16 37 65 78 106 88 31 7 64 49 53 67 -9 13
-57 8 -126 -14 -72 -24 -73 -22 -80 175 -6 173 -15 218 -46 218 -7 0 -15 -10
-18 -22z m-83 -295 c10 -9 18 -23 18 -32 0 -14 -2 -14 -10 -1 -7 10 -10 11
-10 2 0 -7 6 -15 13 -18 18 -7 22 -94 5 -94 -10 0 -9 -3 1 -9 8 -5 11 -16 8
-25 -7 -18 -16 -20 -36 -7 -12 7 -12 13 -3 24 7 7 9 17 5 21 -4 4 -6 22 -5 41
2 18 -4 47 -13 64 -23 46 -8 66 27 34z m-59 -42 c-2 -13 1 -20 7 -16 6 4 10 3
9 -2 -1 -4 1 -15 5 -25 4 -9 6 -29 4 -45 -4 -36 -33 -38 -34 -3 -2 75 -4 82
-19 76 -18 -6 -19 -2 -4 25 13 26 35 19 32 -10z"/>
<path d="M4073 5703 c16 -16 18 -16 34 0 16 16 15 17 -17 17 -32 0 -33 -1 -17
-17z"/>
<path d="M4140 5697 c0 -22 20 -67 50 -114 14 -21 12 -25 -19 -51 -29 -24 -35
-37 -42 -87 -7 -52 -5 -63 15 -99 13 -23 27 -54 30 -70 11 -45 51 -90 116
-130 33 -21 67 -51 75 -67 18 -34 29 -38 20 -6 -11 34 -55 76 -102 97 -47 21
-62 47 -17 30 37 -14 49 -13 35 4 -7 8 -27 17 -46 20 -19 4 -35 11 -35 17 0 6
-4 8 -9 4 -13 -8 -22 10 -23 45 -1 16 -7 31 -15 34 -7 3 -13 16 -13 28 1 22 1
22 15 4 8 -11 15 -16 15 -10 0 5 7 1 15 -9 7 -11 11 -25 9 -31 -3 -9 6 -12 28
-12 34 2 84 39 73 56 -3 5 -1 11 5 15 5 3 10 11 10 16 0 6 -4 8 -9 5 -5 -3
-12 1 -15 10 -3 8 -11 12 -16 9 -6 -4 -17 -1 -25 5 -13 11 -15 7 -15 -25 0
-37 0 -38 20 -20 19 18 20 17 20 -1 0 -26 -18 -43 -39 -37 -22 6 -50 53 -43
73 7 21 28 40 36 33 3 -4 6 -1 6 5 0 16 58 39 94 37 32 -2 48 -30 61 -106 17
-99 61 -179 99 -179 6 0 0 7 -12 16 -30 21 -47 56 -66 139 -15 61 -54 165 -62
165 -2 0 -38 -11 -80 -25 -42 -14 -81 -25 -87 -25 -21 0 20 31 44 34 14 1 30
6 37 10 7 4 26 8 42 8 16 1 27 5 24 10 -3 4 -9 8 -13 8 -16 0 -92 81 -126 134
-37 59 -65 73 -65 33z m30 3 c0 -5 -2 -10 -4 -10 -3 0 -8 5 -11 10 -3 6 -1 10
4 10 6 0 11 -4 11 -10z m19 -39 c6 -10 8 -21 5 -23 -2 -3 18 -24 46 -48 27
-23 50 -46 50 -51 0 -5 -12 -11 -27 -14 -59 -12 -92 -37 -108 -79 l-15 -41 4
44 c6 56 32 84 83 85 35 1 46 18 15 23 -8 1 -20 10 -28 20 -16 20 -54 89 -54
98 0 13 20 3 29 -14z m-8 -264 c-8 -8 -11 -5 -11 9 0 27 14 41 18 19 2 -9 -1
-22 -7 -28z"/>
<path d="M4067 5673 c-2 -5 -5 -30 -6 -58 -1 -30 -7 -54 -15 -61 -10 -7 -12
-15 -6 -24 17 -28 33 7 37 80 4 64 1 82 -10 63z"/>
<path d="M891 5628 c-46 -5 -81 -14 -93 -24 -10 -10 -28 -49 -39 -88 -12 -39
-41 -110 -65 -158 -24 -48 -46 -106 -49 -130 -6 -48 -2 -42 36 57 12 33 33 76
45 95 19 29 34 73 60 168 2 6 8 12 14 12 6 0 8 -5 5 -11 -5 -7 8 -9 41 -5 l49
6 -39 -13 c-50 -16 -63 -40 -14 -26 18 5 45 9 60 9 25 0 28 -4 28 -33 0 -37
-15 -58 -36 -50 -11 4 -11 8 1 20 17 16 20 43 5 43 -5 0 -10 -4 -10 -9 0 -5
-9 -7 -20 -4 -11 3 -20 0 -20 -6 0 -7 -10 -9 -27 -6 -27 6 -27 6 -9 -9 11 -9
18 -17 15 -19 -2 -2 -15 -12 -29 -22 -24 -17 -20 -17 25 1 18 7 19 6 6 -9 -8
-10 -12 -19 -10 -22 8 -7 93 15 116 31 29 18 33 18 34 -3 0 -14 2 -13 9 5 11
26 60 32 60 7 0 -8 5 -15 11 -15 6 0 8 9 4 20 -5 15 -2 20 13 20 11 0 22 -6
24 -12 9 -24 -4 -38 -33 -38 -16 0 -45 -7 -64 -14 -19 -8 -35 -11 -35 -5 0 5
-4 9 -10 9 -5 0 -10 -8 -10 -17 0 -24 -29 -53 -48 -46 -10 4 -13 2 -8 -5 9
-15 -33 -52 -53 -45 -14 4 -14 3 -1 -6 13 -10 13 -12 0 -22 -11 -8 -12 -12 -2
-16 7 -3 12 -23 12 -49 0 -24 4 -44 9 -44 5 0 8 25 7 56 -1 55 0 57 49 102 79
72 101 82 177 82 56 0 69 3 78 19 7 15 5 25 -9 43 -17 20 -27 23 -80 21 -33
-1 -62 1 -64 5 -3 4 -7 23 -11 44 l-7 36 78 -5 c65 -5 81 -3 92 11 18 22 9 29
-64 49 -82 22 -118 25 -204 15z m149 -19 c0 -6 4 -8 9 -5 13 8 61 -11 61 -24
0 -15 -57 -12 -114 5 -27 8 -72 16 -100 17 l-51 1 45 6 c75 11 150 11 150 0z
m-80 -39 c20 -6 21 -8 5 -8 -11 0 -29 3 -40 8 -25 11 1 11 35 0z m30 -84 c0
-2 -8 -10 -17 -17 -16 -13 -17 -12 -4 4 13 16 21 21 21 13z m151 -69 c-16 -16
-40 0 -34 23 5 20 6 20 25 4 12 -11 15 -21 9 -27z"/>
<path d="M3907 5553 c-4 -3 -7 -15 -7 -25 0 -19 34 -26 44 -9 7 11 -28 43 -37
34z"/>
<path d="M1965 5498 c-228 -11 -269 -17 -273 -45 -3 -18 -10 -23 -32 -23 -32
0 -48 -26 -27 -47 14 -14 146 -33 237 -33 71 0 85 -9 69 -42 -8 -19 -8 -31 0
-46 6 -11 11 -30 11 -40 0 -11 15 -33 34 -50 45 -39 126 -50 206 -27 30 9 64
18 76 21 12 3 41 -1 65 -9 24 -8 48 -12 54 -9 5 3 -1 9 -15 12 -18 5 -24 12
-23 28 2 19 -1 21 -30 15 -17 -3 -52 -14 -77 -25 -61 -26 -170 -37 -170 -16 0
9 12 14 35 15 37 1 66 18 64 37 -1 6 -1 22 0 35 1 20 5 22 27 17 22 -6 24 -5
15 13 -6 11 -20 23 -31 26 -30 9 -24 23 8 19 15 -2 21 -1 15 2 -21 9 -15 21
17 33 35 12 40 34 8 30 -13 -2 -29 0 -35 4 -8 5 -13 3 -13 -7 0 -21 -21 -31
-31 -15 -7 11 -9 10 -9 -4 0 -10 -4 -15 -10 -12 -5 3 -10 0 -10 -7 0 -7 -4
-19 -8 -26 -10 -15 -52 -25 -52 -12 0 15 18 21 23 8 3 -7 6 0 6 16 1 33 49 83
105 110 20 9 34 21 31 27 -9 14 -24 11 -53 -12 -19 -14 -28 -17 -31 -8 -2 7
-9 2 -17 -12 -7 -13 -13 -18 -14 -11 0 6 -5 12 -11 12 -6 0 -8 -7 -5 -16 5
-14 4 -15 -9 -4 -13 11 -14 8 -8 -20 6 -30 4 -33 -15 -28 -22 6 -30 -6 -12
-17 6 -4 7 -11 4 -17 -4 -7 -10 -5 -16 6 -13 24 -31 20 -18 -4 9 -17 8 -20
-10 -20 -11 0 -20 -6 -20 -14 0 -8 8 -15 18 -15 9 0 36 -3 58 -6 35 -6 41 -10
36 -27 -4 -17 -10 -18 -61 -12 -93 11 -113 33 -69 74 14 13 19 23 12 30 -5 5
-65 13 -132 17 -101 5 -122 9 -117 20 3 8 5 17 5 19 0 2 20 4 45 4 33 0 45 -4
45 -15 0 -22 21 -18 27 5 8 31 61 27 73 -5 12 -30 34 -34 25 -4 -5 16 -3 20
12 17 15 -3 18 3 15 40 l-4 43 124 -2 c115 -1 126 -3 178 -30 30 -16 77 -52
104 -79 35 -35 57 -50 75 -50 l26 1 -30 16 c-16 8 -55 39 -85 68 -91 85 -138
95 -405 83z m5 -33 c0 -23 -3 -25 -50 -25 -43 0 -50 3 -50 19 0 16 8 21 43 24
23 2 45 4 50 5 4 1 7 -9 7 -23z m-210 -16 c0 -12 -37 -12 -45 0 -3 5 3 11 12
13 21 5 33 0 33 -13z m90 6 c11 -13 6 -15 -34 -15 -34 0 -46 4 -46 15 0 10 10
15 34 15 18 0 39 -7 46 -15z m-130 -55 c0 -23 -29 -27 -63 -8 -23 13 -24 13
56 27 4 0 7 -8 7 -19z m438 -108 c2 -7 -2 -10 -12 -6 -9 3 -16 11 -16 16 0 13
23 5 28 -10z m-10 -35 c2 -12 -3 -17 -17 -17 -12 0 -21 6 -21 13 0 31 32 34
38 4z m-43 -49 c7 -6 -7 -9 -40 -7 -42 2 -50 0 -49 -15 2 -15 0 -16 -20 -3
-11 8 -23 22 -24 32 -4 15 3 16 60 10 34 -4 68 -11 73 -17z"/>
<path d="M6470 5480 c0 -5 7 -10 15 -10 8 0 15 5 15 10 0 6 -7 10 -15 10 -8 0
-15 -4 -15 -10z"/>
<path d="M4010 5450 c0 -5 5 -10 10 -10 6 0 10 5 10 10 0 6 -4 10 -10 10 -5 0
-10 -4 -10 -10z"/>
<path d="M3978 5423 c7 -3 16 -2 19 1 4 3 -2 6 -13 5 -11 0 -14 -3 -6 -6z"/>
<path d="M900 5365 c0 -8 4 -15 10 -15 5 0 7 7 4 15 -4 8 -8 15 -10 15 -2 0
-4 -7 -4 -15z"/>
<path d="M830 5340 c0 -16 5 -30 10 -30 6 0 10 14 10 30 0 17 -4 30 -10 30 -5
0 -10 -13 -10 -30z"/>
<path d="M6500 5315 c-8 -9 -8 -15 -2 -15 12 0 26 19 19 26 -2 2 -10 -2 -17
-11z"/>
<path d="M2235 5270 c-3 -5 -1 -10 4 -10 6 0 11 5 11 10 0 6 -2 10 -4 10 -3 0
-8 -4 -11 -10z"/>
<path d="M2204 5225 c11 -8 22 -12 25 -9 6 6 -19 24 -34 24 -5 -1 -1 -7 9 -15z"/>
<path d="M3280 5171 c0 -10 31 -31 45 -31 11 0 -5 20 -26 30 -12 7 -19 7 -19
1z"/>
<path d="M6410 5151 c0 -5 5 -13 10 -16 6 -3 10 -2 10 4 0 5 -4 13 -10 16 -5
3 -10 2 -10 -4z"/>
<path d="M3180 5130 c0 -5 5 -10 10 -10 6 0 10 5 10 10 0 6 -4 10 -10 10 -5 0
-10 -4 -10 -10z"/>
<path d="M817 4973 c-2 -4 -12 -39 -22 -78 -16 -65 -17 -73 -2 -107 36 -85
137 -69 137 22 0 26 -43 54 -70 45 -23 -7 -26 8 -10 49 7 19 17 25 47 28 30 2
38 7 38 23 0 17 -8 20 -57 23 -31 2 -58 -1 -61 -5z m53 -183 c0 -5 -4 -10 -10
-10 -5 0 -10 5 -10 10 0 6 5 10 10 10 6 0 10 -4 10 -10z"/>
<path d="M5374 4945 c-4 -9 -3 -51 2 -93 7 -63 12 -77 28 -80 10 -2 22 1 26 8
5 9 18 6 49 -10 45 -23 96 -24 96 -2 0 7 -25 25 -55 40 -30 15 -56 34 -58 42
-1 8 11 23 28 32 38 21 42 58 6 58 -13 0 -29 -7 -36 -15 -18 -22 -38 -18 -42
7 -4 27 -35 36 -44 13z"/>
<path d="M2267 4924 c-3 -4 -4 -26 0 -50 l6 -44 -52 0 -51 0 0 39 c0 22 -5 43
-10 46 -18 11 -40 -16 -40 -49 0 -18 -5 -37 -12 -44 -9 -9 -8 -16 4 -29 8 -10
18 -26 21 -35 9 -24 38 -23 44 2 4 16 14 20 46 20 26 0 44 -6 52 -17 7 -9 19
-14 29 -10 13 5 16 20 16 72 0 37 -5 75 -10 86 -11 19 -31 25 -43 13z"/>
<path d="M3217 4877 c-3 -7 -2 -40 2 -72 5 -51 9 -60 26 -60 24 0 29 21 20 91
-5 43 -10 54 -25 54 -10 0 -20 -6 -23 -13z"/>
<path d="M4290 4872 c-65 -24 -73 -31 -59 -48 7 -9 27 -13 53 -12 l41 3 3 -54
c2 -30 -2 -59 -7 -64 -6 -6 -35 -10 -66 -9 -47 1 -55 -1 -55 -17 0 -47 112
-50 158 -4 23 23 24 30 19 109 -4 75 -17 116 -36 113 -3 0 -26 -8 -51 -17z"/>
<path d="M6441 4846 c-6 -8 -19 -48 -27 -90 -15 -70 -15 -79 0 -101 21 -32 44
-31 107 1 36 18 49 30 45 40 -3 9 -6 18 -6 20 0 11 -36 2 -66 -16 -18 -12 -35
-17 -38 -12 -3 5 2 35 10 68 8 32 16 68 17 79 2 24 -25 31 -42 11z"/>
<path d="M5555 4500 c-101 -12 -165 -65 -205 -171 -11 -31 -36 -81 -55 -113
-19 -32 -35 -67 -35 -78 0 -20 38 42 81 132 67 142 74 153 112 178 24 16 66
31 106 37 75 13 72 24 -4 15z"/>
<path d="M6457 4483 c-6 -16 -17 -34 -24 -41 -16 -16 -17 -32 -3 -32 6 0 10 7
10 15 0 8 4 15 10 15 16 0 37 -42 50 -100 6 -30 22 -93 35 -140 12 -47 29
-116 36 -154 13 -68 13 -68 -16 -122 -16 -30 -36 -54 -45 -55 -9 0 -10 -3 -3
-5 7 -3 10 -19 7 -42 -4 -33 -3 -34 5 -9 5 15 25 60 45 100 l36 73 -15 69 c-9
39 -28 108 -42 155 -20 62 -27 110 -29 180 -1 52 -3 101 -3 108 -2 24 -41 13
-54 -15z m43 -20 c0 -35 0 -36 -20 -18 -15 13 -17 22 -9 36 16 30 29 22 29
-18z"/>
<path d="M4374 4406 c-17 -8 -48 -36 -70 -62 -21 -27 -62 -75 -91 -107 -29
-32 -53 -64 -53 -70 1 -12 25 14 121 126 69 82 97 103 149 115 44 10 44 10 10
11 -19 0 -49 -6 -66 -13z"/>
<path d="M2120 4390 c-14 -11 -30 -20 -36 -20 -7 0 -14 -7 -18 -15 -3 -8 -12
-15 -19 -15 -8 0 -20 -7 -27 -15 -7 -8 -22 -15 -34 -15 -35 0 -64 -35 -71 -85
-9 -54 -1 -97 31 -190 14 -38 28 -104 31 -145 5 -64 8 -71 17 -50 6 14 15 28
21 32 6 5 5 8 -2 8 -7 0 -13 4 -13 10 0 5 7 7 15 4 8 -4 15 -1 15 4 0 6 -9 14
-20 17 -11 3 -20 14 -20 23 0 10 -13 57 -30 105 -32 95 -36 117 -20 117 6 0
10 -6 10 -13 0 -25 20 -34 61 -27 39 7 40 7 35 -15 -3 -13 -9 -30 -12 -39 -3
-9 -2 -16 3 -16 6 0 15 17 21 38 11 36 66 101 77 91 2 -3 -4 -23 -15 -44 -11
-22 -20 -51 -19 -65 1 -22 2 -21 11 9 10 36 36 81 47 81 4 0 12 -14 19 -32 6
-17 15 -29 18 -25 4 4 1 14 -6 22 -11 13 -11 18 0 28 8 8 11 8 7 1 -4 -7 4
-19 18 -28 32 -21 38 -20 26 3 -8 14 -7 20 4 25 9 3 20 17 25 31 12 31 29 33
32 3 3 -46 -4 -81 -28 -144 -25 -66 -31 -147 -14 -174 7 -11 10 5 10 52 0 46
8 89 26 138 22 63 25 80 18 153 -3 45 -12 97 -20 114 -12 32 -21 37 -89 60
-16 6 -37 13 -45 17 -8 3 -26 -3 -40 -14z m36 -16 c-5 -13 -1 -15 20 -10 l26
7 -4 -93 c-3 -87 -5 -93 -26 -96 -27 -4 -30 19 -4 44 16 17 16 18 0 11 -18 -7
-20 1 -22 86 -1 15 -8 32 -16 37 -13 9 -13 11 0 20 22 14 33 12 26 -6z m-45
-25 c23 -12 15 -33 -10 -25 -12 5 -11 2 3 -9 11 -8 15 -15 9 -15 -14 0 -26 18
-30 43 -3 20 1 21 28 6z m163 -11 c20 -28 20 -39 1 -32 -11 5 -13 -1 -9 -28 3
-18 2 -43 -3 -55 -7 -18 -11 -19 -24 -9 -15 10 -25 81 -20 134 2 20 39 14 55
-10z m-214 -33 c-1 -5 7 -12 17 -16 17 -7 17 -8 1 -8 -10 -1 -18 -5 -18 -10 0
-5 8 -8 18 -7 10 0 17 -6 16 -16 -4 -81 -4 -80 -23 -75 -15 3 -18 1 -14 -11 4
-10 2 -13 -5 -8 -7 4 -12 2 -12 -3 0 -6 -8 -11 -17 -11 -17 1 -17 1 0 14 20
15 25 114 6 133 -6 6 -8 16 -4 23 8 13 37 10 35 -5z m-60 -41 c0 -8 5 -14 10
-14 6 0 10 -16 10 -35 0 -26 -4 -33 -14 -29 -10 4 -13 0 -9 -14 2 -11 -1 -21
-9 -25 -11 -4 -13 2 -10 24 5 33 -5 79 -16 78 -30 -5 -34 3 -12 26 18 19 26
22 37 14 7 -6 13 -18 13 -25z m-50 -66 c0 -5 -4 -8 -10 -8 -5 0 -10 10 -10 23
0 18 2 19 10 7 5 -8 10 -18 10 -22z m172 0 c-9 -9 -12 -7 -12 12 0 19 3 21 12
12 9 -9 9 -15 0 -24z m122 -5 c9 -24 -9 -39 -29 -23 -12 10 -13 16 -4 26 15
19 25 18 33 -3z"/>
<path d="M2160 4286 c0 -8 5 -18 10 -21 6 -3 10 3 10 14 0 12 -4 21 -10 21 -5
0 -10 -6 -10 -14z"/>
<path d="M2240 4341 c0 -5 5 -13 10 -16 6 -3 10 -2 10 4 0 5 -4 13 -10 16 -5
3 -10 2 -10 -4z"/>
<path d="M2230 4254 c0 -8 5 -12 10 -9 6 4 8 11 5 16 -9 14 -15 11 -15 -7z"/>
<path d="M6429 4398 c0 -2 -2 -16 -5 -33 -20 -138 -16 -129 -54 -135 -39 -7
-79 -41 -98 -83 -25 -59 -11 -207 24 -248 7 -8 18 -33 23 -55 8 -36 9 -36 10
-9 0 17 -6 41 -14 55 -34 61 -45 96 -45 151 0 33 4 59 9 59 5 0 19 -16 32 -35
24 -35 43 -44 54 -25 6 10 45 14 45 4 0 -3 -5 -14 -10 -25 -13 -24 -2 -25 16
-1 17 21 18 46 2 36 -8 -5 -9 -2 -5 10 4 10 7 20 7 22 0 2 4 4 10 4 5 0 6 -7
3 -17 -4 -9 -2 -14 3 -10 5 3 9 -12 7 -36 -2 -39 -1 -40 5 -9 l7 34 22 -26
c13 -14 28 -26 35 -26 6 0 4 6 -7 13 -10 8 -23 29 -29 48 -6 18 -22 39 -35 45
-23 12 -23 12 -3 23 17 9 24 8 34 -4 43 -52 78 -83 84 -73 4 6 -7 24 -25 40
-17 16 -31 35 -31 41 0 8 -16 14 -37 15 -43 3 -67 27 -58 57 4 11 9 31 11 45
13 63 15 70 23 65 5 -3 12 -24 16 -48 11 -63 28 -83 21 -24 -5 38 -3 47 10 47
8 0 12 5 9 10 -4 6 -11 8 -16 5 -10 -7 -32 43 -26 59 3 6 -2 17 -9 24 -8 7
-14 11 -15 10z m-49 -197 c0 -11 3 -27 7 -37 5 -13 3 -15 -7 -9 -10 6 -11 2
-6 -21 4 -16 12 -30 17 -32 13 -5 11 -44 -2 -40 -19 6 -55 115 -50 151 1 4 10
7 21 7 13 0 20 -7 20 -19z m-53 -47 c3 -9 0 -20 -8 -25 -12 -8 -6 -13 13 -10
5 0 28 -52 28 -65 0 -2 -7 -4 -15 -4 -8 0 -15 8 -15 19 0 10 -7 24 -15 31 -8
7 -15 19 -15 26 0 8 -4 14 -10 14 -5 0 -7 7 -4 15 8 20 33 19 41 -1z m93 -29
c-12 -15 -30 -12 -30 6 0 5 10 9 21 9 18 0 19 -2 9 -15z"/>
<path d="M745 4339 c-4 -5 -16 -9 -29 -9 -12 0 -31 -7 -42 -15 -10 -8 -29 -15
-41 -15 -14 0 -29 -13 -44 -36 -20 -34 -21 -43 -15 -147 5 -81 13 -130 32
-182 18 -49 24 -83 21 -113 -2 -23 -1 -45 4 -48 20 -12 8 112 -17 184 -20 58
-26 96 -27 172 -2 110 11 150 49 150 25 0 45 -21 26 -28 -22 -7 -14 -60 12
-77 15 -10 23 -24 22 -43 -2 -49 -28 -31 -45 31 -9 32 -21 58 -26 58 -11 -1
-14 -81 -3 -81 4 0 17 -14 29 -31 18 -26 19 -33 8 -40 -11 -7 -9 -9 8 -9 12 0
25 5 29 11 4 8 9 7 15 -2 10 -16 11 0 10 91 -1 60 5 74 32 77 17 1 18 -4 11
-50 -4 -29 -7 -61 -7 -72 2 -38 -7 -65 -22 -65 -8 0 -15 -5 -15 -11 0 -7 9 -9
21 -6 13 4 19 1 16 -6 -3 -7 -13 -31 -22 -55 -10 -24 -14 -46 -10 -50 4 -4 10
-1 12 6 3 6 8 10 13 7 5 -3 12 14 16 37 l7 43 13 -30 13 -30 1 33 c0 20 4 31
10 27 6 -3 10 -1 10 4 0 21 18 11 24 -14 4 -14 11 -25 17 -25 6 0 6 7 -1 20
-8 16 -8 22 4 26 8 3 25 30 37 60 19 44 25 52 37 42 21 -18 10 -122 -18 -184
-24 -50 -42 -154 -28 -154 4 0 8 16 8 36 0 20 14 68 32 107 29 65 31 81 30
162 -2 92 -24 157 -70 210 -35 40 -51 48 -67 35 -11 -9 -22 -9 -45 -2 -18 7
-32 7 -35 1z m69 -40 c11 -11 14 -19 8 -19 -7 0 -12 -9 -12 -20 0 -13 6 -20
18 -19 10 0 12 3 4 6 -14 5 -7 23 10 23 7 0 8 -25 4 -72 -9 -118 -16 -146 -38
-151 -22 -6 -33 13 -25 43 3 11 1 18 -4 15 -5 -4 -6 8 -2 27 16 69 9 135 -15
160 -39 42 7 48 52 7z m56 9 c15 -16 20 -31 16 -50 -4 -21 -2 -28 10 -28 13 0
15 -7 10 -37 -3 -21 -7 -44 -8 -50 -1 -7 -7 -13 -15 -13 -10 0 -13 19 -13 73
0 61 -3 77 -20 92 -11 10 -20 22 -20 27 0 15 19 8 40 -14z m-138 -15 c25 -22
23 -32 -6 -29 -29 3 -58 25 -50 37 8 14 36 10 56 -8z m-22 -62 c0 -17 -12 -41
-20 -41 -11 0 -21 30 -14 41 7 12 34 12 34 0z m227 -63 c-3 -7 -5 -2 -5 12 0
14 2 19 5 13 2 -7 2 -19 0 -25z m-47 -66 c0 -21 -27 -62 -41 -62 -12 0 -12 22
1 54 11 29 40 35 40 8z"/>
<path d="M810 4154 c0 -8 5 -12 10 -9 6 4 8 11 5 16 -9 14 -15 11 -15 -7z"/>
<path d="M4413 4310 c1 -14 6 -30 10 -37 4 -6 3 -14 -3 -18 -5 -3 -17 -23 -27
-43 -9 -20 -45 -66 -80 -100 -35 -35 -63 -72 -63 -83 0 -10 -4 -19 -10 -19 -5
0 -7 -6 -4 -14 3 -8 1 -17 -5 -21 -7 -4 -11 7 -11 29 0 20 5 36 11 36 7 0 9
12 5 33 -4 22 0 41 13 63 16 26 17 33 4 50 -11 15 -15 16 -22 5 -5 -8 -7 -20
-4 -28 3 -7 -5 -17 -18 -22 -13 -5 -18 -10 -10 -10 10 -1 12 -10 7 -33 -3 -18
-6 -64 -5 -102 0 -46 -4 -72 -13 -77 -7 -4 -11 -23 -10 -42 1 -19 -4 -39 -11
-45 -12 -10 -13 14 -9 145 3 113 2 154 -6 149 -8 -5 -10 -27 -6 -64 3 -31 1
-100 -4 -152 -6 -52 -7 -99 -3 -103 16 -17 50 30 64 87 22 96 32 86 63 -62 3
-17 10 -22 27 -20 17 2 22 10 24 33 1 18 -1 22 -4 10 -8 -31 -21 -41 -35 -26
-10 11 -10 13 0 7 13 -8 17 6 5 18 -4 4 -13 33 -19 64 -9 46 -9 62 2 82 14 27
15 24 18 -40 0 -16 7 -35 15 -42 11 -11 13 -7 8 27 -3 22 -8 48 -12 58 -6 15
-1 17 37 17 l45 0 13 55 c10 43 10 57 1 69 -10 12 -7 22 14 55 22 35 30 41 60
41 40 0 41 2 18 41 -19 32 -40 40 -23 9 12 -22 6 -40 -12 -40 -7 0 -6 6 2 15
8 10 9 15 2 15 -6 0 -18 12 -27 28 l-15 27 3 -25z m-24 -182 c0 -7 -4 -22 -9
-33 -7 -17 -9 -15 -9 13 -1 17 4 32 9 32 6 0 10 -6 9 -12z m-47 -56 c-6 -2 -8
-10 -5 -18 4 -10 -3 -14 -28 -13 -19 1 -26 3 -16 6 9 2 17 9 17 15 0 6 8 20
18 31 16 18 17 18 21 1 2 -10 -1 -20 -7 -22z m25 -34 c-3 -8 -6 -5 -6 6 -1 11
2 17 5 13 3 -3 4 -12 1 -19z"/>
<path d="M3135 4288 c-88 -37 -95 -41 -115 -74 -22 -35 -36 -124 -17 -105 21
21 45 12 58 -23 12 -32 16 -34 71 -40 50 -6 62 -4 85 14 34 27 65 77 53 85 -6
4 -10 2 -10 -3 0 -5 -19 8 -42 29 -28 25 -46 35 -52 29 -6 -6 -27 -10 -47 -10
-29 0 -38 -4 -43 -22 -6 -21 -7 -22 -17 -5 -8 14 -7 24 5 42 13 19 27 25 80
30 56 6 70 4 101 -14 38 -22 55 -26 55 -13 0 5 -22 20 -50 33 -48 23 -66 49
-34 49 19 0 127 -65 147 -89 16 -19 43 -92 51 -141 3 -20 20 -71 36 -113 16
-43 31 -91 32 -107 2 -32 18 -42 18 -12 0 10 -18 71 -40 136 -22 65 -40 128
-40 140 0 12 -11 44 -25 72 -20 38 -40 58 -87 87 -76 47 -108 52 -173 25z m40
-18 c-3 -5 -16 -10 -28 -10 -18 0 -19 2 -7 10 20 13 43 13 35 0z m-164 -113
c-10 -9 -11 -8 -5 6 3 10 9 15 12 12 3 -3 0 -11 -7 -18z m188 -3 c26 -33 27
-70 2 -84 -11 -5 -40 -7 -66 -3 -37 5 -49 11 -60 33 -13 25 -12 29 8 48 12 11
36 22 52 25 17 2 33 5 37 6 4 0 16 -11 27 -25z m-149 -5 c0 -5 -4 -9 -10 -9
-5 0 -10 7 -10 16 0 8 5 12 10 9 6 -3 10 -10 10 -16z"/>
<path d="M5563 4275 c-7 -7 -10 -15 -8 -17 9 -9 -14 -323 -24 -326 -6 -2 -8
-14 -5 -28 7 -29 -11 -55 -34 -47 -15 4 -15 3 -2 -6 23 -16 52 19 61 76 4 26
8 89 9 138 1 50 4 108 8 129 6 35 11 40 46 50 22 6 41 17 44 25 3 10 0 11 -16
2 -12 -6 -23 -7 -26 -2 -10 15 -41 18 -53 6z"/>
<path d="M5330 4120 c-17 -23 -23 -54 -30 -142 -5 -62 -10 -123 -10 -136 0
-13 -4 -21 -9 -18 -5 3 -8 -2 -7 -12 0 -9 -5 -16 -11 -15 -7 2 -13 -2 -13 -8
0 -6 8 -9 18 -7 23 4 41 60 41 134 l1 62 44 6 c50 8 71 27 81 76 l8 35 14 -30
c9 -20 12 -52 8 -95 -3 -36 -1 -72 5 -80 17 -26 13 166 -5 200 -34 65 -100 80
-135 30z m100 -26 c0 -8 -4 -14 -10 -14 -5 0 -7 -7 -4 -15 11 -26 -23 -65 -56
-65 -27 0 -30 3 -30 33 0 17 4 27 8 21 5 -7 14 -7 30 2 15 7 20 14 13 18 -12
8 -15 49 -5 59 9 9 54 -23 54 -39z"/>
<path d="M3039 4038 c31 -41 52 -59 75 -63 17 -4 42 -17 56 -30 14 -12 45 -33
70 -46 52 -28 60 -36 60 -66 0 -13 5 -23 10 -23 13 0 13 36 0 60 -5 10 -30 28
-54 40 -25 11 -61 34 -82 51 -20 16 -48 29 -61 29 -17 0 -30 11 -46 37 -12 21
-21 45 -19 53 2 13 1 13 -7 1 -8 -13 -12 -13 -27 0 -9 8 2 -12 25 -43z"/>
<path d="M2160 4070 c0 -5 5 -10 11 -10 5 0 7 5 4 10 -3 6 -8 10 -11 10 -2 0
-4 -4 -4 -10z"/>
<path d="M694 4034 c3 -9 6 -21 6 -27 0 -8 3 -8 10 -1 12 12 3 44 -12 44 -6 0
-7 -7 -4 -16z"/>
<path d="M665 4019 c-11 -17 1 -21 15 -4 8 9 8 15 2 15 -6 0 -14 -5 -17 -11z"/>
<path d="M5240 3914 c0 -59 3 -105 6 -101 10 10 12 197 3 203 -5 3 -9 -42 -9
-102z"/>
<path d="M5511 4003 c0 -6 -4 -20 -7 -30 -5 -14 -4 -15 5 -7 7 7 11 20 8 30
-3 11 -5 14 -6 7z"/>
<path d="M2110 3969 c7 -11 14 -19 16 -16 7 7 -7 37 -17 37 -6 0 -5 -9 1 -21z"/>
<path d="M6371 3954 c0 -11 3 -14 6 -6 3 7 2 16 -1 19 -3 4 -6 -2 -5 -13z"/>
<path d="M6395 3960 c-3 -5 -1 -18 4 -27 9 -16 10 -14 11 10 0 28 -5 34 -15
17z"/>
<path d="M800 3915 c0 -18 19 -40 26 -32 4 4 0 15 -9 24 -9 10 -17 13 -17 8z"/>
<path d="M775 3890 c10 -11 20 -18 23 -15 7 6 -18 35 -31 35 -5 0 -2 -9 8 -20z"/>
<path d="M2210 3895 c0 -9 6 -12 15 -9 8 4 15 10 15 15 0 5 -7 9 -15 9 -8 0
-15 -7 -15 -15z"/>
<path d="M850 3890 c0 -5 5 -10 11 -10 5 0 7 5 4 10 -3 6 -8 10 -11 10 -2 0
-4 -4 -4 -10z"/>
<path d="M670 3874 c0 -8 5 -12 10 -9 6 3 10 10 10 16 0 5 -4 9 -10 9 -5 0
-10 -7 -10 -16z"/>
<path d="M6434 3875 c11 -8 24 -15 30 -15 5 0 1 7 -10 15 -10 8 -23 14 -29 14
-5 0 -1 -6 9 -14z"/>
<path d="M5452 3631 c-58 -54 -68 -120 -26 -170 28 -33 81 -49 110 -33 14 8
28 5 56 -9 20 -10 44 -19 53 -19 24 0 17 36 -11 55 -25 16 -26 21 -20 71 5 47
3 59 -16 87 -13 17 -23 33 -24 34 0 2 -20 6 -45 9 -39 5 -48 2 -77 -25z m94
-46 c13 -14 21 -32 18 -40 -7 -17 -20 -19 -29 -5 -3 6 -15 10 -27 10 -19 0
-20 -4 -14 -41 7 -42 7 -42 -16 -27 -33 22 -34 59 -3 97 32 38 41 38 71 6z"/>
<path d="M4232 3618 c-16 -16 -15 -45 2 -55 8 -5 16 -40 22 -93 8 -78 11 -85
32 -88 23 -3 23 -1 21 54 l-3 58 42 14 c104 34 64 122 -56 122 -26 0 -53 -5
-60 -12z m112 -47 c3 -5 -1 -12 -10 -15 -25 -10 -34 -7 -34 9 0 16 35 21 44 6z"/>
<path d="M2083 3599 c-7 -7 -10 -24 -7 -38 3 -14 -1 -44 -9 -66 -16 -46 -13
-65 13 -65 11 0 22 11 29 30 12 36 14 36 51 9 19 -14 36 -20 52 -16 27 7 73
80 64 102 -9 25 -35 17 -51 -15 -9 -16 -21 -30 -29 -30 -19 0 -46 33 -55 66
-8 31 -38 43 -58 23z"/>
<path d="M6433 3593 c-36 -7 -48 -29 -31 -55 9 -13 17 -49 20 -81 5 -65 22
-85 50 -61 15 14 20 13 55 -10 21 -14 46 -26 55 -26 30 0 21 37 -15 59 -18 11
-41 29 -50 39 -16 17 -16 20 8 42 31 29 33 75 6 90 -20 10 -56 11 -98 3z m57
-53 c0 -5 -4 -10 -10 -10 -5 0 -10 5 -10 10 0 6 5 10 10 10 6 0 10 -4 10 -10z"/>
<path d="M3204 3572 c-24 -17 -44 -59 -44 -93 0 -75 82 -125 154 -95 40 17 56
42 56 89 0 45 -36 81 -95 96 -51 13 -56 13 -71 3z m84 -62 c22 -14 32 -27 32
-45 0 -46 -74 -54 -102 -11 -18 27 -1 76 27 76 5 0 25 -9 43 -20z"/>
<path d="M675 3540 c-3 -6 -3 -19 0 -31 4 -11 1 -43 -5 -71 -10 -40 -10 -52 0
-58 22 -14 39 0 46 36 6 34 17 43 29 24 13 -20 55 -11 67 15 6 14 14 25 18 25
3 0 16 -20 28 -45 15 -31 28 -45 42 -45 27 0 25 16 -10 94 -25 56 -33 66 -54
66 -17 0 -30 -9 -43 -30 -9 -16 -20 -30 -23 -30 -4 0 -19 14 -35 30 -30 31
-49 37 -60 20z"/>
<path d="M4054 3135 c-6 -23 8 -194 22 -279 7 -37 6 -39 -16 -33 -27 7 -102
-40 -121 -75 -19 -35 -3 -159 31 -244 16 -42 30 -89 30 -105 0 -17 4 -28 9
-25 11 7 -9 98 -31 141 -8 17 -18 48 -21 70 -3 22 -8 52 -12 68 -3 16 -1 27 5
27 14 0 31 -46 24 -64 -4 -12 1 -13 31 -6 52 12 65 4 66 -39 2 -31 3 -32 6 -7
3 15 13 44 24 63 16 27 17 38 8 49 -7 8 -9 17 -6 20 11 11 25 -6 31 -39 4 -22
12 -33 25 -34 18 -2 18 0 3 39 -10 26 -29 48 -50 61 -39 23 -40 54 -2 49 14
-1 27 -7 28 -12 2 -6 9 -10 15 -10 13 0 77 -69 77 -83 0 -5 6 -7 13 -4 6 2 17
-8 24 -22 7 -17 12 -20 12 -10 1 9 -7 34 -16 55 -16 38 -18 103 -10 364 2 51
-1 65 -13 65 -13 0 -29 -53 -66 -220 l-7 -30 -14 35 c-8 19 -21 79 -28 132 -7
54 -18 105 -25 113 -19 22 -39 18 -46 -10z m44 -17 c6 -18 13 -55 16 -83 4
-27 14 -87 23 -132 15 -71 20 -82 40 -86 13 -2 26 0 29 4 3 5 -2 9 -10 9 -20
0 -20 20 0 109 11 46 21 71 30 71 15 0 18 -29 8 -67 -4 -13 -11 -20 -20 -16
-8 3 -14 0 -14 -6 0 -6 6 -11 14 -11 9 0 15 -24 19 -92 4 -51 9 -104 12 -118
5 -20 2 -18 -17 11 -21 34 -44 51 -110 77 -21 9 -28 18 -28 39 0 15 -5 64 -12
110 -11 78 -11 84 8 98 18 14 18 16 -8 19 -15 1 -22 38 -14 72 9 33 23 30 34
-8z m148 -84 c-8 -21 -26 -17 -26 6 0 10 6 32 13 47 l12 28 3 -34 c2 -18 1
-39 -2 -47z m-188 -243 c2 -13 0 -35 -3 -50 -7 -26 -8 -26 -25 14 -12 28 -14
44 -7 53 14 18 31 10 35 -17z m-47 -43 c18 -45 18 -123 0 -123 -8 0 -19 15
-24 35 -12 46 -27 66 -38 48 -6 -9 -9 -7 -9 7 0 17 36 63 51 64 4 1 13 -13 20
-31z m77 -84 c0 -30 -4 -44 -13 -44 -22 0 -28 18 -20 66 5 36 9 43 20 34 7 -6
13 -30 13 -56z"/>
<path d="M4090 2925 c0 -8 5 -15 10 -15 6 0 10 7 10 15 0 8 -4 15 -10 15 -5 0
-10 -7 -10 -15z"/>
<path d="M3990 2699 c0 -5 5 -7 10 -4 6 3 10 8 10 11 0 2 -4 4 -10 4 -5 0 -10
-5 -10 -11z"/>
<path d="M5216 3128 c-12 -17 -16 -50 -16 -142 0 -66 -4 -116 -8 -111 -5 6
-16 35 -25 65 -29 90 -59 145 -82 145 -18 0 -20 -6 -18 -50 1 -27 12 -87 26
-132 l24 -83 -27 0 c-56 0 -65 -46 -39 -197 10 -62 26 -129 34 -149 8 -20 15
-45 15 -55 0 -10 4 -20 9 -23 11 -7 6 16 -20 104 -24 84 -46 227 -39 264 3 16
13 34 23 40 29 18 59 -26 51 -73 -4 -20 -8 -38 -10 -40 -6 -6 -15 5 -18 21 -1
7 -5 19 -9 26 -5 6 -5 17 -2 22 3 6 2 10 -3 10 -21 0 -21 -33 0 -63 15 -21 18
-32 10 -35 -28 -9 -9 -20 20 -11 18 5 44 9 59 9 30 0 69 -38 69 -68 0 -11 5
-24 11 -28 8 -4 9 0 4 15 -4 13 -2 21 5 21 6 0 -2 17 -18 38 -22 28 -39 38
-62 40 -40 3 -50 9 -50 29 0 13 9 15 55 10 44 -4 63 -13 97 -41 23 -20 51 -36
62 -35 20 0 20 1 2 12 -11 7 -33 24 -49 39 -16 15 -38 30 -48 33 -22 7 -25 21
-6 28 6 2 9 8 5 12 -4 4 -16 -3 -26 -15 -11 -14 -24 -20 -31 -16 -9 6 -9 11 0
22 6 8 8 14 4 14 -4 0 -14 -8 -21 -17 -12 -16 -15 -16 -24 -3 -14 22 -12 40 5
40 8 0 15 5 15 11 0 6 -6 9 -14 6 -18 -7 -31 9 -40 45 -5 22 -3 26 9 22 9 -4
15 0 15 9 0 8 -7 14 -16 13 -23 -2 -41 51 -25 76 6 10 7 18 2 18 -5 0 -12 -6
-14 -12 -3 -7 -6 -3 -6 8 -1 12 -4 36 -7 54 -6 27 -4 31 10 29 18 -4 52 -80
81 -181 9 -31 22 -62 30 -68 18 -15 17 -21 15 121 -1 58 2 122 5 143 8 41 34
49 37 11 0 -14 1 -31 2 -37 1 -7 -5 -12 -11 -10 -15 2 -18 -15 -3 -20 5 -1 12
-37 14 -78 5 -79 19 -130 36 -130 5 0 17 16 25 36 10 25 19 34 30 30 8 -3 15
-1 15 4 0 6 -7 10 -15 10 -21 0 -19 20 3 21 14 0 15 1 1 7 -12 6 -13 15 -7 48
8 37 11 41 33 36 27 -5 27 -14 -2 -130 -17 -67 -13 -214 6 -251 8 -15 2 -40
-29 -114 -39 -93 -50 -147 -30 -147 6 0 10 17 10 38 0 23 14 67 36 112 l35 74
-15 63 c-22 87 -20 140 10 274 29 123 27 173 -4 167 -24 -4 -49 -61 -71 -162
-11 -48 -22 -91 -26 -94 -16 -16 -25 32 -25 135 0 149 -17 194 -54 141z m193
-81 c1 -14 -4 -17 -21 -11 -32 9 -33 10 -13 41 17 26 19 26 26 8 4 -11 8 -28
8 -38z"/>
<path d="M2118 3112 c-18 -3 -21 -11 -36 -87 -5 -27 -13 -40 -24 -40 -9 0 -25
-8 -35 -18 -11 -9 -22 -14 -26 -11 -4 4 -17 0 -30 -9 -13 -8 -34 -17 -48 -19
-43 -6 -61 -58 -56 -166 4 -80 9 -101 37 -157 18 -36 37 -82 41 -103 l8 -37
-2 45 c0 30 -9 58 -27 85 -31 48 -50 118 -50 185 0 48 1 50 28 50 21 0 24 -2
12 -10 -13 -8 -13 -11 -1 -19 8 -5 11 -16 8 -24 -3 -9 1 -18 8 -21 9 -3 12
-12 8 -22 -6 -17 -5 -17 17 -1 30 21 47 22 31 3 -7 -9 -8 -17 -2 -20 5 -3 11
-1 13 6 3 7 11 9 24 3 33 -14 44 -14 44 1 0 13 18 19 48 15 10 -2 12 4 7 21
l-8 23 23 -20 c25 -21 25 -21 4 30 -5 11 -2 14 11 9 16 -7 16 -5 -1 22 -11 15
-14 25 -8 21 12 -7 11 46 -2 77 -5 13 -3 21 4 24 7 2 10 13 6 29 -6 23 -5 24
15 11 11 -7 21 -21 21 -31 0 -28 30 -126 41 -132 5 -4 9 -18 9 -33 0 -42 -31
-165 -47 -183 -14 -16 -19 -119 -5 -119 4 0 6 20 4 44 -3 28 2 53 11 67 19 30
47 136 47 178 0 18 -6 44 -14 59 -21 41 -38 144 -26 156 12 12 12 54 0 81 -7
14 -8 5 -5 -27 4 -41 3 -48 -13 -48 -12 0 -21 11 -27 32 -6 18 -17 34 -26 36
-14 3 -16 -5 -12 -54 4 -48 2 -56 -9 -47 -10 8 -12 28 -8 70 l5 58 38 0 c20 0
37 3 37 6 0 9 -40 16 -62 11z m-24 -168 c32 -33 35 -79 6 -87 -11 -3 -20 -11
-20 -17 0 -10 3 -10 15 0 13 11 15 8 15 -14 0 -15 -4 -25 -8 -22 -5 3 -8 -5
-8 -17 1 -12 -6 -23 -15 -25 -14 -2 -15 7 -11 73 4 68 2 78 -17 99 -39 41 2
51 43 10z m-61 -22 c12 -11 17 -30 17 -74 0 -64 -12 -98 -35 -98 -18 0 -17 -2
-21 73 -2 40 -9 65 -21 79 -17 19 -17 20 1 34 20 14 29 12 59 -14z m-81 -31
c20 -20 26 -36 23 -57 -2 -16 -4 -39 -4 -52 -1 -13 -6 -22 -13 -20 -11 4 -16
16 -25 75 -5 31 -6 32 -29 16 -22 -14 -24 -14 -24 4 0 19 26 63 38 63 4 0 19
-13 34 -29z"/>
<path d="M3170 3105 c-9 -10 -15 -64 -19 -153 l-6 -137 -26 -3 c-16 -2 -32
-13 -39 -28 -7 -13 -21 -24 -31 -24 -30 0 -46 -26 -53 -85 -7 -59 12 -152 53
-265 28 -78 26 -43 -3 43 -19 58 -46 164 -46 181 0 2 7 7 16 10 12 4 15 2 10
-9 -3 -9 0 -15 10 -15 10 0 14 -6 10 -15 -4 -10 1 -15 15 -15 15 0 19 -5 15
-15 -4 -13 -2 -14 14 -5 22 12 27 1 8 -18 -6 -6 -9 -14 -6 -18 4 -3 14 9 23
26 14 27 15 34 3 41 -10 7 -9 9 4 9 9 0 18 -5 20 -12 3 -7 13 -3 28 12 l23 23
23 -28 c21 -26 24 -27 30 -11 4 10 2 26 -5 35 -6 9 -17 28 -23 42 -7 15 -24
29 -42 35 -17 5 -32 17 -34 27 -3 15 2 18 25 15 15 -2 27 -8 26 -15 -2 -7 4
-10 12 -7 9 4 26 -7 42 -27 16 -18 38 -42 51 -54 30 -30 29 -85 -3 -163 -25
-63 -32 -112 -16 -112 5 0 7 8 4 19 -2 10 9 51 26 90 l30 72 -14 77 c-8 42
-21 109 -30 147 -8 39 -15 97 -16 130 -1 34 -4 46 -6 29 -3 -26 -8 -32 -29
-30 -31 1 -33 36 -2 55 l22 14 -22 8 c-19 7 -22 14 -18 45 3 20 7 39 11 42 11
11 29 -18 36 -60 6 -37 7 -39 8 -11 2 46 -15 83 -38 83 -10 0 -21 9 -24 20 -6
24 -30 26 -47 5z m36 -19 c8 -34 1 -71 -14 -68 -6 1 -12 -5 -12 -13 0 -8 5
-15 10 -15 6 0 10 -18 10 -39 0 -35 -2 -39 -21 -34 -21 6 -21 10 -16 82 6 82
14 111 28 111 5 0 11 -11 15 -24z m-6 -230 c0 -19 -6 -36 -12 -39 -7 -2 -10
-8 -6 -12 16 -17 38 5 38 40 0 31 3 35 25 35 22 0 25 -4 26 -37 0 -21 8 -68
18 -105 9 -38 14 -68 9 -68 -4 0 -9 5 -9 10 -1 6 -2 15 -3 21 -2 15 -77 59
-102 59 -27 0 -31 12 -26 78 3 43 7 52 23 52 15 0 19 -7 19 -34z m-71 -70 c8
-10 7 -22 -4 -49 -13 -32 -13 -35 3 -39 10 -3 18 -14 19 -24 1 -11 3 -26 5
-33 4 -19 -31 -27 -36 -9 -2 7 -11 39 -20 70 -13 43 -14 63 -6 78 13 23 23 25
39 6z m-66 -61 c16 -15 43 -113 34 -122 -11 -10 -30 11 -53 61 -13 28 -24 47
-24 42 0 -5 -2 -7 -5 -4 -9 9 6 38 20 38 8 0 20 -7 28 -15z m-46 -57 c-3 -8
-6 -5 -6 6 -1 11 2 17 5 13 3 -3 4 -12 1 -19z m173 -8 c0 -11 -4 -20 -10 -20
-5 0 -10 2 -10 4 0 2 -3 11 -6 20 -4 11 -1 16 10 16 9 0 16 -8 16 -20z"/>
<path d="M6331 3091 c-23 -18 -23 -18 -3 -23 14 -4 19 -2 16 7 -10 24 30 26
91 4 33 -12 64 -26 70 -31 5 -4 12 -42 16 -84 4 -42 13 -82 19 -88 9 -8 10 -5
5 14 -7 21 -6 23 7 12 11 -9 18 -43 23 -120 4 -59 13 -154 21 -212 l13 -105
-4 85 c-9 206 -27 344 -46 366 -10 11 -19 33 -20 50 0 16 -5 45 -12 63 -10 29
-22 39 -67 57 -67 28 -98 29 -129 5z"/>
<path d="M798 3056 c-9 -9 -20 -11 -36 -5 -16 6 -27 4 -40 -9 -9 -9 -45 -30
-78 -46 -70 -33 -86 -55 -104 -143 l-13 -62 37 -77 c21 -42 44 -106 51 -143
l14 -66 -5 65 c-3 48 -14 83 -39 132 -38 73 -49 158 -21 158 8 0 16 -10 18
-22 2 -19 10 -23 38 -24 54 -2 55 -3 34 -20 -12 -11 -7 -9 16 3 19 11 50 25
69 31 29 10 32 10 21 -3 -7 -8 -21 -15 -31 -15 -24 0 -33 -16 -13 -24 9 -4 13
-2 8 5 -4 7 -1 10 6 7 7 -2 25 7 39 20 25 23 26 23 35 3 5 -12 15 -21 23 -21
10 0 11 5 3 19 -14 27 -13 31 8 31 9 0 24 5 32 11 12 8 9 9 -12 5 -22 -5 -33
-1 -50 19 -15 17 -36 27 -70 31 -38 5 -48 10 -48 25 0 14 7 19 30 19 17 0 30
-4 30 -9 0 -4 11 -6 24 -4 13 3 46 -6 75 -20 51 -24 79 -21 42 5 -16 12 -17
17 -7 36 11 22 14 19 39 -43 32 -78 35 -142 8 -176 -55 -71 -87 -179 -63 -216
5 -7 8 11 8 40 -1 46 6 64 48 137 59 102 58 122 -8 264 -42 90 -47 96 -75 96
-17 0 -36 -6 -43 -14z m72 -17 c7 -11 9 -23 6 -27 -3 -3 -6 0 -6 7 0 7 -4 10
-9 7 -5 -3 -7 -15 -4 -25 8 -31 -8 -50 -34 -40 -19 7 -23 16 -23 48 0 22 5 42
13 44 26 11 47 6 57 -14z m-96 -7 c3 -5 7 -21 10 -36 4 -24 2 -27 -21 -24 -30
3 -49 28 -40 52 7 17 42 22 51 8z m-71 -55 c-3 -4 -11 -6 -19 -3 -9 3 -14 -1
-14 -12 0 -15 -2 -15 -10 -2 -7 11 -4 20 12 33 16 14 23 15 29 5 4 -6 5 -16 2
-21z m-64 -21 c18 -21 10 -107 -11 -120 -23 -14 -26 -9 -30 44 -2 25 -7 50
-11 57 -4 7 0 16 10 22 24 14 28 13 42 -3z m55 -52 c22 -8 20 -27 -4 -49 -19
-18 -20 -17 -20 5 0 16 4 20 15 16 8 -3 15 -1 15 4 0 6 -7 10 -15 10 -8 0 -15
5 -15 10 0 12 3 12 24 4z m-120 -19 c3 -8 1 -15 -4 -15 -6 0 -10 7 -10 15 0 8
2 15 4 15 2 0 6 -7 10 -15z m206 -2 c8 -7 -32 -33 -52 -33 -15 0 -16 3 -6 25
9 19 16 24 32 19 12 -4 23 -9 26 -11z"/>
<path d="M740 3001 c0 -6 5 -13 10 -16 6 -3 10 1 10 9 0 9 -4 16 -10 16 -5 0
-10 -4 -10 -9z"/>
<path d="M6351 3047 c-31 -19 -35 -19 -46 -4 -15 21 -25 22 -25 2 0 -23 27
-29 70 -15 56 18 90 7 90 -30 0 -32 -22 -50 -63 -50 -14 0 -30 -7 -37 -15 -7
-8 -20 -15 -30 -15 -17 0 -64 -72 -54 -82 2 -3 6 -24 9 -49 4 -29 14 -52 30
-67 17 -15 25 -34 25 -55 0 -20 10 -47 25 -67 21 -28 25 -45 25 -103 0 -84 16
-81 19 3 1 43 -3 69 -14 86 -10 16 -13 30 -7 40 8 14 10 12 16 -10 7 -30 26
-35 26 -8 0 11 -20 39 -44 63 -29 29 -45 54 -47 74 -2 17 -9 39 -16 50 -7 11
-13 23 -13 28 0 16 45 -6 71 -36 24 -27 30 -29 74 -25 50 6 100 38 58 38 -13
0 -24 8 -28 20 -3 11 -11 20 -16 20 -5 0 -9 9 -9 19 0 26 -10 51 -21 51 -5 0
-9 -9 -9 -20 0 -24 -8 -25 -32 -3 -10 9 -18 11 -18 5 0 -6 8 -16 18 -21 13 -8
14 -13 4 -19 -17 -12 -4 -42 18 -42 25 0 35 -19 16 -26 -10 -4 -29 7 -51 29
-28 28 -34 41 -32 66 5 40 13 48 64 59 36 8 42 7 46 -9 3 -11 12 -19 21 -19
20 0 21 19 1 26 -18 7 -21 84 -3 102 9 9 3 12 -31 12 -25 0 -40 4 -36 10 9 15
-6 11 -44 -13z m-37 -188 c-3 -5 -9 -9 -15 -9 -11 0 -12 43 -2 54 9 9 25 -33
17 -45z m116 -19 c0 -5 -4 -10 -10 -10 -5 0 -10 5 -10 10 0 6 5 10 10 10 6 0
10 -4 10 -10z m-136 -73 c4 -19 3 -26 -4 -22 -5 3 -10 18 -10 32 0 32 5 28 14
-10z"/>
<path d="M675 2780 c-3 -5 -1 -10 4 -10 6 0 11 5 11 10 0 6 -2 10 -4 10 -3 0
-8 -4 -11 -10z"/>
<path d="M840 2750 c0 -5 5 -10 10 -10 6 0 10 5 10 10 0 6 -4 10 -10 10 -5 0
-10 -4 -10 -10z"/>
<path d="M690 2723 c0 -7 6 -12 13 -10 8 1 11 -11 9 -40 -1 -23 3 -45 8 -48 7
-4 9 3 5 22 -6 25 -5 26 6 8 21 -36 62 -75 78 -75 12 1 11 3 -4 12 -30 16 -53
48 -70 99 -14 42 -45 64 -45 32z"/>
<path d="M800 2731 c0 -5 7 -12 16 -15 14 -5 15 -4 4 9 -14 17 -20 19 -20 6z"/>
<path d="M2007 2676 c-3 -8 -2 -18 3 -21 13 -8 24 15 12 27 -6 6 -11 4 -15 -6z"/>
<path d="M660 2650 c0 -5 5 -10 10 -10 6 0 10 5 10 10 0 6 -4 10 -10 10 -5 0
-10 -4 -10 -10z"/>
<path d="M5183 2646 c3 -7 -1 -23 -9 -35 -20 -28 -7 -27 16 1 18 22 17 48 -2
48 -6 0 -8 -6 -5 -14z"/>
<path d="M2037 2643 c-12 -12 -7 -22 8 -17 8 4 15 10 15 15 0 11 -14 12 -23 2z"/>
<path d="M4122 2615 c0 -16 2 -22 5 -12 2 9 2 23 0 30 -3 6 -5 -1 -5 -18z"/>
<path d="M5135 2615 c-16 -13 -25 -24 -20 -24 6 0 24 11 40 24 17 14 26 25 20
25 -5 0 -23 -11 -40 -25z"/>
<path d="M5217 2623 c-10 -9 -9 -43 1 -43 4 0 9 11 10 25 2 26 0 29 -11 18z"/>
<path d="M813 2613 c9 -2 23 -2 30 0 6 3 -1 5 -18 5 -16 0 -22 -2 -12 -5z"/>
<path d="M4271 2591 c-1 -8 -14 -35 -31 -61 -32 -49 -52 -140 -31 -140 6 0 11
16 11 35 0 20 14 63 31 96 16 33 28 66 25 72 -3 8 -5 7 -5 -2z"/>
<path d="M3190 2571 c0 -11 4 -22 9 -25 4 -3 6 6 3 19 -5 30 -12 33 -12 6z"/>
<path d="M5285 2580 c3 -5 11 -10 16 -10 6 0 7 5 4 10 -3 6 -11 10 -16 10 -6
0 -7 -4 -4 -10z"/>
<path d="M3130 2540 c0 -22 2 -40 4 -40 2 0 6 18 8 40 2 22 0 40 -4 40 -5 0
-8 -18 -8 -40z"/>
<path d="M3167 2573 c-4 -3 -7 -13 -7 -22 1 -13 3 -13 11 2 11 19 8 33 -4 20z"/>
<path d="M5162 2550 c0 -14 2 -19 5 -12 2 6 2 18 0 25 -3 6 -5 1 -5 -13z"/>
<path d="M5271 2544 c6 -8 18 -14 26 -14 20 0 8 16 -17 23 -17 4 -19 3 -9 -9z"/>
<path d="M5217 2480 c3 -11 9 -20 13 -20 5 0 6 9 3 20 -3 11 -9 20 -13 20 -5
0 -6 -9 -3 -20z"/>
<path d="M3120 2439 c0 -5 5 -7 10 -4 6 3 10 8 10 11 0 2 -4 4 -10 4 -5 0 -10
-5 -10 -11z"/>
<path d="M5230 2440 c0 -5 5 -10 11 -10 5 0 7 5 4 10 -3 6 -8 10 -11 10 -2 0
-4 -4 -4 -10z"/>
<path d="M740 2313 c-65 -25 -80 -95 -30 -145 36 -35 36 -38 8 -38 -32 0 -52
-15 -45 -34 12 -30 132 -18 142 14 8 26 -2 42 -45 73 -53 38 -53 64 0 84 27
11 40 22 38 32 -3 16 -41 24 -68 14z"/>
<path d="M2010 2295 c-18 -22 -3 -35 41 -35 l39 0 0 -42 c0 -24 3 -60 7 -81 5
-31 9 -38 27 -35 18 3 21 10 22 58 1 105 -3 99 62 102 50 3 57 6 60 26 3 22 2
22 -121 22 -97 0 -127 -3 -137 -15z"/>
<path d="M6554 2215 l-18 -35 -29 32 c-25 27 -30 29 -43 16 -13 -12 -12 -20 8
-57 l23 -42 -38 -33 c-25 -23 -35 -39 -31 -50 9 -24 29 -20 69 15 l36 32 50
-28 c27 -15 56 -24 64 -21 27 10 16 35 -24 56 -22 11 -42 24 -46 30 -3 5 5 29
19 53 32 54 32 67 3 67 -17 0 -29 -10 -43 -35z"/>
<path d="M5417 2174 c-4 -4 -10 -29 -13 -56 -4 -27 -11 -51 -17 -55 -5 -3 -24
11 -41 31 -34 40 -41 39 -75 -17 -22 -35 -24 -37 -36 -20 -7 10 -18 38 -24 61
-9 31 -17 42 -32 42 -29 0 -33 -24 -14 -73 23 -57 62 -107 85 -107 10 0 30 14
44 32 l25 32 23 -21 c22 -21 39 -27 66 -24 34 3 64 172 32 178 -9 2 -19 1 -23
-3z"/>
<path d="M3137 2124 c-22 -22 22 -118 64 -139 73 -38 159 11 159 90 0 13 -5
27 -10 30 -15 9 -40 -13 -40 -35 0 -20 -31 -50 -52 -50 -25 0 -61 35 -73 71
-11 33 -33 48 -48 33z"/>
<path d="M4080 2108 c0 -36 63 -132 88 -136 18 -3 26 8 52 64 17 38 28 74 25
82 -9 23 -39 8 -61 -31 -23 -41 -33 -38 -53 16 -13 35 -51 38 -51 5z"/>
<path d="M7190 1990 c-19 -4 -51 -10 -70 -14 -117 -23 -444 -131 -702 -232
-76 -30 -140 -54 -142 -54 -2 0 -75 -34 -162 -76 -179 -86 -235 -111 -354
-161 -81 -34 -95 -36 -275 -49 -104 -7 -293 -13 -420 -13 -565 -2 -810 -38
-1054 -156 -73 -36 -141 -65 -150 -65 -9 0 -77 -29 -151 -64 -74 -35 -180 -85
-235 -110 -55 -25 -107 -50 -115 -56 -174 -109 -382 -226 -525 -295 -99 -47
-215 -107 -258 -133 -44 -26 -93 -55 -110 -66 -41 -24 -239 -98 -457 -172
-183 -62 -269 -65 -1397 -49 l-613 8 0 -112 0 -111 3730 0 3730 0 0 995 0 995
-117 -1 c-65 -1 -134 -5 -153 -9z m-1931 -960 c13 -33 27 -60 32 -60 4 0 7 32
7 71 0 39 5 76 10 81 16 16 32 0 32 -32 0 -23 4 -27 19 -23 28 7 60 -14 68
-45 7 -27 7 -27 13 8 3 19 1 41 -4 49 -13 18 22 46 39 31 7 -5 16 -6 21 -2 4
4 3 0 -3 -9 -7 -8 -13 -57 -15 -110 -2 -76 -6 -94 -18 -94 -11 0 -17 15 -20
50 -6 49 -6 50 -19 23 -20 -38 -79 -46 -118 -15 -9 6 -13 6 -13 -2 0 -19 -38
-12 -45 9 -4 14 -15 20 -36 20 -18 0 -33 -7 -41 -20 -14 -21 -33 -26 -43 -11
-3 6 13 49 36 97 41 84 43 86 58 65 9 -12 27 -49 40 -81z m512 10 c-1 -46 -4
-87 -7 -91 -7 -12 -68 -17 -92 -8 -14 6 -25 20 -29 41 l-7 33 -6 -35 c-5 -31
-9 -35 -45 -41 -65 -11 -98 22 -87 87 6 31 35 45 87 37 36 -5 45 -10 45 -26 0
-17 2 -17 21 8 17 21 28 26 51 23 25 -4 29 -2 26 16 -3 28 10 48 29 44 13 -2
16 -18 14 -88z m217 9 c5 -117 0 -122 -95 -110 -22 2 -44 57 -34 84 14 36 50
59 73 46 15 -8 18 -6 18 19 0 16 3 32 7 36 18 18 28 -7 31 -75z m210 6 c4 -82
-3 -115 -23 -115 -18 0 -16 -8 -21 75 -6 87 1 117 24 113 14 -3 18 -16 20 -73z
m116 8 c23 9 33 -23 26 -80 -5 -45 -6 -45 -43 -48 -55 -3 -89 26 -85 74 2 30
9 39 38 53 24 12 36 14 41 6 4 -6 14 -8 23 -5z m-176 -62 c3 -58 2 -61 -20
-62 -13 0 -33 -2 -46 -5 -14 -2 -29 3 -39 16 -9 10 -19 17 -22 15 -4 -2 -6 12
-6 32 0 48 33 74 88 69 l42 -4 3 -61z m382 54 c6 -8 10 -35 8 -62 -2 -36 -7
-49 -20 -51 -15 -3 -18 4 -18 42 0 46 -12 61 -24 30 -4 -9 -4 -24 -1 -33 7
-23 -10 -45 -29 -38 -11 4 -16 19 -16 47 0 22 -4 40 -10 40 -5 0 -10 -20 -10
-45 0 -38 -3 -45 -20 -45 -18 0 -20 7 -20 58 0 32 2 61 5 63 11 12 145 6 155
-6z m-1179 -236 c33 -12 69 -36 69 -48 0 -3 -15 -23 -33 -43 l-32 -37 -44 15
c-34 11 -46 12 -58 3 -28 -23 -10 -50 57 -86 92 -49 112 -71 118 -132 6 -65
-2 -95 -36 -130 -75 -78 -177 -81 -267 -8 -28 23 -28 25 -13 48 19 29 57 69
64 69 3 0 17 -9 31 -20 33 -26 79 -26 93 -1 16 32 3 47 -76 85 -67 32 -77 40
-94 82 -25 58 -23 92 10 141 44 66 127 90 211 62z m329 1 c0 -3 1 -117 1 -255
l2 -250 -43 -3 c-92 -7 -86 -26 -80 255 l5 248 40 5 c54 7 75 7 75 0z m432
-27 c50 -45 62 -139 24 -182 -16 -17 -15 -19 8 -35 41 -26 59 -71 54 -134 -4
-46 -10 -60 -36 -83 -42 -38 -89 -49 -204 -49 -86 0 -99 2 -108 19 -11 21 -14
429 -4 468 7 27 42 31 163 21 59 -5 90 -13 103 -25z m330 -196 c2 -123 1 -237
-2 -253 -5 -28 -8 -29 -62 -32 l-57 -3 -3 246 c-2 146 1 250 7 256 5 5 33 9
62 9 l52 0 3 -223z"/>
<path d="M5340 1014 c-11 -12 -10 -18 3 -31 13 -13 19 -14 31 -3 20 16 20 36
0 44 -21 8 -20 8 -34 -10z"/>
<path d="M5546 1023 c-11 -12 -6 -41 9 -47 16 -6 38 25 27 40 -9 11 -27 15
-36 7z"/>
<path d="M5685 1020 c-5 -9 11 -50 20 -50 2 0 11 7 20 16 12 12 13 19 4 30
-13 16 -35 18 -44 4z"/>
<path d="M5907 1023 c-12 -11 -8 -41 6 -46 23 -9 40 8 32 32 -6 21 -25 28 -38
14z"/>
<path d="M6257 1016 c-3 -8 1 -22 8 -33 9 -11 14 -13 15 -5 0 7 5 10 10 7 6
-4 10 5 10 19 0 19 -5 26 -19 26 -10 0 -21 -6 -24 -14z"/>
<path d="M6063 1023 c-18 -7 -16 -40 1 -46 19 -8 38 16 30 37 -6 17 -10 18
-31 9z"/>
<path d="M5960 674 c0 -37 3 -44 20 -44 11 0 27 11 36 25 15 23 15 27 1 43 -9
10 -25 18 -37 19 -17 2 -20 -4 -20 -43z"/>
<path d="M5960 471 l0 -61 31 0 c48 0 69 16 69 54 0 40 -16 55 -64 63 l-36 6
0 -62z"/>
<path d="M2200 1807 c0 -19 16 -31 24 -18 3 5 -1 14 -9 21 -12 10 -15 10 -15
-3z"/>
<path d="M2154 1802 c-18 -11 -26 -49 -13 -58 7 -4 10 -3 7 2 -3 5 -1 20 4 34
l9 24 19 -29 c11 -17 20 -23 20 -15 -1 14 -23 50 -31 50 -2 0 -9 -4 -15 -8z"/>
<path d="M2296 1745 c-3 -9 0 -15 9 -15 16 0 20 16 6 24 -5 3 -11 -1 -15 -9z"/>
<path d="M479 1706 c-12 -26 -10 -47 32 -351 7 -44 17 -98 24 -120 7 -22 20
-71 30 -108 10 -37 20 -66 22 -63 6 6 -21 126 -41 182 -8 23 -17 72 -21 110
-4 38 -9 78 -11 88 -12 66 -24 179 -20 183 13 13 36 -9 36 -34 0 -15 9 -39 19
-52 16 -20 21 -22 41 -11 31 16 40 4 47 -64 6 -56 5 -58 -17 -54 -27 3 -40 28
-16 28 9 0 16 5 16 10 0 6 -7 10 -15 10 -10 0 -15 10 -15 28 -1 25 -2 26 -14
9 -8 -10 -12 -27 -9 -37 4 -13 0 -20 -10 -20 -8 0 -18 -7 -21 -16 -10 -26 -7
-28 13 -10 16 15 19 15 24 2 4 -9 2 -18 -3 -21 -30 -19 33 -60 64 -43 13 7 21
6 29 -2 7 -7 7 -10 2 -7 -6 3 -17 -4 -24 -15 -11 -18 -11 -20 2 -15 13 5 15
-1 12 -31 -3 -20 -2 -29 1 -19 3 9 9 17 14 17 16 0 18 55 2 82 -17 30 -12 44
13 34 10 -4 14 -13 11 -24 -5 -14 0 -18 23 -20 39 -3 51 15 60 90 5 34 9 50
10 34 2 -46 23 -106 37 -106 7 0 18 9 24 20 6 11 15 18 20 15 6 -3 7 0 5 8 -3
7 1 27 10 43 8 16 15 34 15 40 0 6 7 17 15 24 13 11 15 3 15 -62 l0 -75 -67
-99 c-69 -103 -89 -168 -65 -210 9 -15 11 -6 11 42 -1 58 1 64 65 159 l66 98
0 73 c0 40 3 79 6 88 4 11 0 16 -13 16 -14 0 -29 -19 -54 -67 -45 -89 -64 -93
-72 -17 -4 43 -12 64 -31 83 -23 22 -28 24 -50 11 -20 -10 -28 -11 -40 -1 -8
7 -20 10 -26 6 -6 -4 -24 -8 -38 -10 -15 -1 -34 -5 -43 -9 -14 -6 -19 5 -33
61 -27 106 -30 116 -43 120 -7 3 -18 -7 -24 -21z m31 -26 c0 -16 -4 -30 -10
-30 -5 0 -10 14 -10 30 0 17 5 30 10 30 6 0 10 -13 10 -30z m260 -171 c-6 -10
-10 -36 -10 -58 0 -34 -3 -41 -20 -41 -15 0 -20 7 -20 25 0 18 4 23 15 19 8
-4 15 -1 15 5 0 6 -7 11 -15 11 -11 0 -15 11 -15 36 0 27 3 35 14 31 11 -4 13
-1 9 11 -6 15 -4 15 15 -2 16 -14 19 -23 12 -37z m-106 29 c-5 -7 -2 -9 9 -5
20 7 27 -12 27 -74 0 -41 -3 -49 -19 -49 -15 0 -19 10 -24 62 -5 58 -3 78 9
78 3 0 2 -5 -2 -12z m-24 -153 c0 -21 -21 -28 -51 -16 -17 7 -19 10 -6 10 9 1
17 6 17 11 0 6 9 10 20 10 11 0 20 -7 20 -15z m108 -2 c-5 -26 -38 -29 -38 -4
0 15 6 21 21 21 14 0 19 -5 17 -17z"/>
<path d="M670 1450 c0 -5 5 -10 10 -10 6 0 10 5 10 10 0 6 -4 10 -10 10 -5 0
-10 -4 -10 -10z"/>
<path d="M2151 1693 c7 -22 15 -30 25 -26 12 5 13 8 3 17 -7 6 -19 18 -26 26
-10 12 -11 9 -2 -17z"/>
<path d="M2411 1664 c0 -11 3 -14 6 -6 3 7 2 16 -1 19 -3 4 -6 -2 -5 -13z"/>
<path d="M2170 1644 c0 -6 6 -30 14 -52 l14 -40 -43 -31 c-23 -17 -54 -35 -69
-40 -33 -13 -79 -86 -72 -115 3 -12 16 -38 30 -58 13 -20 27 -55 31 -79 6 -33
18 -53 56 -90 27 -26 49 -54 49 -61 0 -7 5 -20 10 -28 8 -12 10 -9 10 13 0 22
-13 41 -50 77 -27 27 -50 53 -50 58 0 6 -3 17 -6 26 -4 12 0 16 15 16 12 0 21
5 21 10 0 6 9 10 20 10 11 0 20 4 20 8 0 4 9 8 19 8 18 0 18 -2 5 -28 -8 -15
-14 -35 -14 -45 1 -11 6 -6 14 13 18 42 33 49 46 24 6 -11 16 -20 22 -20 6 0
3 9 -7 20 -24 27 -11 39 16 15 16 -16 22 -17 29 -6 5 10 -6 27 -36 56 -38 37
-50 43 -104 49 -41 5 -60 11 -57 19 6 19 76 17 87 -2 6 -10 10 -11 10 -3 0 15
30 16 30 1 0 -8 4 -8 13 -1 7 5 21 6 32 1 11 -4 26 -8 34 -8 11 -1 11 2 0 16
-8 9 -13 26 -12 37 3 20 2 20 -9 -1 -15 -32 -30 -29 -23 5 5 25 5 25 -4 5 -13
-29 -31 -30 -31 -2 0 25 -26 54 -35 39 -4 -6 -11 -7 -17 -4 -7 4 -8 -4 -3 -25
6 -28 4 -31 -15 -28 -45 7 -46 52 -2 100 30 32 39 34 45 10 3 -10 5 1 6 25 0
23 5 42 11 42 5 0 7 7 4 15 -3 8 -11 13 -17 12 -6 -1 -16 9 -24 23 -7 14 -13
20 -13 14z m-73 -249 c-29 -28 -36 -9 -16 42 l11 28 10 -27 c7 -21 6 -31 -5
-43z m114 18 c-8 -15 -10 -15 -11 -2 0 17 10 32 18 25 2 -3 -1 -13 -7 -23z
m-152 -55 c1 -26 -18 -22 -28 5 -5 14 -5 27 2 35 9 11 12 11 18 -5 4 -10 8
-26 8 -35z m91 -44 c13 -33 13 -34 -4 -34 -7 0 -19 -7 -26 -15 -16 -19 -42 -2
-33 21 4 11 9 12 16 5 17 -17 26 -13 20 9 -3 11 -9 20 -14 20 -5 0 -9 5 -9 10
0 22 41 9 50 -16z m-70 -6 c0 -16 -3 -19 -11 -11 -6 6 -8 16 -5 22 11 17 16
13 16 -11z m120 -4 c0 -8 -4 -12 -10 -9 -5 3 -10 13 -10 21 0 8 5 12 10 9 6
-3 10 -13 10 -21z"/>
<path d="M2240 1613 c0 -6 8 -17 18 -24 16 -13 16 -13 2 6 -8 11 -16 22 -17
24 -2 2 -3 0 -3 -6z"/>
<path d="M2289 1532 c7 -12 26 -43 43 -68 29 -43 31 -54 39 -169 8 -127 19
-181 44 -225 19 -33 18 -27 -5 48 -13 42 -20 92 -20 145 0 104 -19 175 -61
229 -44 57 -54 68 -40 40z"/>
<path d="M2220 1499 c0 -5 5 -7 10 -4 6 3 10 8 10 11 0 2 -4 4 -10 4 -5 0 -10
-5 -10 -11z"/>
<path d="M538 1493 c7 -3 16 -2 19 1 4 3 -2 6 -13 5 -11 0 -14 -3 -6 -6z"/>
<path d="M2315 1390 c3 -5 11 -10 16 -10 6 0 7 5 4 10 -3 6 -11 10 -16 10 -6
0 -7 -4 -4 -10z"/>
<path d="M681 1254 c-1 -16 46 -57 61 -52 8 3 0 11 -19 21 -17 9 -33 22 -36
29 -3 7 -6 8 -6 2z"/>
<path d="M637 1213 c-4 -3 -7 -11 -7 -17 0 -6 5 -5 12 2 6 6 9 14 7 17 -3 3
-9 2 -12 -2z"/>
<path d="M2240 861 c0 -23 27 -41 64 -41 33 0 33 -10 1 -40 -55 -52 -14 -78
102 -64 68 8 78 11 78 29 0 18 -6 20 -57 18 -62 -2 -66 1 -43 31 33 43 3 70
-87 81 -54 6 -58 5 -58 -14z"/>
<path d="M587 863 c-12 -11 -8 -40 8 -53 10 -8 15 -30 15 -60 0 -61 7 -80 31
-80 16 0 19 8 19 43 0 37 5 45 40 71 60 45 50 78 -15 55 -31 -12 -37 -11 -58
9 -25 24 -30 26 -40 15z"/>
</g>
</svg>
