<?xml version="1.0" encoding="UTF-8"?>
<!DOCTYPE svg PUBLIC "-//W3C//DTD SVG 1.1//EN" "http://www.w3.org/Graphics/SVG/1.1/DTD/svg11.dtd">
<!-- Creator: CorelDRAW X8 -->
<svg xmlns="http://www.w3.org/2000/svg" xml:space="preserve" width="221.849mm" height="240mm" version="1.1" style="shape-rendering:geometricPrecision; text-rendering:geometricPrecision; image-rendering:optimizeQuality; fill-rule:evenodd; clip-rule:evenodd"
viewBox="0 0 22185 24000"
 xmlns:xlink="http://www.w3.org/1999/xlink">
 <defs>
  <style type="text/css">
   <![CDATA[
    .fil7 {fill:#1D1347}
    .fil0 {fill:#3A7BFB}
    .fil13 {fill:#5E6EE7}
    .fil10 {fill:#685D71}
    .fil6 {fill:#6C1506}
    .fil5 {fill:#883718}
    .fil3 {fill:#985638}
    .fil9 {fill:#B0908E}
    .fil11 {fill:#B8B7B8}
    .fil4 {fill:#C66A47}
    .fil8 {fill:#D9E7FC}
    .fil1 {fill:#E38B5C}
    .fil12 {fill:#FAE7D9}
    .fil2 {fill:#FEFEFE}
   ]]>
  </style>
 </defs>
 <g id="Layer_x0020_1">
  <metadata id="CorelCorpID_0Corel-Layer"/>
  <g id="_2118249107296">
   <path class="fil0" d="M18855 21391c91,-44 192,-26 292,-20l-2 1632 -305 3c-4,-340 -42,-1370 15,-1615zm-2251 -23l320 10 -3 1623c-115,10 -204,21 -310,-29l-7 -1604zm841 0c205,-13 591,-44 742,84 164,139 171,398 8,631 93,125 183,121 228,318 159,695 -666,612 -978,601l0 -1634zm-2003 1177c103,48 179,153 288,129 84,-18 174,-142 118,-244 -103,-188 -380,-140 -493,-380 -262,-555 385,-970 770,-573 -20,116 -78,164 -150,236 -114,-16 -223,-147 -320,-29 -92,112 -5,235 92,290 170,99 405,159 440,447 42,351 -321,952 -931,384l136 -207c35,-40 28,-30 50,-53zm888 -1483c-84,-67 -84,-450 0,-519 61,103 58,412 0,519zm2070 -165c-30,-73 -17,-186 -20,-297 -3,-139 -36,-212 50,-269 37,67 80,508 -30,566zm-1890 1c-60,-83 -123,-245 -12,-345 74,-67 203,-10 294,-9l-1 351 -281 3zm2100 -356c116,-25 177,-7 282,32l0 314c-182,13 -210,84 -355,-72l20 -206 53 -68zm-317 339c-126,31 -254,71 -319,-37 -74,-125 -3,-227 39,-321l281 29 -1 329zm-1155 -329c0,-115 -17,-133 20,-218 95,60 50,316 56,564 -146,-9 -118,13 -233,26 -188,-149 -137,-253 -36,-408l193 36zm-1011 356c-44,5 -175,1 -208,-12 -94,-39 -74,-375 -60,-494 11,-88 -6,-11 27,-71 89,56 53,65 51,213 295,-69 349,164 190,364zm1641 -350c17,-203 -19,-130 41,-225 57,65 33,-97 50,130l-7 429c-6,0 -557,147 -274,-366l190 32zm-2404 343c17,-127 132,-498 226,-558 45,90 193,469 208,556 -136,-28 -62,-18 -149,-122 -186,4 -118,-26 -285,124zm3615 -349l436 5c15,67 26,143 21,215 -10,151 2,93 -60,118 -69,-127 30,-158 -59,-279 -77,25 -51,-59 -73,123 -10,91 20,67 -15,161 -137,-30 -31,0 -73,-193 -21,-95 -8,-41 -46,-93 -133,208 52,254 -132,286l1 -343zm-2649 -191c65,108 72,73 -32,138 -47,-107 -45,-83 32,-138zm-16299 2933l0 744 22185 0 0 -6700c-632,0 -994,48 -1532,241 -457,164 -849,331 -1272,501 -425,172 -784,352 -1204,575 -359,191 -795,457 -1190,609 -349,133 -2608,128 -3274,176 -1405,101 -1411,409 -2007,647 -486,194 -1389,660 -1761,926 -339,242 -718,514 -1085,716 -387,214 -757,401 -1138,661 -550,375 -627,336 -1204,583 -157,68 -460,208 -633,249 -621,145 -1816,92 -2453,77 -1151,-26 -2284,-5 -3432,-5z"/>
   <path class="fil1" d="M18893 905c-48,61 -51,105 -53,232 -7,573 -168,1440 93,1850l701 27 11 -243c-17,43 -32,154 -76,208 -4,-293 90,-293 174,-529 73,-206 -2,-443 -33,-634 -39,-21 -51,-31 -96,-48 -79,-28 118,17 -64,-15 -161,-29 88,-24 -50,-1 38,128 77,89 107,160l21 286c-157,-120 -71,-76 -116,-65 17,155 2,120 96,170 -139,70 -141,-99 -122,-259l-129 72c-3,4 -6,16 -10,23 -63,-70 -29,-60 -128,-81 -51,101 -161,226 -275,266 7,-9 17,-35 21,-28 0,0 94,-102 145,-267 155,5 31,43 139,-38 47,-35 121,-95 157,-137l-21 -91c30,-216 -20,-1204 -64,-1355 -152,88 -103,41 -83,239l12 610c-10,286 -13,232 -72,296 -15,-166 0,-378 2,-565 3,-366 29,-446 -99,-472 -14,219 -21,348 -26,573 -3,96 -11,207 -9,303 2,81 18,191 -24,264l-41 -229c-21,-384 86,-433 -88,-522z"/>
   <path class="fil1" d="M6515 6538l2 -96 -377 -96c7,-8 20,-24 25,-16l119 -86c48,-77 15,-90 0,-148 9,3 29,12 34,12l73 5c25,-146 82,-181 184,-232 127,-65 153,-138 251,-74 -91,61 -239,153 -307,216 -53,50 -56,84 -94,159l-106 146c229,16 61,36 364,-228 38,-34 79,-77 210,-23 -44,78 -184,152 -264,201 147,191 15,4 20,437 -231,-91 165,100 -47,-36 -29,-19 -11,-14 -50,-29l-470 -56c8,41 15,73 30,104 56,118 -10,47 88,93 361,170 680,-81 884,-96 63,125 27,33 46,139 43,72 -137,34 94,60 128,15 155,-97 202,-248l151 -448c-298,-144 -424,-522 -667,-468 -165,3 -961,-17 -1096,37l-485 60c-7,3 -18,8 -27,13 22,15 -5,50 176,45l441 -4c11,1 109,9 115,11 78,22 37,-8 92,49 -53,68 45,63 -177,32 -111,-15 -90,-27 -209,-5l0 52c-6,22 15,12 -26,48 -86,-38 -51,-58 -55,-68 -1,-4 -3,-16 -4,-19 -1,-3 -1,-14 -4,-20 -32,-1 -127,-11 -153,-7 -116,19 -78,-23 -113,86l-29 -37c-4,-3 -9,-83 -230,-15 91,203 699,97 945,196l54 27c-6,9 -18,6 -21,22 -47,193 100,-167 -40,44 -47,72 -41,-12 -44,104 -4,197 417,170 495,157z"/>
   <path class="fil1" d="M10245 5773c-129,-7 2,39 -157,-67l-53 120c-1,-4 -4,10 -6,14 114,20 50,-1 111,39 143,93 47,18 76,98 10,27 35,183 20,216 -98,-39 28,35 -39,-30l-49 -58c-121,128 -242,69 -254,267l-33 180c-4,0 -14,-3 -18,-4 -6,-2 -25,-24 -29,-26 0,-1 -16,3 -58,-8 -37,-92 -28,-42 3,-154 -4,0 -111,18 -113,18 -99,-7 10,31 -74,-32 6,-6 15,-13 19,-17 4,-4 13,-12 18,-17l130 -161 -44 -55c-9,4 -20,12 -27,16 -7,4 -18,10 -26,15l-109 49 78 -134c-58,-162 -13,-163 -110,-269l76 -169 -62 -138c-14,-57 -12,-107 -12,-164 -7,-621 2,-365 77,-439 -11,-32 -23,-77 -43,-108 -50,-79 18,-18 -70,-70 -211,74 -143,321 -153,584 -8,234 -39,469 -52,706 -34,648 70,499 243,1247 153,86 551,79 739,44 10,-164 -70,-248 -30,-404l142 -250c105,-180 100,-305 56,-516 -90,-426 -129,-316 -167,-323z"/>
   <path class="fil1" d="M18702 13861c144,42 42,-15 142,70 136,-63 61,-111 237,-127 -1,5 -1,15 0,17 39,61 75,62 145,95 8,3 20,6 29,12 -65,377 6,268 34,404 -19,11 -50,28 -101,-3 -137,-82 -6,79 -17,-70 0,-2 2,-13 -2,-17 -523,-10 -208,591 -23,495 -101,-111 -168,49 -125,-190 11,-59 86,-164 140,-170 92,146 -25,70 74,214 93,135 114,46 159,146 -76,106 -208,126 -343,116 -45,-48 -78,-104 -125,-146l-55 -40c-5,-3 -13,-8 -19,-11 -90,-41 -12,-53 -97,-15 4,53 75,236 105,316 47,124 144,172 218,285l-71 26c-34,2 -99,-4 -104,-88 106,222 107,140 91,318 -48,120 -30,332 -31,486 228,-29 491,64 699,-101 81,-175 17,-1208 -35,-1451 -40,-186 -97,-70 -128,-265 -17,-108 11,-199 -54,-315 -74,-133 -377,-219 -533,-208 -84,150 -128,115 -210,217z"/>
   <path class="fil1" d="M15669 10614c117,111 50,222 47,383 -3,165 -1,250 -7,403 137,-141 122,-373 132,-702 8,-262 122,-707 421,-433 190,173 90,576 125,794l52 -84 57 26c146,-266 0,-917 159,-1251 127,13 40,10 111,36 7,2 15,4 21,7 113,45 41,-27 104,58l77 -21c-24,-297 -7,-671 -195,-841 -445,-45 -680,204 -792,574 -123,408 -323,519 -312,1051z"/>
   <path class="fil1" d="M15171 13743c42,166 18,185 48,339 9,51 21,122 32,160l54 132c18,57 4,136 40,237 8,22 32,73 32,73l36 200c399,-30 340,107 482,214 206,154 37,-115 122,136 -277,-69 -187,-150 -328,-241 -78,-51 -377,-53 -454,-20 42,94 -69,-35 37,46l147 38c74,7 115,19 201,27 60,194 60,-3 116,165l10 57c2,11 2,132 43,163 12,127 -9,11 50,60 159,135 21,-66 51,50 -195,135 -136,-125 -258,-117 -42,69 -39,96 -25,179 34,216 90,261 184,314l-134 43c-5,-9 -18,5 -27,9 4,-39 16,-15 -15,-63l-25 -25c-126,-84 50,48 -71,-3 -27,-192 49,-13 73,-238 28,-270 -35,-282 -90,-333l-30 333c-70,-84 -32,-164 -38,-322 -96,33 -122,67 -177,55 27,-108 204,-122 244,-273l-135 29c-42,-82 -3,-21 -165,47 4,-9 30,-78 30,-79 1,-7 2,-17 2,-24 -2,-124 -42,21 -54,-258 -7,-157 50,-35 -54,-144 -29,577 92,647 41,889 -15,110 67,410 114,507 157,80 438,80 659,38l1 -142 -41 109c-2,-6 -11,18 -16,27 12,-645 286,-420 164,-1010l-10 -56c-32,-224 -29,-425 23,-637l-105 -82c119,22 121,92 156,-142 19,-134 19,-181 -18,-225 -60,-73 -106,10 -126,82 -64,237 -20,165 66,198 -93,51 -78,9 -127,161l-79 200c-167,-165 -135,-804 -116,-1037l-64 18c-64,206 -62,304 -65,523 -2,90 1,219 7,280 0,7 11,85 10,95 -1,10 -1,21 -2,30l-36 97c-70,-53 -76,-45 -116,-232 -20,-92 -32,-157 -60,-247 -92,-306 -89,-378 -214,-410z"/>
   <path class="fil1" d="M1923 14309c-116,195 -91,502 -1,697 221,476 108,409 172,708 152,56 617,26 795,-67 -3,-143 0,-55 -28,-87 -28,110 29,39 -54,59 28,-235 -29,-226 65,-440 25,-57 50,-106 86,-171l47 -84c7,-12 38,-60 39,-60 139,-238 -31,-527 -114,-743 -59,42 -16,-1 -59,80 -3,6 -8,19 -11,25 -3,6 -7,33 -9,28 -3,-6 -5,19 -10,28 -125,-36 -426,-126 -523,-84 44,219 323,18 400,309 21,82 18,140 46,211 -142,-38 -66,-54 -189,-113 -100,-49 -454,191 -574,31l-78 -327z"/>
   <path class="fil1" d="M2250 10301l17 -69 62 8c-13,-144 -71,-90 -113,-199 -66,-171 39,-132 58,-220 3,-16 14,-15 18,-18l-131 -53c-362,223 -2,1239 10,1306 15,80 17,163 10,247 -4,51 -28,178 -67,123 8,165 253,185 403,183 236,-2 292,-121 442,-171 0,-168 40,-375 38,-455 -9,-184 199,-641 22,-713 -60,40 -61,255 -173,332 -151,105 -192,-133 -202,243 -6,-9 -10,-22 -13,-29l-37 -75c-67,-126 43,-6 -29,-44l-58 228c-79,-93 -55,-1 -53,-152 3,-224 229,-258 230,-258l-81 -24 33 -135 95 0c15,-90 55,-165 59,-282 3,-121 -19,-216 -37,-296l-61 153c-60,-144 -28,-30 -16,-132 13,-109 -23,110 14,-58l-221 -135c30,99 19,45 68,118 95,141 97,152 80,328 -9,92 -24,152 -29,240l-42 263c-100,-204 40,-417 -14,-705 -26,81 -54,45 -54,45l-60 -201c-38,-46 -16,-20 -50,-41l-86 63c70,127 92,76 171,134 -61,281 -15,400 -60,615 -125,-29 -192,-81 -249,-198 -21,-45 -20,-39 -36,-106 -2,-10 -12,-68 -13,-78 -13,-108 -30,-24 7,-148 101,62 91,262 148,366z"/>
   <path class="fil1" d="M6461 1666c59,-35 52,-22 135,-25 264,-11 237,-18 327,54 -57,45 -19,32 -116,50 -16,3 -72,4 -93,3 -97,-2 -55,12 -146,-29l-96 90c218,17 123,56 363,-10 -4,140 25,42 -67,186 -4,6 -9,14 -13,21 -69,104 -91,40 -57,315 9,-3 20,-11 24,-14 119,-82 -34,-120 104,14 37,35 5,2 41,48 -52,30 19,12 -45,0 -149,-29 20,-22 -129,39 -55,-148 -59,-89 -57,-264l-120 125 98 -229c156,19 -3,81 73,-20 -81,-184 -126,-1 -322,-224l96 -130zm-37 1045c38,50 24,102 231,110 112,5 220,-16 329,-19 33,-132 21,-221 48,-347 29,-130 74,-196 103,-294 47,-156 -67,-613 -130,-686l6 117c-113,-160 -83,-407 -101,-480 -30,-119 24,-64 -75,-107 -48,64 -15,-10 -36,88 -63,289 100,8 -39,243 -58,98 73,2 -54,-1 -210,-6 -37,78 -93,12 -61,-70 -66,-329 -67,-494 0,-149 23,-376 -66,-483 -220,182 66,783 -120,1087 -71,-288 105,-442 -58,-671 -85,98 -55,177 -46,303 29,409 -90,612 19,740l62 35c-6,3 -16,6 -20,8l-56 40c-3,-7 -11,13 -17,19 9,203 -8,614 223,769l-43 11z"/>
   <path class="fil2" d="M17757 22745l-6 -456c185,-35 368,-8 359,230 -9,231 -184,210 -353,226zm4 -1122c339,42 337,335 -6,387l6 -387zm-316 1379c312,11 1137,94 978,-601 -45,-197 -135,-193 -228,-318 163,-233 156,-492 -8,-631 -151,-128 -537,-97 -742,-84l0 1634z"/>
   <path class="fil1" d="M6659 18977c-40,140 -235,299 -31,402 28,-17 21,35 47,-79 1,-4 2,-48 2,-52l-6 -57c27,2 76,5 104,2 135,-15 48,1 69,-23l-7 184 240 42c83,36 72,-19 96,107 -30,-97 21,-10 -153,1l-249 -19c-156,-33 -79,-49 -299,-58 -34,136 -27,220 65,339l61 59c88,-166 -37,-149 -89,-303 263,45 280,-4 379,110 212,243 166,126 182,261 -131,54 -16,-46 -228,-45 -239,1 -61,-97 -96,-196 -67,21 -24,-7 -51,108 -1,7 -4,37 -5,32 -1,-6 -1,23 -5,33 -41,21 -48,20 -82,38l-174 97c70,154 7,196 166,307 130,90 157,108 145,338l45 25c188,67 -163,-21 51,15 41,7 46,3 87,1 219,-12 320,-93 531,-82 -18,-178 -102,-271 -114,-522 -30,-590 19,-685 -255,-1076 -78,-110 -160,-282 -222,-412l-40 -111 -43 -180 -40 3c-33,-225 -69,-171 -133,-207 -2,83 -18,185 6,263 14,48 23,53 44,84 4,5 11,12 15,16 3,5 12,14 15,18l29 37c-34,58 -68,77 -12,183 32,61 78,65 112,82 -56,181 13,119 -56,247l-101 -12z"/>
   <path class="fil1" d="M1981 20488c114,274 649,193 701,-24 28,-115 -1,50 10,-66 12,-112 -31,-165 44,-327 57,-121 139,-217 196,-318 143,-255 232,-594 141,-904 -137,23 -83,-7 -133,100 97,-41 7,-53 63,0l-131 341c-50,146 -84,180 -169,180 -10,4 -33,9 -39,8l-89 -41c-35,208 10,33 -60,157l-195 -24c42,155 -15,85 -50,255l33 38c6,6 24,29 31,36 96,106 97,85 217,126 -177,158 -333,-148 -336,-156 -37,-98 -20,-85 -3,-196l-62 62c-3,3 -37,69 1,-2 -85,-70 35,-124 69,-177 -139,-18 -255,106 -242,-236 -108,-55 90,29 -43,-11l-63 -23c8,-3 19,-6 23,-9 172,-119 -15,-49 118,-236 72,158 -44,240 89,320 118,-71 67,-336 0,-429 -53,-2 -99,46 -207,84l-114 -585c-19,-67 14,-14 -34,-58 -26,146 7,374 15,544 22,450 178,1131 280,1549 -28,43 67,66 -61,22z"/>
   <path class="fil1" d="M9713 10450c-126,-7 -415,49 -390,-196 -31,49 -64,-86 -4,136 -8,-6 -49,-40 -56,-44 -56,-32 25,-31 -73,-38 -129,-8 -88,67 -103,115 26,18 124,57 125,58 114,96 63,21 51,154 -5,116 20,128 144,174 212,79 210,154 547,355l42 247c164,75 740,103 559,-235l35 185c-109,-94 -50,-42 -101,-246l-153 -471c-17,-74 -22,-203 -43,-284 -23,-94 -125,-345 -198,-414 -106,-100 -292,-222 -447,-220 178,239 307,99 324,336 -199,-138 -543,-254 -681,-43l-103 201c-5,10 -13,22 -16,35l175 -151c89,-66 278,-132 398,4 5,5 12,12 16,17 39,46 128,166 82,263 -73,158 9,84 -130,62z"/>
   <path class="fil1" d="M18719 10922c-18,98 38,106 127,445 309,6 113,65 595,76 70,-625 424,-358 65,-1498 -180,-573 13,-880 -116,-937l-104 69c5,126 22,93 61,234l-61 -34c-176,-65 20,-63 -85,1 -1,211 53,167 -14,405 -102,360 -57,93 5,370 -77,34 -4,75 -90,-63 1,88 13,124 38,179 225,-35 256,-7 266,221l-67 -35c-57,-32 -88,-74 -173,-66 146,123 98,24 165,221 77,224 92,131 81,218l-124 -69 -55 75c-32,43 3,5 -39,46l-20 -146 -119 70c-1,-33 5,-91 5,-93l-5 -55c0,-14 -2,-18 -4,-27 -32,28 -128,263 -325,-139 0,149 12,421 -7,532z"/>
   <path class="fil1" d="M5942 15501c-11,90 21,264 64,373 118,18 253,-14 385,-23 39,-3 173,-10 202,-17 134,-30 70,-11 123,-81 -70,13 -21,31 -52,-5 3,-97 -13,-205 -1,-297 14,-108 41,-114 69,-186 220,-565 11,-757 -19,-898 -113,-530 -74,-131 -145,-361 -33,186 41,5 25,161 -17,160 -63,105 -139,132 3,-15 8,-28 12,-43l46 -299c-10,-72 51,26 -32,-104 -46,136 -37,221 -3,368 -31,-13 -131,-61 -132,-61 -55,-14 -21,-15 -76,4 11,90 -1,14 24,66l54 89c112,237 -14,-137 30,83 21,99 -10,206 14,281 16,-2 102,57 134,-215 3,-20 7,-24 14,-34 51,76 33,-19 43,132 9,123 -18,108 -21,122 -22,139 -36,36 29,150l-60 54c-184,111 131,-20 -47,16l-125 33c-291,157 13,-98 -263,59 -37,-123 -12,15 27,-117 -55,11 -60,24 -137,29l-41 -86c-4,-8 -8,-17 -11,-25 -59,-137 -26,-173 -61,-188l-90 23c-37,383 130,618 160,865z"/>
   <path class="fil1" d="M15739 2536c-25,46 -38,-73 -18,92 214,75 578,80 771,-2 13,-115 -6,-240 24,-347 26,-94 91,-123 81,-273 -25,-152 35,-325 15,-508 -23,-209 -37,-73 -57,-443l-91 202c40,88 70,98 90,199 -196,-25 -33,-190 -528,-131 -2,68 -22,20 14,92 60,123 62,32 85,34 6,1 15,-1 21,-1 131,12 88,92 205,-30 -35,88 -10,144 -22,185l-236 -75c10,9 20,18 29,25l88 59c6,-8 19,9 29,14 2,166 4,142 -57,236 -21,-48 -23,64 -31,-100 -6,-121 -11,-4 31,-136 -99,173 -28,134 -81,264l-116 -168c-3,-3 -14,-6 -17,-17 -3,-11 -11,-11 -17,-17 67,-69 74,-62 51,-171l-84 -46c106,-87 60,-17 116,-115 -47,-6 -21,2 -53,4 -8,1 -17,2 -26,2 -232,15 -71,-83 -194,48 0,-85 -24,-32 70,-121l-64 -138c-8,-112 -43,-125 -46,-146 -2,-13 -8,-16 -12,-23 -97,382 -7,755 80,1192 37,191 9,227 2,427 -53,-21 -30,3 -52,-67z"/>
   <path class="fil1" d="M2516 1235c47,81 66,100 94,184l45 275c125,-47 102,-11 147,79l-208 -62c-30,-107 -21,-153 -49,-255 -36,-129 -95,-137 -29,-221zm2 1028l-1 275c186,85 262,119 504,93 253,-28 220,-155 244,-421 -66,98 -17,17 -35,128l-25 132c-1,4 -4,14 -9,19l-34 -241 -90 -47 144 -39c33,-256 206,-275 223,-633 6,-120 35,-750 -6,-805 -104,109 -78,240 -94,426 -16,192 -47,271 -82,440l-210 79c-5,3 -13,9 -17,11 -5,2 -14,6 -20,8 -60,20 -54,-11 -145,23 -9,3 -17,8 -25,12l-58 29c114,-232 154,-367 111,-693 -60,-32 -88,-95 -192,-59 -167,58 -16,46 39,133 39,63 58,288 64,390 1,9 2,35 1,44 -2,93 17,-5 -8,75 -89,-85 -29,8 -60,-109 -29,-107 38,-297 -71,-387 -175,-144 -257,104 -265,283 -10,215 46,618 146,773 91,142 23,59 192,85 -180,118 -119,-20 -164,232 -82,-66 -7,-115 -57,-256z"/>
   <path class="fil1" d="M12277 14913c69,20 137,32 191,144 18,37 82,233 92,277 -105,-47 -63,39 -132,-135 -37,-94 26,-49 -62,-142 -50,80 104,12 -118,375 -56,-110 21,-39 -89,-110 -75,51 -87,132 -95,121 -4,-6 -11,23 -18,33 45,-175 30,-56 -13,-126 -28,-47 -20,70 -48,-30 -4,-16 -21,-5 -30,-10 7,-4 18,-3 23,-4l141 -30c-3,-20 -15,-71 -16,-81 -1,-7 -2,-17 -3,-24 -1,-6 -1,-16 -1,-22 -4,-41 1,-45 -5,-102 -11,-99 -26,-152 -31,-276 -100,40 -73,-3 -148,99 -21,30 -27,62 -36,103l31 25c33,29 -12,-19 31,27 45,48 68,89 59,186l-18 60c-5,-9 -11,-21 -14,-29l-62 -150c-23,48 -24,-7 -26,107 -2,140 78,155 2,368 99,388 46,67 156,627 151,2 326,10 475,-10 195,-26 160,-73 178,-282 -12,149 -26,147 -88,202 0,-221 30,-370 136,-534 109,-168 74,-237 67,-295 -24,-193 -30,-80 -100,-58 -56,-142 -186,-306 -281,-413 191,-70 270,174 322,233 -53,-253 -2,-495 -56,-704 -196,120 -81,281 -59,370 -90,-68 -32,-40 -110,-53 -40,-7 -29,0 -49,22 -27,-163 -63,-226 -77,-350 -77,81 -69,49 -105,24 35,181 76,202 0,313 77,84 4,52 134,78 -40,35 -125,73 -145,124 -1,2 -1,13 -2,15l-1 37z"/>
   <path class="fil1" d="M9461 2551c36,49 32,42 81,74 31,19 88,43 134,56 85,24 200,38 288,45 -4,-212 35,-406 189,-519l133 -84c104,-75 64,-84 181,-165 336,-232 393,-56 494,-229 -61,-52 -82,-53 -156,-40 -72,12 -34,28 -130,42 -197,29 -37,-43 -249,9 82,-255 -12,-63 -68,-288 -3,-10 -7,-44 -8,-55 -11,-64 19,-4 -16,-95 -19,45 -28,67 -66,122 -181,262 -150,277 -268,339 36,-188 52,-99 63,-180 19,-145 13,48 -6,-52 -34,-173 -27,111 -18,-53 164,-42 158,-55 237,-211 126,-248 78,-191 525,-209 -24,-76 -129,-121 -225,-110 -262,32 -184,129 -310,6 442,-283 615,88 718,121 -44,-57 -87,-86 -131,-122 -428,-355 -614,93 -670,144 -104,94 -154,35 -217,187l-490 1243c-3,-5 -11,16 -15,24z"/>
   <path class="fil2" d="M15442 22545c-22,23 -15,13 -50,53l-136 207c610,568 973,-33 931,-384 -35,-288 -270,-348 -440,-447 -97,-55 -184,-178 -92,-290 97,-118 206,13 320,29 72,-72 130,-120 150,-236 -385,-397 -1032,18 -770,573 113,240 390,192 493,380 56,102 -34,226 -118,244 -109,24 -185,-81 -288,-129z"/>
   <path class="fil1" d="M6527 10053c-77,191 -67,121 -132,208 -6,7 -22,31 -27,39 -36,67 -58,180 -95,249 -39,-84 19,-131 49,-268 -210,20 -171,63 -310,-26l9 -188c-57,197 -31,272 52,495 160,430 -27,284 218,460 -25,66 -17,24 -36,79l-10 39c-1,-2 -1,8 -2,11 -111,-22 -12,34 -55,-49 -55,-107 -3,-30 -4,-58 -7,380 0,293 -89,256 120,74 333,13 472,-2 78,-8 156,-15 238,-28 109,-18 110,-7 171,-93 -51,-42 -60,65 -86,-150 -46,-370 252,-678 122,-1040l-27 43c-3,6 -8,16 -11,23l-105 194c-4,-6 -13,18 -17,25l58 50c-144,19 59,-21 -99,-6l-116 33c-7,-23 -21,-93 -24,-102l-31 -71c-2,-13 -9,-15 -14,-22 -108,83 -156,322 -150,425 -63,-255 49,-283 97,-459 -65,-100 -38,-37 -43,-202l-3 135z"/>
   <path class="fil1" d="M9442 15211l72 3c40,-243 -46,-33 -62,-335 8,7 16,17 22,22l42 41c7,6 13,12 19,18 131,110 168,51 188,127l43 122c3,6 9,11 13,17 70,112 64,-114 73,218 -120,-43 -54,-29 -112,-82 -156,-143 -33,-87 -166,-30 -7,3 -15,6 -22,9 -7,3 -15,6 -22,9l-181 110c-287,-273 -81,-101 -229,-285 1,164 -3,205 22,329 35,169 71,144 18,295l99 426c456,40 308,29 691,-30l49 -401c0,-11 2,-15 1,-23l31 -234c33,-269 -170,-538 -387,-627l-121 -59c-92,-79 119,-57 -115,-103 -64,57 -39,-46 -53,118l87 345z"/>
   <path class="fil1" d="M12978 2718c-20,-85 -65,-163 -70,-194 -25,-148 -15,25 2,-64 1,-7 4,-16 6,-23l41 -92c41,-69 74,-77 126,-211 138,-359 134,-174 246,-328 70,-97 14,-96 13,-98 -125,-22 -159,105 -207,186l-154 -99 -13 136c-72,83 -34,99 -30,203l-8 37c-83,30 -59,28 -61,-105l-148 168c-13,-50 -16,-40 59,-168l-150 12c-7,-11 -18,-8 -27,-12 151,-128 197,-24 225,-148 60,-261 30,84 16,-88 45,-161 133,-255 293,-263 198,-11 134,-40 177,36 6,-108 -215,-201 -428,-19 -5,4 -23,91 -112,44 -10,-37 -18,-5 10,-61 123,-245 512,-137 529,-139 -21,-24 -194,-126 -291,-108 -111,20 -173,190 -258,125 -83,-93 -56,-113 10,-189 43,-50 148,-44 198,-392 28,-193 -28,-179 99,-213 72,-48 -35,117 39,-41 51,-108 2,-218 -34,-296 -190,33 -60,-58 -158,92 -8,13 -46,143 -56,175 -107,357 -241,498 -305,979 -105,798 -273,1235 421,1158z"/>
   <path class="fil3" d="M2782 10540c-35,-97 5,-176 90,-225 14,132 -14,186 -90,225zm-668 886c39,55 63,-72 67,-123 7,-84 5,-167 -10,-247 -12,-67 -372,-1083 -10,-1306l131 53c-4,3 -15,2 -18,18 -19,88 -124,49 -58,220 42,109 100,55 113,199l3 102 -82 -41c-57,-104 -47,-304 -148,-366 -37,124 -20,40 -7,148 1,10 11,68 13,78 16,67 15,61 36,106 57,117 124,169 249,198 45,-215 -1,-334 60,-615 -79,-58 -101,-7 -171,-134l86 -63c34,21 12,-5 50,41l60 201c0,0 28,36 54,-45 54,288 -86,501 14,705l42 -263c5,-88 20,-148 29,-240 17,-176 15,-187 -80,-328 -49,-73 -38,-19 -68,-118l221 135c-37,168 -1,-51 -14,58 -12,102 -44,-12 16,132l61 -153c18,80 40,175 37,296 -4,117 -44,192 -59,282 -14,121 6,85 -47,159 -1,0 -227,34 -230,258 -2,151 -26,59 53,152l58 -228c72,38 -38,-82 29,44l37 75c3,7 7,20 13,29 10,-376 51,-138 202,-243 112,-77 113,-292 173,-332 177,72 -31,529 -22,713 298,-349 91,-1296 -185,-1437 -126,-26 -88,10 -152,12 -77,2 -50,-16 -142,-12 -134,6 -429,128 -499,244 -111,187 -61,795 1,995 84,270 120,307 94,641z"/>
   <path class="fil1" d="M18788 7188c48,66 -17,49 125,91 149,43 353,-13 476,-42 20,-148 -38,-123 46,-289 53,-104 89,-132 134,-250 138,-367 266,-237 338,-381 69,-141 37,7 90,-207 -229,33 -91,51 -269,102 -38,11 -10,-7 -73,14 -100,33 -135,94 -243,-49 26,-158 1,-49 53,-90l-4 -184 4 173c-81,-75 -112,36 -87,-344 15,-234 -30,-178 -109,-262l70 -75c87,-165 -70,-223 -75,-229 67,-140 57,-32 62,-146 6,-141 -37,-90 -38,-91 -16,162 -5,394 -6,574 0,343 -49,282 51,434 3,4 12,24 14,19 2,-5 11,11 13,19 -74,134 -69,296 -88,539 -215,88 -85,32 -132,202 -44,-55 -40,-92 -99,-96l-41 5c-55,-1 -55,-25 -120,32 -8,-307 -28,-52 -128,-207 -48,-74 -19,-5 -27,-135 0,-2 -1,-78 -1,-89l2 -51c-7,381 -3,436 62,749l174 41c-99,192 -136,51 -92,230l-82 -7z"/>
   <path class="fil4" d="M18997 6513c-149,15 43,43 -44,-32 53,-39 10,-135 116,0 -47,34 1,25 -72,32zm172 -146c27,91 37,66 -29,119 -11,-36 -19,-10 -9,-62 18,-104 -3,-9 38,-57zm-381 821l82 7c-44,-179 -7,-38 92,-230l-174 -41c-65,-313 -69,-368 -62,-749l-2 51c0,11 1,87 1,89 8,130 -21,61 27,135 100,155 120,-100 128,207 65,-57 65,-33 120,-32l41 -5c59,4 55,41 99,96 47,-170 -83,-114 132,-202 19,-243 14,-405 88,-539 -2,-8 -11,-24 -13,-19 -2,5 -11,-15 -14,-19 -100,-152 -51,-91 -51,-434 1,-180 -10,-412 6,-574 1,1 44,-50 38,91 -5,114 5,6 -62,146 5,6 162,64 75,229l-70 75c79,84 124,28 109,262 -25,380 6,269 87,344l-4 -173c-31,-460 23,-982 -173,-1082 -176,165 -54,681 -104,970 -99,-73 -284,1 -386,65 -241,153 -173,777 -134,922l124 410z"/>
   <path class="fil1" d="M12440 10255c84,84 78,-122 70,135 0,312 19,591 -43,893 62,-52 40,32 83,-132l73 -462c17,-160 -42,-508 157,-591l-4 144c-41,131 -27,27 -50,182 -7,49 0,30 -12,91 -25,138 -67,173 -23,273 50,-59 44,-143 63,-208 31,-106 46,-95 114,-158l291 -409c114,-262 90,-125 253,-196 -36,-23 -180,61 -168,-183 53,23 20,134 147,44 2,-1 6,-9 10,-11l125 176c71,-78 57,-83 65,-226 13,-238 3,-246 -78,-298l-115 -49c-77,-16 -167,-2 -241,30 -191,83 -364,412 -535,608 -154,176 -96,181 -182,347z"/>
   <path class="fil1" d="M15878 7211c36,62 387,46 482,34l115 -41c-150,-130 135,-507 153,-760 10,-139 -34,-348 -87,-440l-172 -312c-2,-11 -9,-13 -12,-20l-126 -47c12,270 26,120 143,271 92,119 9,45 72,223l51 92c-54,0 -46,55 -59,120l-20 76c-57,-97 -48,-85 -63,-226 -190,179 -171,114 -173,653 -69,-45 -37,-338 -37,-446 -314,38 -6,53 -226,127 75,-103 40,-66 81,-304 -11,5 -21,14 -29,22 -91,91 -79,119 -80,118 -1,-5 -1,17 -5,24 -60,-134 -29,-94 -177,-121l72 275c2,9 3,18 5,26 2,8 4,18 6,26 78,313 168,279 86,630z"/>
   <path class="fil4" d="M12085 14641l-26 60c-3,7 -10,26 -18,36 6,9 15,11 19,29l32 55c4,7 9,16 13,24 95,191 50,168 69,310 35,256 -20,90 74,155 44,-67 46,20 56,-165l-27 -232 1 -37c1,-2 1,-13 2,-15 20,-51 105,-89 145,-124 -130,-26 -57,6 -134,-78 76,-111 35,-132 0,-313 36,25 28,57 105,-24 14,124 50,187 77,350 20,-22 9,-29 49,-22 78,13 20,-15 110,53 -22,-89 -137,-250 59,-370 54,209 3,451 56,704 -52,-59 -131,-303 -322,-233 95,107 225,271 281,413 70,-22 76,-135 100,58 7,58 42,127 -67,295 -106,164 -136,313 -136,534 62,-55 76,-53 88,-202 42,-230 167,-285 183,-492 18,-250 -64,-313 -91,-541 -84,-711 137,-1040 -3,-1242 -133,16 -89,-7 -130,156l-132 644c-70,-149 -79,-329 -100,-525 -45,-410 -33,-414 -210,-414 -104,205 12,859 47,1130 -102,-9 -104,-33 -170,23z"/>
   <path class="fil1" d="M12444 6242c50,52 14,-14 51,86 64,-117 -108,-93 45,-33 80,31 23,-32 59,232 102,44 245,79 341,156 -69,52 -23,55 -189,-4 1,51 161,127 298,243 71,60 127,105 116,276 202,-37 28,27 151,-76 84,-70 220,-220 227,-344 8,-147 -79,-161 -132,-239 -57,-85 -71,-194 -104,-228 -100,-66 -25,98 -88,-139 -11,-40 -12,-90 -21,-135 -23,-122 -44,-158 -92,-266 -227,21 -390,91 -478,271 19,69 164,452 269,54 -82,34 -113,96 -133,100l6 -256c133,134 76,-25 181,104 64,79 6,310 -155,318 -84,5 -26,-25 -128,16 -19,-124 -42,-201 -154,-235 -38,201 7,14 -70,99z"/>
   <path class="fil3" d="M2254 6312c125,17 66,3 145,-143 60,-111 51,-57 94,-191 53,-165 79,-303 122,-475l192 -58c-138,14 -114,-8 -177,74 73,98 -16,2 343,27l134 -6c-198,-5 -358,-52 -445,138l385 -79c-12,93 -9,172 -55,244 -58,88 -92,20 -151,166 357,-10 119,-144 418,-142 162,1 10,61 142,4 114,-50 -146,-16 111,-55 -33,240 -7,132 -227,184 -36,8 -128,36 -136,37l-102 -17c10,87 24,67 -23,129 -57,77 -62,28 -212,226l-92 176c2,5 6,15 8,22l52 284c120,-46 -25,47 48,-39 -15,-180 -33,-294 52,-399 31,-39 145,-157 201,-207 270,-244 750,-61 627,-343 -74,-169 -299,-124 -434,-94l-60 -283c250,53 458,101 539,-90 -52,-65 2,-14 -64,-49l-462 -132c-103,-10 -484,17 -570,70 -66,42 -87,100 -125,237 -28,100 -40,199 -67,289 -58,194 -149,302 -211,495z"/>
   <path class="fil3" d="M16138 6328c-160,-37 -70,17 -111,-83 3,-2 1,-79 79,-17 52,41 19,37 32,100zm-176 -220c-45,-142 81,-156 123,-63 99,217 0,91 -21,132 -146,-29 -64,49 -102,-69zm395 -436c-30,-206 -32,-238 -25,-472 5,-151 -31,-376 27,-477 69,22 30,-30 76,54 2,3 22,113 23,117 17,233 -13,393 -6,542 5,116 10,155 -12,268 -90,-110 -16,-22 -83,-32zm-381 -776l-108 -20c-52,134 -31,26 -21,189 7,-11 12,-26 18,-36 121,-210 -25,-75 78,-95 60,79 120,265 151,400 80,347 102,352 9,439l75 70c23,67 4,30 -6,125 48,-20 18,-66 98,-86 107,153 120,134 -19,205l-69 37c-64,-238 -50,-114 -102,-242l-181 -670c0,167 60,318 87,493 -87,58 -88,83 -155,143l-92 61c-237,188 22,663 82,985 13,68 10,124 19,184l27 108c2,-5 7,17 11,25 82,-351 -8,-317 -86,-630 -2,-8 -4,-18 -6,-26 -2,-8 -3,-17 -5,-26l-72 -275c148,27 117,-13 177,121 4,-7 4,-29 5,-24 1,1 -11,-27 80,-118 8,-8 18,-17 29,-22 -41,238 -6,201 -81,304 220,-74 -88,-89 226,-127 0,108 -32,401 37,446 2,-539 -17,-474 173,-653 15,141 6,129 63,226l20 -76c13,-65 5,-120 59,-120l-51 -92c-63,-178 20,-104 -72,-223 -117,-151 -131,-1 -143,-271l126 47c3,7 10,9 12,20l172 312c53,92 97,301 87,440 -18,253 -303,630 -153,760l14 -39c31,-125 2,-135 61,-298 142,-393 223,-388 19,-931 -105,-280 -50,-426 -52,-736 -2,-201 41,-649 -217,-511 -103,227 58,641 -59,845 -99,-63 -47,-2 -86,-166 -30,-128 -102,-437 -179,-472z"/>
   <path class="fil5" d="M9461 2551c4,-8 12,-29 15,-24l490 -1243c63,-152 113,-93 217,-187 56,-51 242,-499 670,-144 44,36 87,65 131,122 -103,-33 -276,-404 -718,-121 126,123 48,26 310,-6 96,-11 201,34 225,110 -447,18 -399,-39 -525,209 -79,156 -73,169 -237,211 -9,164 -16,-120 18,53 19,100 25,-93 6,52 -11,81 -27,-8 -63,180 118,-62 87,-77 268,-339 38,-55 47,-77 66,-122 35,91 5,31 16,95 1,11 5,45 8,55 56,225 150,33 68,288 212,-52 52,20 249,-9 96,-14 58,-30 130,-42 74,-13 95,-12 156,40 -101,173 -158,-3 -494,229 -117,81 -77,90 -181,165l-133 84c-154,113 -193,307 -189,519l55 4c40,-458 77,-335 356,-608 276,-270 482,-208 627,-292 78,-554 -631,243 -582,-661 255,-86 580,79 703,-181 34,-209 -356,-346 -602,-363 -262,-17 -253,181 -492,462 -157,184 -483,1158 -608,1417l40 47z"/>
   <path class="fil1" d="M2811 5837c128,255 18,136 1,169 -22,-23 -58,-27 -77,-105 -40,-161 40,-123 95,-146l-48 -35c77,15 70,34 113,21 101,-31 -40,-43 78,-37 -71,187 -65,141 -162,133zm-557 475c-89,62 -110,294 -101,404 137,113 419,140 627,141l-52 -284c-2,-7 -6,-17 -8,-22l92 -176c150,-198 155,-149 212,-226 47,-62 33,-42 23,-129l102 17c8,-1 100,-29 136,-37 220,-52 194,56 227,-184 -257,39 3,5 -111,55 -132,57 20,-3 -142,-4 -299,-2 -61,132 -418,142 59,-146 93,-78 151,-166 46,-72 43,-151 55,-244l-385 79c87,-190 247,-143 445,-138l-134 6c-359,-25 -270,71 -343,-27 63,-82 39,-60 177,-74l-192 58c-43,172 -69,310 -122,475 -43,134 -34,80 -94,191 -79,146 -20,160 -145,143z"/>
   <path class="fil3" d="M9550 14806c36,-394 -12,-362 95,-403 51,83 49,159 11,242l-50 64c225,-26 117,-69 147,-259l118 -6c44,234 31,305 96,539 -105,0 -34,19 -118,-35 -218,-140 38,-8 -299,-142zm323 -440c-66,19 73,-11 -57,-1 -103,8 -5,-24 -63,17 -2,-188 15,-122 82,-252 -103,-98 -103,-148 -42,-318 125,126 106,259 80,554zm-271 -39c-48,-195 -11,-477 43,-652 69,49 77,-2 63,174l-45 141c-3,6 -15,26 -17,20 -3,-6 -14,13 -20,19l58 87c42,118 18,188 -82,211zm-442 1472c53,-151 17,-126 -18,-295 -25,-124 -21,-165 -22,-329 148,184 -58,12 229,285l181 -110c7,-3 15,-6 22,-9 7,-3 15,-6 22,-9 133,-57 10,-113 166,30 58,53 -8,39 112,82 -9,-332 -3,-106 -73,-218 -4,-6 -10,-11 -13,-17l-43 -122c-20,-76 -57,-17 -188,-127 -6,-6 -12,-12 -19,-18l-42 -41c-6,-5 -14,-15 -22,-22 16,302 102,92 62,335l32 73 -84 21c-23,-46 -14,-28 -20,-97l-87 -345c14,-164 -11,-61 53,-118 234,46 23,24 115,103l121 59c217,89 420,358 387,627l-31 234c225,-255 -15,-828 -54,-1140 -29,-233 20,-470 -16,-699 -25,-159 -41,-120 -129,-185 -160,-119 -10,-124 -186,-126 -121,176 -90,825 -100,1041 -186,28 -92,-21 -220,116 -41,44 -7,14 -50,43 -132,87 -141,40 -171,251 -47,333 40,446 86,727z"/>
   <path class="fil5" d="M7130 6834c-19,-106 17,-14 -46,-139 -204,15 -523,266 -884,96 -98,-46 -32,25 -88,-93 -15,-31 -22,-63 -30,-104l470 56c39,15 21,10 50,29 212,136 -184,-55 47,36 -5,-433 127,-246 -20,-437 80,-49 220,-123 264,-201 -131,-54 -172,-11 -210,23 -303,264 -135,244 -364,228l106 -146c38,-75 41,-109 94,-159 68,-63 216,-155 307,-216 -98,-64 -124,9 -251,74 -102,51 -159,86 -184,232l-73 -5c-5,0 -25,-9 -34,-12 15,58 48,71 0,148l-119 86c-5,-8 -18,8 -25,16l377 96c128,37 49,-3 90,72 -66,53 -2,33 -92,24 -78,13 -499,40 -495,-157 3,-116 -3,-32 44,-104 140,-211 -7,149 40,-44 3,-16 15,-13 21,-22l-54 -27c-246,-99 -854,7 -945,-196 221,-68 226,12 230,15l29 37c35,-109 -3,-67 113,-86 26,-4 121,6 153,7 3,6 3,17 4,20 1,3 3,15 4,19 4,10 -31,30 55,68 41,-36 20,-26 26,-48l0 -52c119,-22 98,-10 209,5 222,31 124,36 177,-32 -55,-57 -14,-27 -92,-49 -6,-2 -104,-10 -115,-11l-441 4c-181,5 -154,-30 -176,-45 9,-5 20,-10 27,-13l485 -60c135,-54 931,-34 1096,-37 -145,-163 -1397,-53 -1614,31 -103,92 5,9 -52,81 -90,114 -77,30 -190,117 7,137 6,143 155,184l798 74c-40,276 -35,155 11,424 21,124 -1,88 107,172 361,282 705,-78 1005,21z"/>
   <path class="fil5" d="M15798 861c43,9 31,8 45,97 4,-44 -27,-73 66,-47l13 179 -91 -39c-4,-7 -7,-16 -10,-23l-58 -98c-2,-5 -5,-17 -6,-21 -1,-3 -2,-10 -3,-19 0,-9 -1,-14 -1,-20l45 -9zm559 -76c87,-56 57,-55 153,16l-71 42c-54,-8 -16,-21 -39,-42 25,87 -7,39 57,73 -22,459 -2,355 -112,416 -119,-94 -49,-88 -28,-212 18,-99 1,-189 40,-293zm-422 -129c210,40 161,212 173,567 258,-290 -209,-742 152,-539 66,225 -51,355 -25,521l-109 19c-10,3 -16,4 -26,7 -2,1 -119,53 -123,55 33,-167 33,-81 20,-227 -29,-342 -135,-162 -62,-403zm-196 1880c22,70 -1,46 52,67 7,-200 35,-236 -2,-427 -87,-437 -177,-810 -80,-1192 4,7 10,10 12,23 3,21 38,34 46,146l64 138c-94,89 -70,36 -70,121 123,-131 -38,-33 194,-48 9,0 18,-1 26,-2 32,-2 6,-10 53,-4 -56,98 -10,28 -116,115l84 46 91 11 236 75c12,-41 -13,-97 22,-185 -117,122 -74,42 -205,30 -6,0 -15,2 -21,1 -23,-2 -25,89 -85,-34 -36,-72 -16,-24 -14,-92 495,-59 332,106 528,131 -20,-101 -50,-111 -90,-199l91 -202c20,370 34,234 57,443 20,183 -40,356 -15,508 187,-267 12,-765 -4,-1019 -21,-331 -76,-243 -233,-301 -49,-18 -61,-85 -138,-114 -33,-13 -179,8 -244,23 -94,22 -261,215 -288,267 -227,426 59,1159 49,1674z"/>
   <path class="fil3" d="M6351 14841c26,-139 -6,-87 100,-117 -21,128 12,86 -100,117zm-192 -271c-5,-211 -57,-188 -122,-324 93,-69 353,-9 259,480 -36,184 -33,138 -142,179 -10,-127 8,-209 5,-335zm581 -575c-52,40 14,37 -97,27 11,-194 -9,-51 53,-119l44 92zm-59 -100c-34,25 -230,-103 -235,-108 56,-49 -72,-109 152,-91 133,11 64,1 125,82 -16,104 29,63 -42,117zm-828 394l47 25c171,84 44,-1 149,138l50 49c-42,169 -30,228 -5,356 -113,-68 -96,-8 -132,-385 -134,45 12,43 -133,50l-29 -146c-72,183 -93,390 -52,623 17,94 35,206 68,293l126 209c-30,-247 -197,-482 -160,-865l90 -23c35,15 2,51 61,188 3,8 7,17 11,25l41 86c77,-5 82,-18 137,-29 -39,132 -64,-6 -27,117 276,-157 -28,98 263,-59l125 -33c178,-36 -137,95 47,-16l60 -54c-65,-114 -51,-11 -29,-150 3,-14 30,1 21,-122 -10,-151 8,-56 -43,-132 -7,10 -11,14 -14,34 -32,272 -118,213 -134,215 -24,-75 7,-182 -14,-281 -44,-220 82,154 -30,-83l-54 -89c-25,-52 -13,24 -24,-66 55,-19 21,-18 76,-4 1,0 101,48 132,61 -34,-147 -43,-232 3,-368 83,130 22,32 32,104l-46 299c-4,15 -9,28 -12,43 76,-27 122,28 139,-132 16,-156 -58,25 -25,-161 71,230 32,-169 145,361 30,141 239,333 19,898 -28,72 -55,78 -69,186 -12,92 4,200 1,297 31,36 -18,18 52,5 28,-148 -37,-224 14,-333 215,-466 165,-649 60,-1000 -105,-347 93,-487 -44,-694 -59,-90 -221,-129 -300,-39 -129,147 72,286 -144,399l-449 203z"/>
   <path class="fil3" d="M12444 6242c77,-85 32,102 70,-99 112,34 135,111 154,235 102,-41 44,-11 128,-16 161,-8 219,-239 155,-318 -105,-129 -48,30 -181,-104l-6 256c20,-4 51,-66 133,-100 -105,398 -250,15 -269,-54 88,-180 251,-250 478,-271 48,108 69,144 92,266 9,45 10,95 21,135 63,237 -12,73 88,139 -57,-605 -201,-637 -365,-792 -351,-332 -317,-619 -499,-578l-6 167c4,17 38,98 49,124 48,116 75,153 126,238 -72,119 -360,188 -168,772z"/>
   <path class="fil4" d="M18903 10436c71,55 62,-20 30,84 -63,-32 -58,3 -30,-84zm-184 486c19,-111 7,-383 7,-532 197,402 293,167 325,139 2,9 4,13 4,27l5 55c0,2 -6,60 -5,93l119 -70 20 146c42,-41 7,-3 39,-46l55 -75 124 69c11,-87 -4,6 -81,-218 -67,-197 -19,-98 -165,-221 85,-8 116,34 173,66l67 35c-10,-228 -41,-256 -266,-221 -25,-55 -37,-91 -38,-179 86,138 13,97 90,63 -62,-277 -107,-10 -5,-370 67,-238 13,-194 14,-405 105,-64 -91,-66 85,-1l61 34c-39,-141 -56,-108 -61,-234l104 -69c-10,-6 45,-102 -109,-13 -164,95 -192,724 -212,910 -200,2 -149,-26 -264,101 -247,275 -179,815 -86,916z"/>
   <path class="fil3" d="M2486 13913c87,48 122,83 89,224l-134 -9 88 -116c-122,45 -66,60 -110,17 3,-114 24,-81 67,-116zm182 -44l157 -21 -16 358 -152 -62 11 -275zm-521 186l-71 26c6,9 17,9 21,27l74 112c21,54 105,368 -99,388 -35,-158 -16,-268 -59,-377l68 -120c-116,51 -130,75 -158,198l78 327c120,160 474,-80 574,-31 123,59 47,75 189,113 -28,-71 -25,-129 -46,-211 -77,-291 -356,-90 -400,-309 97,-42 398,48 523,84 5,-9 7,-34 10,-28 2,5 6,-22 9,-28 3,-6 8,-19 11,-25 43,-81 0,-38 59,-80 83,216 253,505 114,743 -1,0 -32,48 -39,60l-47 84c-36,65 -61,114 -86,171 -94,214 -37,205 -65,440 83,-20 26,51 54,-59 41,-617 299,-554 286,-923 -7,-199 -204,-719 -306,-831 -155,-33 -82,-19 -207,23l-68 19c-8,2 -16,2 -25,3 -240,42 -111,89 -394,204z"/>
   <path class="fil6" d="M3138 1452c123,28 42,1 79,41 -62,100 24,51 -103,64 6,-21 22,-99 24,-105zm-268 -532c145,-58 153,33 221,135 -7,135 -29,162 -42,245 -30,199 64,117 -82,213 -14,-657 19,-367 -97,-593zm268 532c-56,-119 7,-193 10,-330 4,-202 -64,-137 -70,-298 333,40 195,256 170,564l-110 64zm-620 811c50,141 -25,190 57,256 45,-252 -16,-114 164,-232 -169,-26 -101,57 -192,-85 -100,-155 -156,-558 -146,-773 8,-179 90,-427 265,-283 109,90 42,280 71,387 31,117 -29,24 60,109 25,-80 6,18 8,-75 1,-9 0,-35 -1,-44 -6,-102 -25,-327 -64,-390 -55,-87 -206,-75 -39,-133 104,-36 132,27 192,59 43,326 3,461 -111,693l58 -29c8,-4 16,-9 25,-12 91,-34 85,-3 145,-23 6,-2 15,-6 20,-8 4,-2 12,-8 17,-11l210 -79c35,-169 66,-248 82,-440 16,-186 -10,-317 94,-426 41,55 12,685 6,805 -17,358 -190,377 -223,633l-144 39 90 47 34 241c5,-5 8,-15 9,-19l25 -132c18,-111 -31,-30 35,-128 26,-266 214,-289 231,-648 16,-333 95,-913 -62,-896 -64,6 -10,-13 -55,21 -50,38 -38,70 -94,133 -190,-107 -554,63 -685,162 -28,21 -168,139 -184,161 -195,281 -16,853 102,1120z"/>
   <path class="fil2" d="M18855 21391c-57,245 -19,1275 -15,1615l305 -3 2 -1632c-100,-6 -201,-24 -292,20z"/>
   <path class="fil2" d="M16611 22972c106,50 195,39 310,29l3 -1623 -320 -10 7 1604z"/>
   <path class="fil3" d="M12440 10255l-16 1109c265,-30 176,-295 267,-505 52,51 -3,-52 52,79 6,16 18,59 21,77 23,115 6,474 180,310l-11 -148c35,175 15,74 -80,112 13,-143 -41,-353 -85,-493l71 -143c88,186 -48,169 93,346l17 -127 -22 -227 220 -10c47,-142 82,-248 58,-396 -28,-166 -66,51 80,-324l241 -72 -125 -176c-4,2 -8,10 -10,11 -127,90 -94,-21 -147,-44 -12,244 132,160 168,183 -163,71 -139,-66 -253,196l-291 409c-68,63 -83,52 -114,158 -19,65 -13,149 -63,208 -44,-100 -2,-135 23,-273 12,-61 5,-42 12,-91 23,-155 9,-51 50,-182l4 -144c-199,83 -140,431 -157,591l-73 462c-43,164 -21,80 -83,132 62,-302 43,-581 43,-893 8,-257 14,-51 -70,-135z"/>
   <path class="fil3" d="M13032 1735c59,-115 67,-119 182,-73 -57,30 -86,62 -182,73zm-188 95l25 0c42,131 -12,52 99,101l13 -136 154 99c48,-81 82,-208 207,-186 1,2 57,1 -13,98 -112,154 -108,-31 -246,328 -52,134 -85,142 -126,211l-41 92c-2,7 -5,16 -6,23 -17,89 -27,-84 -2,64 5,31 50,109 70,194 113,-12 28,0 61,-45 -56,-305 -26,-204 87,-451 41,-89 35,-132 106,-211 60,-67 94,-61 162,-187 211,-392 75,-698 -410,-725l87 -448c-127,34 -71,20 -99,213 -50,348 -155,342 -198,392 -66,76 -93,96 -10,189 85,65 147,-105 258,-125 97,-18 270,84 291,108 -17,2 -406,-106 -529,139 -28,56 -20,24 -10,61 89,47 107,-40 112,-44 213,-182 434,-89 428,19 -43,-76 21,-47 -177,-36 -160,8 -248,102 -293,263z"/>
   <path class="fil3" d="M6740 20605c12,-230 -15,-248 -145,-338 -159,-111 -96,-153 -166,-307l174 -97c34,-18 41,-17 82,-38 4,-10 4,-39 5,-33 1,5 4,-25 5,-32 27,-115 -16,-87 51,-108 35,99 -143,197 96,196 212,-1 97,99 228,45 -16,-135 30,-18 -182,-261 -99,-114 -116,-65 -379,-110 52,154 177,137 89,303l-61 -59c-92,-119 -99,-203 -65,-339 220,9 143,25 299,58l249 19c174,-11 123,-98 153,-1 -24,-126 -13,-71 -96,-107l-240 -42 7 -184c-21,24 66,8 -69,23 -28,3 -77,0 -104,-2l6 57c0,4 -1,48 -2,52 -26,114 -19,62 -47,79 -204,-103 -9,-262 31,-402 -101,14 -146,62 -231,116 -89,56 -104,76 -154,158 -134,214 -97,285 23,481 120,195 53,334 184,496 33,41 123,106 159,158 68,97 44,156 100,219z"/>
   <path class="fil3" d="M2050 19508c8,-113 14,-131 107,-87 -18,62 16,78 -107,87zm200 -542l92 -11 6 310c-15,116 -26,87 -39,112l-84 -14c23,-198 63,2 77,-178 -12,-3 -107,64 -86,-130 17,-162 -8,-5 34,-89zm-269 1522c128,44 33,21 61,-22 -102,-418 -258,-1099 -280,-1549 -8,-170 -41,-398 -15,-544 48,44 15,-9 34,58l114 585c108,-38 154,-86 207,-84 67,93 118,358 0,429 -133,-80 -17,-162 -89,-320 -133,187 54,117 -118,236 -4,3 -15,6 -23,9l63 23c133,40 -65,-44 43,11 -13,342 103,218 242,236 7,-192 -36,-17 30,-179 143,-49 35,-30 78,62 54,-10 49,29 99,-18 -16,-223 -14,-368 30,-550 224,76 65,86 193,437 27,76 34,59 53,162 85,0 119,-34 169,-180l131 -341c-56,-53 34,-41 -63,0 -88,133 -93,362 -241,397 -30,-101 -13,-202 -41,-319 -34,-138 -72,-111 -132,-221 -95,14 -70,25 -105,36 -180,57 -36,-27 -214,-8l-126 26c-89,21 -41,23 -127,41 -142,-374 -26,-616 -237,-616 -168,258 182,1904 264,2203z"/>
   <path class="fil3" d="M6795 9511c28,-29 125,1 140,17 34,38 46,107 64,154 -50,28 77,61 -15,-8 -46,-34 -2,-6 -46,-38 -1,128 25,104 11,212 -18,152 -58,145 -64,154 -6,-5 -121,-22 7,-180l-97 -311zm-6 557c31,-57 1,-18 46,-54 35,50 18,-4 33,73l-17 47c-98,-4 -28,11 -62,-47 -34,-50 16,-11 -81,-21l-89 16 2 -54 -22 -318 -149 -37c8,-70 -25,-110 -59,-182 111,42 82,3 112,92 18,55 -51,-43 13,66 48,83 -46,4 82,67 0,-92 19,-192 -73,-245 18,-20 46,-43 73,-82 174,162 -142,-159 45,61 64,77 -62,-9 29,28 49,19 -48,-79 56,2 -7,81 13,175 13,268 0,69 -17,146 -16,173 5,241 -38,94 64,147zm-851 -240l101 -122 170 43c52,-157 -14,-69 93,-134 91,82 14,9 87,104l64 75c64,60 44,19 77,124 5,165 -22,102 43,202 -48,176 -160,204 -97,459 -6,-103 42,-342 150,-425 5,7 12,9 14,22l31 71c3,9 17,79 24,102l116 -33c158,-15 -45,25 99,6l-58 -50c4,-7 13,-31 17,-25l105 -194c3,-7 8,-17 11,-23l27 -43c130,362 -168,670 -122,1040 26,215 35,108 86,150 -12,-274 -25,-373 48,-609 62,-200 115,-278 81,-522 -28,-201 -5,-427 -113,-545l-424 -177c-25,8 -211,217 -521,339 -88,35 -84,61 -109,165z"/>
   <path class="fil5" d="M6640 939c67,34 77,-43 97,148 1,3 -4,104 -4,104 -18,87 -18,43 -46,78 -64,-37 -45,71 -65,-145 -11,-123 -11,-102 18,-185zm17 -1c-82,-71 -44,34 -47,-321l6 -294c1,-16 8,-19 12,-28 87,35 70,-80 87,122l-58 521zm-233 1773l43 -11c-231,-155 -214,-566 -223,-769 6,-6 14,-26 17,-19l56 -40c4,-2 14,-5 20,-8l-62 -35c-109,-128 10,-331 -19,-740 -9,-126 -39,-205 46,-303 163,229 -13,383 58,671 186,-304 -100,-905 120,-1087 89,107 66,334 66,483 1,165 6,424 67,494 56,66 -117,-18 93,-12 127,3 -4,99 54,1 139,-235 -24,46 39,-243 21,-98 -12,-24 36,-88 99,43 45,-12 75,107 18,73 -12,320 101,480l-6 -117 -79 -939c-71,64 -33,114 -24,214 20,237 -20,186 -67,237 -56,-116 -60,-18 -74,-200 -6,-83 -8,-210 -9,-306l132 -27 -93 -93c-64,-63 -65,-109 -134,-121 -187,13 -3,-3 -136,47 -96,36 -39,-15 -135,51 -54,273 4,294 -188,447 -32,307 -107,1867 226,1926z"/>
   <path class="fil3" d="M9263 10635c12,-133 63,-58 -51,-154 -1,-1 -99,-40 -125,-58 15,-48 -26,-123 103,-115 98,7 17,6 73,38 7,4 48,38 56,44 -60,-222 -27,-87 4,-136 114,-102 96,-142 311,-121 71,92 114,160 79,317 139,22 57,96 130,-62 46,-97 -43,-217 -82,-263 -4,-5 -11,-12 -16,-17 -120,-136 -309,-70 -398,-4l-175 151c3,-13 11,-25 16,-35l103 -201c138,-211 482,-95 681,43 -17,-237 -146,-97 -324,-336 155,-2 341,120 447,220 73,69 175,320 198,414 21,81 26,210 43,284l153 471c51,204 -8,152 101,246l-35 -185c-3,-130 -61,-271 -101,-391 -201,-597 -7,-657 -469,-985 -226,-160 -265,-204 -681,-3 -175,85 -260,370 -239,619 58,52 53,36 108,105l90 114z"/>
   <path class="fil3" d="M16093 10288c87,-37 -76,-48 38,20l75 36c4,-8 17,6 25,12 -76,311 -3,75 -118,332l-201 -14c39,-72 24,-9 25,-142l147 -11 9 -233zm403 713l2 161c-175,3 -109,42 -111,-103 -35,-218 65,-621 -125,-794 -299,-274 -413,171 -421,433 -10,329 5,561 -132,702 6,-153 4,-238 7,-403 3,-161 70,-272 -47,-383 -10,173 -51,668 40,828 237,-26 143,-247 191,-668 421,-56 287,-98 371,-337 152,326 -59,435 118,774 332,47 205,-742 282,-1281l220 -79c-63,-85 9,-13 -104,-58 -6,-3 -14,-5 -21,-7 -71,-26 16,-23 -111,-36 -159,334 -13,985 -159,1251z"/>
   <path class="fil5" d="M19575 1187c13,114 36,348 -35,435 -108,134 -114,-105 -4,-215 3,-3 12,-9 17,-15 -108,-76 -87,18 -89,-168l111 -37zm-682 -282c174,89 67,138 88,522l41 229c42,-73 26,-183 24,-264 -2,-96 6,-207 9,-303 5,-225 12,-354 26,-573 128,26 102,106 99,472 -2,187 -17,399 -2,565 59,-64 62,-10 72,-296l-12 -610c-20,-198 -69,-151 83,-239 44,151 94,1139 64,1355l115 -11c138,-23 -111,-28 50,1 182,32 -15,-13 64,15 45,17 57,27 96,48 31,191 106,428 33,634 -84,236 -178,236 -174,529 44,-54 59,-165 76,-208 160,-324 222,-314 147,-775 -35,-213 -102,-234 -117,-368 -24,-224 56,-376 -100,-441 -44,-58 -40,-30 -132,-65 -27,-244 14,-583 -96,-756l-325 116c-49,521 -25,278 -129,423z"/>
   <path class="fil3" d="M18702 13861c51,127 58,167 207,109 163,-63 37,-53 260,-31l-12 225c-169,60 -263,38 -391,144 -290,241 42,752 51,800 38,198 28,254 177,390 16,-178 15,-96 -91,-318 5,84 70,90 104,88l71 -26c-74,-113 -171,-161 -218,-285 -30,-80 -101,-263 -105,-316 85,-38 7,-26 97,15 6,3 14,8 19,11l55 40c47,42 80,98 125,146 135,10 267,-10 343,-116 -45,-100 -66,-11 -159,-146 -99,-144 18,-68 -74,-214 -54,6 -129,111 -140,170 -43,239 24,79 125,190 -185,96 -500,-505 23,-495 4,4 2,15 2,17 11,149 -120,-12 17,70 51,31 82,14 101,3 -28,-136 -99,-27 -34,-404 -9,-6 -21,-9 -29,-12 -70,-33 -106,-34 -145,-95 -1,-2 -1,-12 0,-17 -176,16 -101,64 -237,127 -100,-85 2,-28 -142,-70z"/>
   <path class="fil7" d="M16446 12446c-324,-25 -72,-548 99,-378 6,7 38,43 43,50 46,69 45,-29 28,150 -115,-12 -47,-65 -201,-66 -33,140 -12,113 31,244zm462 255c26,-213 -102,-101 -145,-271 -43,-166 77,-181 -11,-396 -256,-622 -973,336 -419,575 160,70 197,-41 305,-5 119,39 107,144 270,97z"/>
   <path class="fil5" d="M10059 5991c7,23 117,-13 -30,124 -1,-3 -118,-63 30,-124zm-67 -454c104,-44 65,-24 172,-8 -6,9 -12,20 -17,26l-46 63c-40,43 -55,42 -72,53l-37 -134zm-88 513c18,41 44,-56 14,56 -19,70 8,6 -37,61 -18,-40 -81,75 -12,-120 -85,35 8,13 -90,27l43 -604c-94,93 -50,-64 -91,181 -64,384 43,110 21,445 -105,-91 -108,-125 -116,-296 -9,-206 -63,-225 -21,-317 18,-3 266,-7 295,-4 30,116 24,433 -6,571zm-165 101c96,66 5,29 126,43 -60,329 -42,141 29,178 12,-198 133,-139 254,-267l49 58c67,65 -59,-9 39,30 15,-33 -10,-189 -20,-216 -29,-80 67,-5 -76,-98 -61,-40 3,-19 -111,-39 2,-4 5,-18 6,-14l53 -120c159,106 28,60 157,67 -44,-287 8,-289 -242,-334 -182,-32 -256,-12 -436,-19l13 -557c-75,74 -84,-182 -77,439 0,57 -2,107 12,164l62 138 -76 169c97,106 52,107 110,269l-78 134 109 -49c8,-5 19,-11 26,-15 7,-4 18,-12 27,-16l44 55z"/>
   <path class="fil7" d="M6766 3582c27,-19 -55,-117 223,20 -48,63 8,23 -58,65 -180,116 -165,-84 -165,-85zm314 -141c-55,-128 -1,-162 -100,-264 -110,-113 -314,-138 -431,1l66 337c2,313 -97,238 -12,328 129,138 455,-44 528,-90 37,-223 5,-179 -51,-312z"/>
   <path class="fil7" d="M16060 3717c0,736 613,382 451,209 -69,-74 -87,49 -233,54 -28,-56 -45,-72 -57,-162 152,-123 374,30 355,-213 -98,-46 -235,-34 -326,-5 -37,-129 -18,-138 0,-272l186 -35c7,-3 17,-8 25,-14 -17,-120 15,-118 -134,-146 -139,-27 -152,-25 -204,83 -43,91 -63,395 -63,501z"/>
   <path class="fil7" d="M15456 16843c-128,207 238,991 412,403 123,84 163,182 335,140 60,-115 167,-453 68,-598 -175,27 -81,105 -150,343l-18 41c-1,-4 -6,14 -10,20 -98,-90 -232,-488 -371,54 -229,-182 -34,-375 -266,-403z"/>
   <path class="fil7" d="M12872 3317c100,6 111,32 167,96 -1,152 -43,262 -172,302l5 -398zm-122 604c244,37 473,-242 443,-502 -32,-267 -329,-370 -563,-277 -25,282 68,-13 86,238 0,185 -15,395 34,541z"/>
   <path class="fil3" d="M15166 15598c51,-242 -70,-312 -41,-889 104,109 47,-13 54,144 12,279 52,134 54,258 0,7 -1,17 -2,24 0,1 -26,70 -30,79 162,-68 123,-129 165,-47l135 -29c1,67 77,-8 91,-20 9,-7 19,-22 28,-34 -86,-8 -127,-20 -201,-27l-147 -38c-106,-81 5,48 -37,-46 77,-33 376,-31 454,20 141,91 51,172 328,241 -85,-251 84,18 -122,-136 -142,-107 -83,-244 -482,-214l-36 -200c0,0 -24,-51 -32,-73 -36,-101 -22,-180 -40,-237l-54 -132c-11,-38 -23,-109 -32,-160 -30,-154 -6,-173 -48,-339 -6,8 -11,20 -14,27 -2,8 -9,19 -12,29 -35,132 55,523 144,803 -68,42 -149,-1 -206,126 -40,87 -30,204 -19,304 19,173 33,436 102,566z"/>
   <path class="fil7" d="M19661 12816c15,-172 0,-85 -276,-337 35,-157 232,-176 110,-371 -97,-143 -349,-39 -435,8l126 644c112,-15 77,-58 195,-80 48,71 159,206 280,136z"/>
   <path class="fil7" d="M2930 3114c-89,96 -109,220 -164,351 -34,81 -143,254 -151,337 -9,88 9,127 90,98 93,-34 23,-71 143,-114 220,-80 160,109 348,104 78,-145 -40,-272 -85,-412 -70,-217 23,-335 -181,-364z"/>
   <path class="fil7" d="M19732 3953c-78,-193 -284,16 -176,-221 50,-111 48,-31 156,-82 44,-21 78,-25 66,-96 -21,-124 -173,-53 -286,-44 -127,10 -229,-33 -299,72 33,194 9,48 121,112 4,3 106,-39 70,118 -38,173 12,21 -110,95 -103,63 -61,-36 -85,114 72,94 73,59 197,52 8,170 0,345 201,299l-43 -284c99,-79 138,-30 188,-135z"/>
   <path class="fil3" d="M15940 16001c11,-104 44,-209 72,-279 260,-647 78,-211 55,-886 -12,-370 230,-933 85,-1176 -288,58 -200,630 -325,859 -139,-161 23,-911 -116,-930 -19,233 -51,872 116,1037l79 -200c49,-152 34,-110 127,-161 -86,-33 -130,39 -66,-198 20,-72 66,-155 126,-82 37,44 37,91 18,225 -35,234 -37,164 -156,142l105 82c-52,212 -55,413 -23,637l10 56c122,590 -152,365 -164,1010 5,-9 14,-33 16,-27l41 -109z"/>
   <path class="fil4" d="M5938 9828c-44,39 -47,76 -51,188 -16,511 197,523 208,1284 89,37 82,124 89,-256 1,28 -51,-49 4,58 43,83 -56,27 55,49 1,-3 1,-13 2,-11l10 -39c19,-55 11,-13 36,-79 -245,-176 -58,-30 -218,-460 -83,-223 -109,-298 -52,-495 -63,-233 -54,-119 45,-171 12,140 -12,193 35,310 63,-30 31,-21 48,-48 3,-5 8,-15 11,-20 127,-228 -37,-205 138,-355 -11,-48 -13,-18 4,-54l140 66c114,76 39,-26 71,157 10,58 -28,62 14,101l3 -135c-33,-105 -13,-64 -77,-124l-64 -75c-73,-95 4,-22 -87,-104 -107,65 -41,-23 -93,134l-170 -43 -101 122z"/>
   <path class="fil7" d="M2821 7607c161,-36 187,42 245,-115 -77,-108 -264,-98 -343,-61 -101,97 -17,-12 -62,122 -196,589 93,770 240,702 206,-165 172,-482 -153,-404l73 -244z"/>
   <path class="fil7" d="M9760 12272c128,1 203,60 274,123 16,333 -198,246 -317,115l43 -238zm418 308c57,-183 -42,-371 -193,-421 -200,-65 -338,-96 -404,150 -129,483 476,664 597,271z"/>
   <path class="fil7" d="M12910 12142c113,-66 120,-9 135,0 -53,52 76,25 -61,40 -92,10 -30,-4 -74,-40zm18 632c44,-122 17,-228 8,-362 109,-87 108,-17 298,-182 -9,-194 -66,-261 -221,-293 -520,-108 -261,283 -254,315 53,251 -45,532 169,522z"/>
   <path class="fil7" d="M19586 16927c42,-146 166,-235 116,-375 -190,-26 -111,66 -237,209 -18,-20 -12,-16 -41,-56 -8,-11 -17,-35 -38,-57 -62,-66 -23,-50 -123,-49 -56,133 33,215 85,328 -139,235 -210,121 -196,325 170,61 190,-72 313,-171 165,67 155,201 385,151 -13,-243 -51,-65 -264,-305z"/>
   <path class="fil7" d="M2546 12392c-148,-107 -64,-201 -264,-177 0,1 -34,552 -32,558 181,40 115,-25 177,-214 359,117 134,-24 326,-105 76,144 51,298 229,286 30,-168 -116,-470 -200,-543 -193,18 -107,77 -236,195z"/>
   <path class="fil7" d="M6462 7997c84,117 47,174 166,246 6,-4 14,-13 18,-17l70 -125c373,-16 134,89 366,100 45,-158 78,-561 -99,-619 -31,44 -22,13 -39,82 -17,71 -6,29 -7,96 -1,45 8,85 5,160l-256 4c-25,-188 34,-228 -88,-297 -104,55 -37,-5 -136,370z"/>
   <path class="fil7" d="M16309 7862c58,-153 199,-80 181,-284 -145,-74 -136,8 -249,76 -68,-135 29,-175 -148,-157 -74,145 -25,522 19,647 85,-13 115,-52 159,-86 93,64 247,213 382,108 -16,-220 -80,-35 -344,-304z"/>
   <path class="fil7" d="M12987 7946l1 423c-181,59 -281,-10 -376,40 5,284 416,183 495,59 75,-117 60,-581 -31,-718 -131,-17 -142,4 -259,53 -108,44 -134,28 -109,193l279 -50z"/>
   <path class="fil7" d="M10634 3902c-175,-63 -456,4 -467,-250 -14,-327 273,-314 327,-407 -24,-59 29,-58 -85,-97 -42,-15 -89,-2 -127,13 -386,159 -398,971 251,888 101,-13 113,-34 101,-147z"/>
   <path class="fil4" d="M2328 19439c-25,145 -65,98 -91,-29l91 29zm0 0c-43,-92 65,-111 -78,-62 -66,162 -23,-13 -30,179 -34,53 -154,107 -69,177 -38,71 -4,5 -1,2l62 -62c-17,111 -34,98 3,196 3,8 159,314 336,156 -120,-41 -121,-20 -217,-126 -7,-7 -25,-30 -31,-36l-33 -38c35,-170 92,-100 50,-255l195 24c70,-124 25,51 60,-157l89 41c6,1 29,-4 39,-8 -19,-103 -26,-86 -53,-162 -128,-351 31,-361 -193,-437 -44,182 -46,327 -30,550 -50,47 -45,8 -99,18z"/>
   <path class="fil7" d="M6596 16524c190,-23 387,66 369,-153 -134,-61 -310,-36 -456,-34 -176,3 -322,-53 -327,152 86,50 140,27 249,25 24,442 -50,544 137,546 58,-106 19,-296 28,-536z"/>
   <path class="fil7" d="M7304 21250c-66,-105 -339,-149 -443,-77 20,73 -121,101 267,173 -24,54 -416,420 240,344 19,-2 163,-21 169,-23 122,-52 59,15 73,-123 -111,-95 -209,-31 -351,-15 9,-149 139,-117 45,-279z"/>
   <path class="fil7" d="M2692 17028c26,-276 -168,-201 -239,-366 -92,-218 197,-91 223,-308 -79,-62 -147,-64 -248,-4 -251,150 -151,375 1,542l-165 103c17,240 342,125 428,33z"/>
   <path class="fil7" d="M6833 12206c-52,73 -8,62 -87,138 -178,-99 -131,-148 -195,-348 -238,17 -155,57 -162,242 -7,177 -100,202 -40,383 133,-27 65,26 152,-158 25,-54 14,-32 38,-63 6,5 15,12 19,16 4,3 14,11 18,15 136,117 220,204 354,-48l36 -223c-83,-30 -106,9 -133,46z"/>
   <path class="fil3" d="M11882 15567c76,-213 -4,-228 -2,-368 2,-114 3,-59 26,-107l62 150c3,8 9,20 14,29l18 -60c9,-97 -14,-138 -59,-186 -43,-46 2,2 -31,-27l-31 -25c9,-41 15,-73 36,-103 75,-102 48,-59 148,-99 5,124 20,177 31,276 6,57 1,61 5,102 0,6 0,16 1,22 1,7 2,17 3,24 1,10 13,61 16,81l-141 30c-5,1 -16,0 -23,4 9,5 26,-6 30,10 28,100 20,-17 48,30 43,70 58,-49 13,126 7,-10 14,-39 18,-33 8,11 20,-70 95,-121 110,71 33,0 89,110 222,-363 68,-295 118,-375 88,93 25,48 62,142 69,174 27,88 132,135 -10,-44 -74,-240 -92,-277 -54,-112 -122,-124 -191,-144l27 232c-10,185 -12,98 -56,165 -94,-65 -39,101 -74,-155 -19,-142 26,-119 -69,-310 -4,-8 -9,-17 -13,-24l-32 -55c-4,-18 -13,-20 -19,-29 8,-10 15,-29 18,-36l26 -60 -182 142c-168,155 -70,583 -21,784z"/>
   <path class="fil7" d="M19247 8407c-4,-234 105,-409 71,-575 -165,-4 -160,96 -200,274 -30,135 -48,266 -19,411 102,186 481,-14 461,-190 -153,-67 -185,32 -313,80z"/>
   <path class="fil1" d="M15899 5212l181 670c52,128 38,4 102,242l69 -37c139,-71 126,-52 19,-205 -80,20 -50,66 -98,86 10,-95 29,-58 6,-125l-75 -70c93,-87 71,-92 -9,-439 -31,-135 -91,-321 -151,-400 -103,20 43,-115 -78,95 -6,10 -11,25 -18,36 -10,-163 -31,-55 21,-189l108 20c-51,-65 52,-43 -90,-66 -82,110 -75,285 13,382z"/>
   <path class="fil7" d="M10139 17038c-248,-20 -34,339 -339,262 -227,-57 -53,-316 -274,-343 -109,188 67,491 266,524 244,39 417,-160 347,-443z"/>
   <path class="fil4" d="M15501 15138c-40,151 -217,165 -244,273 55,12 81,-22 177,-55 6,158 -32,238 38,322l30 -333c55,51 118,63 90,333 -24,225 -100,46 -73,238 121,51 -55,-81 71,3l25 25c31,48 19,24 15,63 9,-4 22,-18 27,-9l134 -43c-94,-53 -150,-98 -184,-314 -14,-83 -17,-110 25,-179 122,-8 63,252 258,117 -30,-116 108,85 -51,-50 -59,-49 -38,67 -50,-60 -41,-31 -41,-152 -43,-163l-10 -57c-56,-168 -56,29 -116,-165 -9,12 -19,27 -28,34 -14,12 -90,87 -91,20z"/>
   <path class="fil7" d="M12471 17146c-94,-166 -27,-245 -202,-194 -25,174 137,475 245,548 155,-59 255,-454 251,-526 -189,-58 -147,83 -251,229 -20,-23 -19,-15 -43,-57z"/>
   <path class="fil7" d="M2220 21300c-109,-76 -82,-135 -221,-106 -46,148 60,143 83,288 23,140 2,245 43,371l109 -16 17 -293c151,-131 209,-148 203,-303 -178,-25 -90,31 -234,59z"/>
   <path class="fil0" d="M17757 22745c169,-16 344,5 353,-226 9,-238 -174,-265 -359,-230l6 456z"/>
   <path class="fil3" d="M6365 1796c196,223 241,40 322,224 -76,101 83,39 -73,20l-98 229 120 -125c-2,175 2,116 57,264 149,-61 -20,-68 129,-39 64,12 -7,30 45,0 -36,-46 -4,-13 -41,-48 -138,-134 15,-96 -104,-14 -4,3 -15,11 -24,14 -34,-275 -12,-211 57,-315 4,-7 9,-15 13,-21 92,-144 63,-46 67,-186 -240,66 -145,27 -363,10l96 -90c91,41 49,27 146,29 21,1 77,0 93,-3 97,-18 59,-5 116,-50 -90,-72 -63,-65 -327,-54 -83,3 -76,-10 -135,25l-96 130z"/>
   <path class="fil3" d="M6021 10067l-9 188c139,89 100,46 310,26 -30,137 -88,184 -49,268 37,-69 59,-182 95,-249 5,-8 21,-32 27,-39 65,-87 55,-17 132,-208 -42,-39 -4,-43 -14,-101 -32,-183 43,-81 -71,-157l-23 289 -58 70c-2,-20 13,-34 -8,-38 0,0 -84,29 -74,32l19 -365c-175,150 -11,127 -138,355 -3,5 -8,15 -11,20 -17,27 15,18 -48,48 -47,-117 -23,-170 -35,-310 -99,52 -108,-62 -45,171z"/>
   <path class="fil1" d="M9550 14806c337,134 81,2 299,142 84,54 13,35 118,35 -65,-234 -52,-305 -96,-539l-118 6c-30,190 78,233 -147,259l50 -64c38,-83 40,-159 -11,-242 -107,41 -59,9 -95,403z"/>
   <path class="fil1" d="M9869 6047l35 3c30,-138 36,-455 6,-571 -29,-3 -277,1 -295,4 -42,92 12,111 21,317 8,171 11,205 116,296 22,-335 -85,-61 -21,-445 41,-245 -3,-88 91,-181l-43 604c98,-14 5,8 90,-27z"/>
   <path class="fil1" d="M16108 1223c-12,-355 37,-527 -173,-567 -73,241 33,61 62,403 13,146 13,60 -20,227 4,-2 121,-54 123,-55 10,-3 16,-4 26,-7l109 -19c-26,-166 91,-296 25,-521 -361,-203 106,249 -152,539z"/>
   <path class="fil3" d="M19500 1752l-115 11 21 91c-36,42 -110,102 -157,137 -108,81 16,43 -139,38 -51,165 -145,267 -145,267 -4,-7 -14,19 -21,28 114,-40 224,-165 275,-266 99,21 65,11 128,81 4,-7 7,-19 10,-23l129 -72c-19,160 -17,329 122,259 -94,-50 -79,-15 -96,-170 45,-11 -41,-55 116,65l-21 -286c-30,-71 -69,-32 -107,-160z"/>
   <path class="fil3" d="M15171 13743c125,32 122,104 214,410 28,90 40,155 60,247 40,187 46,179 116,232l36 -97c1,-9 1,-20 2,-30 1,-10 -10,-88 -10,-95 -6,-61 -9,-190 -7,-280 3,-219 1,-317 65,-523l64 -18c-39,-40 95,-66 -91,-35 -120,143 -128,691 -74,892 -69,-44 -104,-516 -313,-745l-62 42z"/>
   <path class="fil1" d="M16357 5672c67,10 -7,-78 83,32 22,-113 17,-152 12,-268 -7,-149 23,-309 6,-542 -1,-4 -21,-114 -23,-117 -46,-84 -7,-32 -76,-54 -58,101 -22,326 -27,477 -7,234 -5,266 25,472z"/>
   <path class="fil2" d="M9323 10254c-25,245 264,189 390,196 35,-157 -8,-225 -79,-317 -215,-21 -197,19 -311,121z"/>
   <path class="fil8" d="M17771 20804c-284,96 -221,-251 -13,-172l13 172zm-3 -246l-190 -32c-283,513 268,366 274,366l7 -429c-17,-227 7,-65 -50,-130 -60,95 -24,22 -41,225z"/>
   <path class="fil8" d="M15971 20634c240,-106 120,180 118,187l-127 -7c-44,-124 -46,-86 9,-180zm156 274c159,-200 105,-433 -190,-364 2,-148 38,-157 -51,-213 -33,60 -16,-17 -27,71 -14,119 -34,455 60,494 33,13 164,17 208,12z"/>
   <path class="fil1" d="M6037 14246c65,136 117,113 122,324 3,126 -15,208 -5,335 109,-41 106,5 142,-179 94,-489 -166,-549 -259,-480z"/>
   <path class="fil8" d="M15593 20548l35 142 -113 -16 78 -126zm-229 353c167,-150 99,-120 285,-124 87,104 13,94 149,122 -15,-87 -163,-466 -208,-556 -94,60 -209,431 -226,558z"/>
   <path class="fil8" d="M16976 20634c39,-41 116,-25 142,17 74,119 -18,162 -19,164 -153,54 -194,-106 -123,-181zm162 -82l-193 -36c-101,155 -152,259 36,408 115,-13 87,-35 233,-26 -6,-248 39,-504 -56,-564 -37,85 -20,103 -20,218z"/>
   <path class="fil8" d="M18978 20895c184,-32 -1,-78 132,-286 38,52 25,-2 46,93 42,193 -64,163 73,193 35,-94 5,-70 15,-161 22,-182 -4,-98 73,-123 89,121 -10,152 59,279 62,-25 50,33 60,-118 5,-72 -6,-148 -21,-215l-436 -5 -1 343z"/>
   <path class="fil3" d="M13165 7198c11,-171 -45,-216 -116,-276 -137,-116 -297,-192 -298,-243 166,59 120,56 189,4 -96,-77 -239,-112 -341,-156 -36,-264 21,-201 -59,-232 -153,-60 19,-84 -45,33 75,212 91,371 303,499 408,247 239,294 367,371z"/>
   <path class="fil3" d="M6659 18977l101 12c69,-128 0,-66 56,-247 -34,-17 -80,-21 -112,-82 -56,-106 -22,-125 12,-183l-29 -37c-3,-4 -12,-13 -15,-18 -4,-4 -11,-11 -15,-16 -21,-31 -30,-36 -44,-84 -24,-78 -8,-180 -6,-263 64,36 100,-18 133,207l40 -3c-7,-82 -25,-8 20,-125 29,-74 11,45 41,-109 -56,-31 -63,-33 -128,-24 -79,12 -80,5 -142,35 -74,255 92,543 155,813l-67 124z"/>
   <path class="fil8" d="M16576 20645c132,-122 182,122 94,178 -72,44 -222,-61 -94,-178zm-66 253l281 -3 1 -351c-91,-1 -220,-58 -294,9 -111,100 -48,262 12,345z"/>
   <path class="fil8" d="M18184 20820c-164,31 -184,-64 -109,-206l121 17c23,82 20,110 -12,189zm109 61l1 -329 -281 -29c-42,94 -113,196 -39,321 65,108 193,68 319,37z"/>
   <path class="fil8" d="M18645 20639c116,-109 191,10 135,189 -143,-2 -163,-17 -135,-189zm-88 -29l-20 206c145,156 173,85 355,72l0 -314c-105,-39 -166,-57 -282,-32l-53 68z"/>
   <path class="fil1" d="M6621 10028c67,-130 -15,-45 101,-83l-14 121c97,10 47,-29 81,21l0 -19c-102,-53 -59,94 -64,-147 -1,-27 16,-104 16,-173 0,-93 -20,-187 -13,-268 -104,-81 -7,17 -56,-2 -91,-37 35,49 -29,-28 -187,-220 129,101 -45,-61 -27,39 -55,62 -73,82 92,53 73,153 73,245 -128,-63 -34,16 -82,-67 -64,-109 5,-11 -13,-66 -30,-89 -1,-50 -112,-92 34,72 67,112 59,182l149 37 22 318z"/>
   <path class="fil1" d="M3138 1452l110 -64c25,-308 163,-524 -170,-564 6,161 74,96 70,298 -3,137 -66,211 -10,330z"/>
   <path class="fil2" d="M9717 12510c119,131 333,218 317,-115 -71,-63 -146,-122 -274,-123l-43 238z"/>
   <path class="fil0" d="M17755 22010c343,-52 345,-345 6,-387l-6 387z"/>
   <path class="fil7" d="M9747 7741c-37,110 -24,185 -11,326 13,137 5,150 116,167 61,-105 38,-203 29,-340 -11,-176 -12,-195 -134,-153z"/>
   <path class="fil1" d="M5800 14376l29 146c145,-7 -1,-5 133,-50 36,377 19,317 132,385 -25,-128 -37,-187 5,-356l-50 -49c-105,-139 22,-54 -149,-138l-47 -25 -53 87z"/>
   <path class="fil1" d="M6926 536c-17,-129 2,-60 -42,-82l-132 27c1,96 3,223 9,306 14,182 18,84 74,200 47,-51 87,0 67,-237 -9,-100 -47,-150 24,-214z"/>
   <path class="fil2" d="M16446 12446c-43,-131 -64,-104 -31,-244 154,1 86,54 201,66 17,-179 18,-81 -28,-150 -5,-7 -37,-43 -43,-50 -171,-170 -423,353 -99,378z"/>
   <path class="fil1" d="M12944 11325c72,-68 46,-98 34,-228 -7,-83 -8,-149 -29,-225l-17 127c-141,-177 -5,-160 -93,-346l-71 143c44,140 98,350 85,493 95,-38 115,63 80,-112l11 148z"/>
   <path class="fil1" d="M16357 785c-39,104 -22,194 -40,293 -21,124 -91,118 28,212 110,-61 90,43 112,-416 -64,-34 -32,14 -57,-73 23,21 -15,34 39,42l71 -42c-96,-71 -66,-72 -153,-16z"/>
   <path class="fil1" d="M2081 14111l-68 120c43,109 24,219 59,377 204,-20 120,-334 99,-388l-74 -112c-4,-18 -15,-18 -21,-27l71 -26 -66 56z"/>
   <path class="fil1" d="M2870 920c116,226 83,-64 97,593 146,-96 52,-14 82,-213 13,-83 35,-110 42,-245 -68,-102 -76,-193 -221,-135z"/>
   <path class="fil3" d="M19465 6087c-52,41 -27,-68 -53,90 108,143 143,82 243,49 63,-21 35,-3 73,-14 178,-51 40,-69 269,-102 -53,214 -21,66 -90,207l80 -17c245,-470 -311,-109 -498,-123l-24 -90z"/>
   <path class="fil4" d="M16093 1530l-91 -11c23,109 16,102 -51,171 6,6 14,6 17,17 3,11 14,14 17,17l116 168c53,-130 -18,-91 81,-264 -42,132 -37,15 -31,136 8,164 10,52 31,100 61,-94 59,-70 57,-236 -10,-5 -23,-22 -29,-14l-88 -59c-9,-7 -19,-16 -29,-25z"/>
   <path class="fil4" d="M9894 6372c-71,-37 -89,151 -29,-178 -121,-14 -30,23 -126,-43l-130 161c-5,5 -14,13 -18,17 -4,4 -13,11 -19,17 84,63 -25,25 74,32 2,0 109,-18 113,-18 -31,112 -40,62 -3,154 42,11 58,7 58,8 4,2 23,24 29,26 4,1 14,4 18,4l33 -180z"/>
   <path class="fil9" d="M11875 5618c-126,-3 -119,35 -131,-72l-41 58c42,123 35,-20 68,174 11,66 17,137 24,214 144,-21 77,-20 216,6 121,-175 93,9 140,-213 -192,59 -60,79 -294,122 -3,-106 -14,-95 -30,-202 5,-7 13,-17 15,-22l33 -65z"/>
   <path class="fil1" d="M16084 10521l-147 11c-1,133 14,70 -25,142l201 14c115,-257 42,-21 118,-332 -8,-6 -21,-20 -25,-12l-75 -36c-114,-68 49,-57 -38,-20l-9 233z"/>
   <path class="fil10" d="M12129 5780c106,-85 11,1 67,-132 18,-44 48,-75 75,-111l17 -373c-12,-75 -15,-48 -40,-90 -57,89 -15,-86 -47,124 0,1 -2,95 -3,105 -6,195 -141,345 -69,477z"/>
   <path class="fil1" d="M9602 14327c100,-23 124,-93 82,-211l-58 -87c6,-6 17,-25 20,-19 2,6 14,-14 17,-20l45 -141c14,-176 6,-125 -63,-174 -54,175 -91,457 -43,652z"/>
   <path class="fil1" d="M9835 14130c-67,130 -84,64 -82,252 58,-41 -40,-9 63,-17 130,-10 -9,20 57,1 26,-295 45,-428 -80,-554 -61,170 -61,220 42,318z"/>
   <path class="fil4" d="M12968 1931c-111,-49 -57,30 -99,-101l-25 0c14,172 44,-173 -16,88 -28,124 -74,20 -225,148 9,4 20,1 27,12l150 -12c-75,128 -72,118 -59,168l148 -168c2,133 -22,135 61,105l8 -37c-4,-104 -42,-120 30,-203z"/>
   <path class="fil1" d="M6298 9783l-19 365c-10,-3 74,-32 74,-32 21,4 6,18 8,38l58 -70 23 -289 -140 -66c-17,36 -15,6 -4,54z"/>
   <path class="fil2" d="M12867 3715c129,-40 171,-150 172,-302 -56,-64 -67,-90 -167,-96l-5 398z"/>
   <path class="fil1" d="M6657 938l58 -521c-17,-202 0,-87 -87,-122 -4,9 -11,12 -12,28l-6 294c3,355 -35,250 47,321z"/>
   <path class="fil1" d="M6795 9511l97 311c-128,158 -13,175 -7,180 6,-9 46,-2 64,-154 14,-108 -12,-84 -11,-212 44,32 0,4 46,38 92,69 -35,36 15,8 -18,-47 -30,-116 -64,-154 -15,-16 -112,-46 -140,-17z"/>
   <polygon class="fil1" points="2657,14144 2809,14206 2825,13848 2668,13869 "/>
   <path class="fil11" d="M6823 18443l40 111 8 -78c54,63 -56,28 86,74 50,17 43,4 80,1 198,-17 68,20 179,-74l-78 -42c-8,-1 -18,2 -25,1 -15,0 -10,93 -49,15 -5,-9 -16,8 -25,9l-56 -147 -160 130z"/>
   <path class="fil1" d="M19575 1187l-111 37c2,186 -19,92 89,168 -5,6 -14,12 -17,15 -110,110 -104,349 4,215 71,-87 48,-321 35,-435z"/>
   <path class="fil1" d="M2216 19055c-21,194 74,127 86,130 -14,180 -54,-20 -77,178l84 14c13,-25 24,4 39,-112l-6 -310 -92 11c-42,84 -17,-73 -34,89z"/>
   <path class="fil8" d="M18400 20897c110,-58 67,-499 30,-566 -86,57 -53,130 -50,269 3,111 -10,224 20,297z"/>
   <path class="fil1" d="M6446 13787c5,5 201,133 235,108 71,-54 26,-13 42,-117 -61,-81 8,-71 -125,-82 -224,-18 -96,42 -152,91z"/>
   <path class="fil8" d="M16330 21062c58,-107 61,-416 0,-519 -84,69 -84,452 0,519z"/>
   <path class="fil6" d="M2610 1419c-28,-84 -47,-103 -94,-184 -66,84 -7,92 29,221 28,102 19,148 49,255l208 62c-45,-90 -22,-126 -147,-79l-45 -275z"/>
   <path class="fil5" d="M2782 5720l48 35c-55,23 -135,-15 -95,146 19,78 55,82 77,105 17,-33 127,86 -1,-169 97,8 91,54 162,-133 -118,-6 23,6 -78,37 -43,13 -36,-6 -113,-21z"/>
   <path class="fil0" d="M17099 20815c1,-2 93,-45 19,-164 -26,-42 -103,-58 -142,-17 -71,75 -30,235 123,181z"/>
   <path class="fil1" d="M6687 1269c28,-35 28,9 46,-78 0,0 5,-101 4,-104 -20,-191 -30,-114 -97,-148 -29,83 -29,62 -18,185 20,216 1,108 65,145z"/>
   <path class="fil0" d="M15971 20634c-55,94 -53,56 -9,180l127 7c2,-7 122,-293 -118,-187z"/>
   <path class="fil0" d="M16576 20645c-128,117 22,222 94,178 88,-56 38,-300 -94,-178z"/>
   <path class="fil0" d="M18645 20639c-28,172 -8,187 135,189 56,-179 -19,-298 -135,-189z"/>
   <path class="fil0" d="M17771 20804l-13 -172c-208,-79 -271,268 13,172z"/>
   <path class="fil0" d="M18184 20820c32,-79 35,-107 12,-189l-121 -17c-75,142 -55,237 109,206z"/>
   <path class="fil2" d="M6766 3582c0,1 -15,201 165,85 66,-42 10,-2 58,-65 -278,-137 -196,-39 -223,-20z"/>
   <path class="fil1" d="M2419 14029c44,43 -12,28 110,-17l-88 116 134 9c33,-141 -2,-176 -89,-224 -43,35 -64,2 -67,116z"/>
   <path class="fil1" d="M16064 6177c21,-41 120,85 21,-132 -42,-93 -168,-79 -123,63 38,118 -44,40 102,69z"/>
   <path class="fil1" d="M15753 870c0,6 1,11 1,20 1,9 2,16 3,19 1,4 4,16 6,21l58 98c3,7 6,16 10,23l91 39 -13 -179c-93,-26 -62,3 -66,47 -14,-89 -2,-88 -45,-97l-45 9z"/>
   <path class="fil12" d="M16387 11059c2,145 -64,106 111,103l-2 -161 -57 -26 -52 84z"/>
   <path class="fil1" d="M10029 5671c17,-11 32,-10 72,-53l46 -63c5,-6 11,-17 17,-26 -107,-16 -68,-36 -172,8l37 134z"/>
   <path class="fil2" d="M2684 10515c53,-74 33,-38 47,-159l-95 0 -33 135 81 24z"/>
   <path class="fil12" d="M2782 10540c76,-39 104,-93 90,-225 -85,49 -125,128 -90,225z"/>
   <path class="fil7" d="M12371 4998c-52,-55 94,-69 -91,-48 -94,10 -18,1 -69,60 112,50 69,63 160,-12z"/>
   <path class="fil10" d="M7123 18306c-13,-116 11,-90 -81,-123 -61,135 -11,107 0,136l81 -13z"/>
   <path class="fil6" d="M11744 5546c12,107 5,69 131,72 -25,-81 -38,-82 -107,-121l-24 49z"/>
   <path class="fil8" d="M6621 10028l-2 54 89 -16 14 -121c-116,38 -34,-47 -101,83z"/>
   <path class="fil12" d="M16027 6245c41,100 -49,46 111,83 -13,-63 20,-59 -32,-100 -78,-62 -76,15 -79,17z"/>
   <path class="fil12" d="M13032 1735c96,-11 125,-43 182,-73 -115,-46 -123,-42 -182,73z"/>
   <path class="fil8" d="M16298 20499c104,-65 97,-30 32,-138 -77,55 -79,31 -32,138z"/>
   <path class="fil12" d="M10029 6115c147,-137 37,-101 30,-124 -148,61 -31,121 -30,124z"/>
   <path class="fil12" d="M2050 19508c123,-9 89,-25 107,-87 -93,-44 -99,-26 -107,87z"/>
   <path class="fil12" d="M6643 14022c111,10 45,13 97,-27l-44 -92c-62,68 -42,-75 -53,119z"/>
   <path class="fil12" d="M6351 14841c112,-31 79,11 100,-117 -106,30 -74,-22 -100,117z"/>
   <polygon class="fil13" points="15515,20674 15628,20690 15593,20548 "/>
   <path class="fil12" d="M3138 1452c-2,6 -18,84 -24,105 127,-13 41,36 103,-64 -37,-40 44,-13 -79,-41z"/>
   <path class="fil12" d="M9514 15214l-72 -3c6,69 -3,51 20,97l84 -21 -32 -73z"/>
   <path class="fil8" d="M12910 12142c44,36 -18,50 74,40 137,-15 8,12 61,-40 -15,-9 -22,-66 -135,0z"/>
   <path class="fil12" d="M9904 6050l-35 -3c-69,195 -6,80 12,120 45,-55 18,9 37,-61 30,-112 4,-15 -14,-56z"/>
   <path class="fil12" d="M6515 6538c90,9 26,29 92,-24 -41,-75 38,-35 -90,-72l-2 96z"/>
   <path class="fil12" d="M6789 10068l0 19c34,58 -36,43 62,47l17 -47c-15,-77 2,-23 -33,-73 -45,36 -15,-3 -46,54z"/>
   <path class="fil12" d="M18953 6481c87,75 -105,47 44,32 73,-7 25,2 72,-32 -106,-135 -63,-39 -116,0z"/>
   <polygon class="fil12" points="2250,10301 2332,10342 2329,10240 2267,10232 "/>
   <path class="fil2" d="M2328 19439l-91 -29c26,127 66,174 91,29z"/>
   <path class="fil12" d="M19140 6486c66,-53 56,-28 29,-119 -41,48 -20,-47 -38,57 -10,52 -2,26 9,62z"/>
   <path class="fil12" d="M18933 10520c32,-104 41,-29 -30,-84 -28,87 -33,52 30,84z"/>
  </g>
 </g>
</svg>
